<mxfile host="app.diagrams.net" modified="2024-04-13T19:42:14.332Z" agent="Mozilla/5.0 (Windows NT 10.0; Win64; x64) AppleWebKit/537.36 (KHTML, like Gecko) Chrome/123.0.0.0 Safari/537.36" etag="FAx5QHy_uDXSvbCN8mu1" version="24.2.5" type="google">
  <diagram name="Page-1" id="XXotdDjgD-mjMKsBszLx">
    <mxGraphModel grid="1" page="0" gridSize="10" guides="1" tooltips="1" connect="1" arrows="1" fold="1" pageScale="1" pageWidth="850" pageHeight="1100" math="0" shadow="0">
      <root>
        <mxCell id="0" />
        <mxCell id="1" parent="0" />
        <mxCell id="v-xWoGNkuWQi2-wrLgr6-79" value="" style="group" connectable="0" vertex="1" parent="1">
          <mxGeometry x="-2060" y="-339.5" width="1790" height="3465" as="geometry" />
        </mxCell>
        <mxCell id="v-xWoGNkuWQi2-wrLgr6-14" style="edgeStyle=orthogonalEdgeStyle;rounded=0;orthogonalLoop=1;jettySize=auto;html=1;exitX=1;exitY=0.5;exitDx=0;exitDy=0;" edge="1" parent="v-xWoGNkuWQi2-wrLgr6-79" source="7vMeg80q9LHAkZB8NodJ-26" target="v-xWoGNkuWQi2-wrLgr6-13">
          <mxGeometry relative="1" as="geometry" />
        </mxCell>
        <mxCell id="7vMeg80q9LHAkZB8NodJ-26" value="&lt;h1 style=&quot;white-space: pre;&quot;&gt;&lt;b style=&quot;&quot;&gt;&lt;font style=&quot;font-size: 24px;&quot;&gt;Request data json&lt;/font&gt;&lt;/b&gt;&lt;/h1&gt;&lt;h2 style=&quot;white-space: pre; font-size: 13px;&quot;&gt;&lt;b style=&quot;&quot;&gt;&lt;font style=&quot;font-size: 13px;&quot;&gt;http://localhost:8080/bo/api/priv&lt;/font&gt;&lt;/b&gt;&lt;/h2&gt;&lt;div style=&quot;font-size: 13px; white-space: pre;&quot;&gt;&lt;b&gt;Get roll data &lt;/b&gt;&lt;span style=&quot;background-color: initial;&quot;&gt;&lt;b&gt;ServiceAutRole, &lt;/b&gt;&lt;/span&gt;&lt;span style=&quot;background-color: initial;&quot;&gt;&lt;b&gt;SVLst&lt;/b&gt;&lt;/span&gt;&lt;/div&gt;&lt;div style=&quot;font-size: 14px; white-space: pre;&quot;&gt;&lt;b&gt;&lt;br&gt;&lt;/b&gt;&lt;/div&gt;&lt;div style=&quot;font-size: 14px; white-space: pre;&quot;&gt;{&lt;/div&gt;&lt;div style=&quot;font-size: 14px; white-space: pre;&quot;&gt;&amp;nbsp; &amp;nbsp; &quot;sess_id&quot;: -1,&lt;/div&gt;&lt;div style=&quot;font-size: 14px; white-space: pre;&quot;&gt;&amp;nbsp; &amp;nbsp; &quot;sv_class&quot;: &quot;ServiceAutRole&quot;,&lt;/div&gt;&lt;div style=&quot;font-size: 14px; white-space: pre;&quot;&gt;&amp;nbsp; &amp;nbsp; &quot;sv_name&quot;: &quot;SVLst&quot;,&lt;/div&gt;&lt;div style=&quot;font-size: 14px; white-space: pre;&quot;&gt;&amp;nbsp; &amp;nbsp; &quot;user_id&quot;: 1&lt;/div&gt;&lt;div style=&quot;font-size: 14px; white-space: pre;&quot;&gt;}&lt;/div&gt;&lt;div style=&quot;font-size: 14px; white-space: pre;&quot;&gt;&lt;br&gt;&lt;/div&gt;&lt;div style=&quot;font-size: 13px; white-space: pre;&quot;&gt;&lt;div style=&quot;line-height: 18px;&quot;&gt;&lt;div style=&quot;&quot;&gt;&lt;font style=&quot;background-color: rgb(255, 255, 255); font-size: 13px;&quot; face=&quot;Helvetica&quot;&gt;&lt;b&gt;ServiceTpyCategory , SVLstSearch&lt;/b&gt;&lt;/font&gt;&lt;/div&gt;&lt;div style=&quot;&quot;&gt;&lt;font style=&quot;background-color: rgb(255, 255, 255); font-size: 13px;&quot; face=&quot;Helvetica&quot;&gt;&lt;br&gt;&lt;/font&gt;&lt;/div&gt;&lt;div style=&quot;&quot;&gt;&lt;font face=&quot;Helvetica&quot; style=&quot;background-color: rgb(255, 255, 255);&quot;&gt;{&lt;/font&gt;&lt;/div&gt;&lt;div style=&quot;&quot;&gt;&lt;font face=&quot;Helvetica&quot; style=&quot;background-color: rgb(255, 255, 255);&quot;&gt;&amp;nbsp; &amp;nbsp; &quot;sv_class&quot;:&quot;ServiceTpyCategory&quot;,&lt;/font&gt;&lt;/div&gt;&lt;div style=&quot;&quot;&gt;&lt;font style=&quot;background-color: rgb(255, 255, 255);&quot;&gt;&amp;nbsp; &amp;nbsp; &quot;sv_name&quot;:&quot;SVLstSearch&quot;,&lt;/font&gt;&lt;/div&gt;&lt;div style=&quot;&quot;&gt;&lt;font style=&quot;background-color: rgb(255, 255, 255);&quot;&gt;&amp;nbsp; &amp;nbsp; &quot;user_id&quot;:1,&lt;/font&gt;&lt;/div&gt;&lt;div style=&quot;&quot;&gt;&lt;font style=&quot;background-color: rgb(255, 255, 255);&quot;&gt;&amp;nbsp; &amp;nbsp; &quot;sess_id&quot;:-1&lt;/font&gt;&lt;/div&gt;&lt;div style=&quot;&quot;&gt;&lt;font style=&quot;background-color: rgb(255, 255, 255);&quot;&gt;}&lt;/font&gt;&lt;/div&gt;&lt;/div&gt;&lt;/div&gt;&lt;div style=&quot;font-size: 14px; white-space: pre;&quot;&gt;&lt;br&gt;&lt;/div&gt;&lt;p style=&quot;white-space: pre; font-size: 13px;&quot;&gt;&lt;b style=&quot;background-color: initial;&quot;&gt;Get Admin data, ServiceAutUser, SVLstDyn, typ01 : 1&lt;/b&gt;&lt;/p&gt;&lt;p style=&quot;white-space: pre; font-size: 13px;&quot;&gt;&lt;font style=&quot;font-size: 13px;&quot; face=&quot;Helvetica&quot;&gt;{&lt;br&gt;&lt;/font&gt;&lt;/p&gt;&lt;div style=&quot;white-space: pre; font-size: 13px;&quot;&gt;&lt;font style=&quot;font-size: 13px;&quot;&gt;&lt;font style=&quot;font-size: 13px;&quot; face=&quot;d_wIMVDXB98C4rkvW-1h&quot;&gt;&amp;nbsp; &amp;nbsp;&lt;/font&gt; &quot;sv_class&quot;:&quot;ServiceAutUser&quot;,&lt;/font&gt;&lt;/div&gt;&lt;div style=&quot;white-space: pre; font-size: 13px;&quot;&gt;&lt;font style=&quot;font-size: 13px;&quot;&gt;&amp;nbsp; &amp;nbsp; &quot;sv_name&quot;:&quot;SVLstDyn&quot;,&lt;/font&gt;&lt;/div&gt;&lt;div style=&quot;white-space: pre; font-size: 13px;&quot;&gt;&lt;font style=&quot;font-size: 13px;&quot;&gt;&amp;nbsp; &amp;nbsp; &quot;user_id&quot;:1,&lt;/font&gt;&lt;/div&gt;&lt;div style=&quot;white-space: pre; font-size: 13px;&quot;&gt;&lt;font style=&quot;font-size: 13px;&quot;&gt;&amp;nbsp; &amp;nbsp; &quot;sess_id&quot;:-1,&lt;/font&gt;&lt;/div&gt;&lt;div style=&quot;white-space: pre; font-size: 13px;&quot;&gt;&lt;font style=&quot;font-size: 13px;&quot;&gt;&amp;nbsp; &amp;nbsp; &quot;typ01&quot;:&quot;1&quot;,&lt;/font&gt;&lt;/div&gt;&lt;div style=&quot;white-space: pre; font-size: 13px;&quot;&gt;&lt;div style=&quot;line-height: 18px;&quot;&gt;&lt;div style=&quot;&quot;&gt;&lt;font style=&quot;&quot; face=&quot;Helvetica&quot;&gt;&lt;span style=&quot;background-color: rgb(255, 255, 255);&quot;&gt;   &quot;dataTableParam&quot;:&quot;{\&quot;sEcho\&quot;:1,\&quot;iColumns\&quot;:4,\&quot;sColumns\&quot;:\&quot;id,login01,inf01,inf02\&quot;,\&quot;iDisplayStart\&quot;:0,&lt;/span&gt;&lt;/font&gt;&lt;/div&gt;&lt;div style=&quot;&quot;&gt;&lt;font style=&quot;background-color: rgb(255, 255, 255);&quot; face=&quot;d_2HJobrghV_c455GmCt&quot;&gt;&amp;nbsp; &amp;nbsp; \&quot;iDisplayLength\&lt;/font&gt;&lt;font face=&quot;Helvetica&quot; style=&quot;background-color: rgb(255, 255, 255);&quot;&gt;&quot;:15,\&quot;mDataProp_0\&quot;:\&quot;id\&quot;,\&quot;sSearch_0\&quot;:\&quot;\&quot;,\&quot;bRegex_0\&quot;:false,\&quot;bSearchable_0\&quot;:true,&lt;/font&gt;&lt;/div&gt;&lt;div style=&quot;&quot;&gt;&lt;font style=&quot;background-color: rgb(255, 255, 255);&quot;&gt;&amp;nbsp; &amp;nbsp; \&quot;bSortable_0\&quot;:true,\&quot;mDataProp_1\&quot;:\&quot;login01\&quot;,\&quot;sSearch_1\&quot;:\&quot;\&quot;,\&quot;bRegex_1\&quot;:false,\&quot;bSearchable_1\&quot;:true,&lt;/font&gt;&lt;/div&gt;&lt;div style=&quot;&quot;&gt;&lt;font style=&quot;background-color: rgb(255, 255, 255);&quot;&gt;&amp;nbsp; &amp;nbsp; \&quot;bSortable_1\&quot;:true,\&quot;mDataProp_2\&quot;:\&quot;inf01\&quot;,\&quot;sSearch_2\&quot;:\&quot;\&quot;,\&quot;bRegex_2\&quot;:false,\&quot;bSearchable_2\&quot;:true,&lt;/font&gt;&lt;/div&gt;&lt;div style=&quot;&quot;&gt;&lt;font style=&quot;background-color: rgb(255, 255, 255);&quot;&gt;&amp;nbsp; &amp;nbsp; \&quot;bSortable_2\&quot;:true,\&quot;mDataProp_3\&quot;:\&quot;inf02\&quot;,\&quot;sSearch_3\&quot;:\&quot;\&quot;,\&quot;bRegex_3\&quot;:false,\&quot;bSearchable_3\&quot;:true,&lt;/font&gt;&lt;/div&gt;&lt;div style=&quot;&quot;&gt;&lt;font style=&quot;background-color: rgb(255, 255, 255);&quot;&gt;&amp;nbsp; &amp;nbsp; \&quot;bSortable_3\&quot;:true,\&quot;sSearch\&quot;:\&quot;\&quot;,\&quot;bRegex\&quot;:false,\&quot;iSortCol_0\&quot;:0,\&quot;sSortDir_0\&quot;:\&quot;asc\&quot;,&lt;/font&gt;&lt;/div&gt;&lt;div style=&quot;&quot;&gt;&lt;font style=&quot;background-color: rgb(255, 255, 255);&quot;&gt;&amp;nbsp; &amp;nbsp; \&quot;iSortingCols\&quot;:1}&quot;&lt;/font&gt;&lt;/div&gt;&lt;/div&gt;&lt;/div&gt;&lt;div style=&quot;white-space: pre; font-size: 13px;&quot;&gt;&lt;span style=&quot;background-color: initial;&quot;&gt;}&lt;/span&gt;&lt;br&gt;&lt;/div&gt;&lt;div style=&quot;white-space: pre; font-size: 13px;&quot;&gt;&lt;font style=&quot;font-size: 13px;&quot;&gt;&lt;br&gt;&lt;/font&gt;&lt;/div&gt;&lt;div style=&quot;white-space: pre; font-size: 13px;&quot;&gt;&lt;font style=&quot;font-size: 13px;&quot;&gt;&lt;div style=&quot;line-height: 18px;&quot;&gt;&lt;div style=&quot;font-family: Helvetica; background-color: rgb(255, 255, 255);&quot;&gt;&lt;b&gt;Get Agent data, ServiceAutUser, SVLstDyn, typ01 : 2&lt;/b&gt;&lt;/div&gt;&lt;div style=&quot;font-family: Helvetica; background-color: rgb(255, 255, 255);&quot;&gt;&lt;br&gt;&lt;/div&gt;&lt;div style=&quot;font-family: Helvetica; background-color: rgb(255, 255, 255);&quot;&gt;{&lt;/div&gt;&lt;div style=&quot;font-family: Helvetica; background-color: rgb(255, 255, 255);&quot;&gt;&amp;nbsp; &amp;nbsp; &quot;sv_class&quot;:&quot;ServiceAutUser&quot;,&lt;/div&gt;&lt;div style=&quot;font-family: Helvetica; background-color: rgb(255, 255, 255);&quot;&gt;&amp;nbsp; &amp;nbsp; &quot;sv_name&quot;:&quot;SVLstDyn&quot;,&lt;/div&gt;&lt;div style=&quot;font-family: Helvetica; background-color: rgb(255, 255, 255);&quot;&gt;&amp;nbsp; &amp;nbsp; &quot;user_id&quot;:1,&lt;/div&gt;&lt;div style=&quot;font-family: Helvetica; background-color: rgb(255, 255, 255);&quot;&gt;&amp;nbsp; &amp;nbsp; &quot;sess_id&quot;:-1,&lt;/div&gt;&lt;div style=&quot;font-family: Helvetica; background-color: rgb(255, 255, 255);&quot;&gt;&amp;nbsp; &amp;nbsp; &quot;typ01&quot;:&quot;2&quot;,&lt;/div&gt;&lt;div style=&quot;font-family: Helvetica; background-color: rgb(255, 255, 255);&quot;&gt;&lt;div&gt;&lt;span style=&quot;background-color: initial;&quot;&gt;   &lt;/span&gt;&lt;span style=&quot;font-size: 12px;&quot;&gt; &lt;/span&gt;&lt;span style=&quot;font-size: 12px;&quot;&gt;&quot;dataTableParam&quot;&lt;/span&gt;&lt;span style=&quot;font-size: 12px;&quot;&gt;:&lt;/span&gt;&lt;span style=&quot;font-size: 12px;&quot;&gt;&quot;{\&quot;sEcho\&quot;:1,\&quot;iColumns\&quot;:4,\&quot;sColumns\&quot;:\&quot;id,login01,inf01,inf02\&quot;,\&quot;iDisplayStart\&quot;:0,&lt;/span&gt;&lt;/div&gt;&lt;div style=&quot;font-size: 12px; line-height: 18px;&quot;&gt;&lt;div&gt;&amp;nbsp; &amp;nbsp; \&quot;iDisplayLength\&quot;:15,\&quot;mDataProp_0\&quot;:\&quot;id\&quot;,\&quot;sSearch_0\&quot;:\&quot;\&quot;,\&quot;bRegex_0\&quot;:false,\&quot;bSearchable_0\&quot;:true,&lt;/div&gt;&lt;div&gt;&amp;nbsp; &amp;nbsp; \&quot;bSortable_0\&quot;:true,\&quot;mDataProp_1\&quot;:\&quot;login01\&quot;,\&quot;sSearch_1\&quot;:\&quot;\&quot;,\&quot;bRegex_1\&quot;:false,\&quot;bSearchable_1\&quot;:true,&lt;/div&gt;&lt;div&gt;&amp;nbsp; &amp;nbsp; \&quot;bSortable_1\&quot;:true,\&quot;mDataProp_2\&quot;:\&quot;inf01\&quot;,\&quot;sSearch_2\&quot;:\&quot;\&quot;,\&quot;bRegex_2\&quot;:false,\&quot;bSearchable_2\&quot;:true,&lt;/div&gt;&lt;div&gt;&amp;nbsp; &amp;nbsp; \&quot;bSortable_2\&quot;:true,\&quot;mDataProp_3\&quot;:\&quot;inf02\&quot;,\&quot;sSearch_3\&quot;:\&quot;\&quot;,\&quot;bRegex_3\&quot;:false,\&quot;bSearchable_3\&quot;:true,&lt;/div&gt;&lt;div&gt;&amp;nbsp; &amp;nbsp; \&quot;bSortable_3\&quot;:true,\&quot;sSearch\&quot;:\&quot;\&quot;,\&quot;bRegex\&quot;:false,\&quot;iSortCol_0\&quot;:0,\&quot;sSortDir_0\&quot;:\&quot;asc\&quot;,&lt;/div&gt;&lt;div&gt;&amp;nbsp; &amp;nbsp; \&quot;iSortingCols\&quot;:1}&quot;&lt;/div&gt;&lt;/div&gt;&lt;/div&gt;&lt;div style=&quot;font-family: Helvetica; background-color: rgb(255, 255, 255);&quot;&gt;}&lt;br&gt;&lt;/div&gt;&lt;div style=&quot;font-family: Helvetica; background-color: rgb(255, 255, 255);&quot;&gt;&lt;br&gt;&lt;/div&gt;&lt;div style=&quot;&quot;&gt;&lt;div style=&quot;line-height: 18px;&quot;&gt;&lt;div style=&quot;&quot;&gt;&lt;span style=&quot;background-color: rgb(255, 255, 255);&quot;&gt;&lt;font style=&quot;font-size: 13px;&quot; face=&quot;Helvetica&quot;&gt;&lt;b&gt;Get &lt;/b&gt;&lt;/font&gt;&lt;/span&gt;&lt;b style=&quot;background-color: initial;&quot;&gt;Candidate data, &lt;/b&gt;&lt;b&gt;ServiceAutUser, SVLstDyn, typ01 : 3, typ02 : 100 &lt;/b&gt;&lt;/div&gt;&lt;div style=&quot;&quot;&gt;&lt;span style=&quot;background-color: rgb(255, 255, 255);&quot;&gt;&lt;font style=&quot;font-size: 13px;&quot; face=&quot;Helvetica&quot;&gt;&lt;b&gt;&lt;br&gt;&lt;/b&gt;&lt;/font&gt;&lt;/span&gt;&lt;/div&gt;&lt;div style=&quot;&quot;&gt;&lt;span style=&quot;background-color: rgb(255, 255, 255);&quot;&gt;{&lt;/span&gt;&lt;/div&gt;&lt;div style=&quot;&quot;&gt;&lt;span style=&quot;background-color: rgb(255, 255, 255);&quot;&gt;&amp;nbsp; &amp;nbsp; &quot;sv_class&quot;:&quot;ServiceAutUser&quot;,&lt;/span&gt;&lt;/div&gt;&lt;div style=&quot;&quot;&gt;&lt;span style=&quot;background-color: rgb(255, 255, 255);&quot;&gt;&amp;nbsp; &amp;nbsp; &quot;sv_name&quot;:&quot;SVLstDyn&quot;,&lt;/span&gt;&lt;/div&gt;&lt;div style=&quot;&quot;&gt;&lt;span style=&quot;background-color: rgb(255, 255, 255);&quot;&gt;&amp;nbsp; &amp;nbsp; &quot;user_id&quot;:1,&lt;/span&gt;&lt;/div&gt;&lt;div style=&quot;&quot;&gt;&lt;span style=&quot;background-color: rgb(255, 255, 255);&quot;&gt;&amp;nbsp; &amp;nbsp; &quot;sess_id&quot;:-1,&lt;/span&gt;&lt;/div&gt;&lt;div style=&quot;&quot;&gt;&lt;span style=&quot;background-color: rgb(255, 255, 255);&quot;&gt;&amp;nbsp; &amp;nbsp; &quot;typ01&quot;:&quot;3&quot;,&lt;/span&gt;&lt;/div&gt;&lt;div style=&quot;&quot;&gt;&lt;span style=&quot;background-color: rgb(255, 255, 255);&quot;&gt;&amp;nbsp; &amp;nbsp; &quot;typ02&quot;:&quot;100&quot;,&lt;/span&gt;&lt;/div&gt;&lt;div style=&quot;&quot;&gt;&lt;span style=&quot;background-color: rgb(255, 255, 255);&quot;&gt;&amp;nbsp; &amp;nbsp; &quot;dataTableParam&quot;:&quot;{\&quot;sEcho\&quot;:1,\&quot;iColumns\&quot;:4,\&quot;sColumns\&quot;:\&quot;id,login01,inf01,inf02\&quot;,\&quot;iDisplayStart\&quot;:0,&lt;/span&gt;&lt;/div&gt;&lt;div style=&quot;&quot;&gt;&lt;span style=&quot;background-color: rgb(255, 255, 255);&quot;&gt;&amp;nbsp; &amp;nbsp; \&quot;iDisplayLength\&quot;:15,\&quot;mDataProp_0\&quot;:\&quot;id\&quot;,\&quot;sSearch_0\&quot;:\&quot;\&quot;,\&quot;bRegex_0\&quot;:false,\&quot;bSearchable_0\&quot;:true,&lt;/span&gt;&lt;/div&gt;&lt;div style=&quot;&quot;&gt;&lt;span style=&quot;background-color: rgb(255, 255, 255);&quot;&gt;&amp;nbsp; &amp;nbsp; \&quot;bSortable_0\&quot;:true,\&quot;mDataProp_1\&quot;:\&quot;login01\&quot;,\&quot;sSearch_1\&quot;:\&quot;\&quot;,\&quot;bRegex_1\&quot;:false,\&quot;bSearchable_1\&quot;:true,&lt;/span&gt;&lt;/div&gt;&lt;div style=&quot;&quot;&gt;&lt;span style=&quot;background-color: rgb(255, 255, 255);&quot;&gt;&amp;nbsp; &amp;nbsp; \&quot;bSortable_1\&quot;:true,\&quot;mDataProp_2\&quot;:\&quot;inf01\&quot;,\&quot;sSearch_2\&quot;:\&quot;\&quot;,\&quot;bRegex_2\&quot;:false,\&quot;bSearchable_2\&quot;:true,&lt;/span&gt;&lt;/div&gt;&lt;div style=&quot;&quot;&gt;&lt;span style=&quot;background-color: rgb(255, 255, 255);&quot;&gt;&amp;nbsp; &amp;nbsp; \&quot;bSortable_2\&quot;:true,\&quot;mDataProp_3\&quot;:\&quot;inf02\&quot;,\&quot;sSearch_3\&quot;:\&quot;\&quot;,\&quot;bRegex_3\&quot;:false,\&quot;bSearchable_3\&quot;:true,&lt;/span&gt;&lt;/div&gt;&lt;div style=&quot;&quot;&gt;&lt;span style=&quot;background-color: rgb(255, 255, 255);&quot;&gt;&amp;nbsp; &amp;nbsp; \&quot;bSortable_3\&quot;:true,\&quot;sSearch\&quot;:\&quot;\&quot;,\&quot;bRegex\&quot;:false,\&quot;iSortCol_0\&quot;:0,\&quot;sSortDir_0\&quot;:\&quot;asc\&quot;,&lt;/span&gt;&lt;/div&gt;&lt;div style=&quot;&quot;&gt;&lt;span style=&quot;background-color: rgb(255, 255, 255);&quot;&gt;&amp;nbsp; &amp;nbsp; \&quot;iSortingCols\&quot;:1}&quot;&lt;/span&gt;&lt;/div&gt;&lt;div style=&quot;&quot;&gt;&lt;span style=&quot;background-color: rgb(255, 255, 255);&quot;&gt;}&lt;/span&gt;&lt;/div&gt;&lt;div style=&quot;&quot;&gt;&lt;span style=&quot;background-color: rgb(255, 255, 255);&quot;&gt;&lt;br&gt;&lt;/span&gt;&lt;/div&gt;&lt;div style=&quot;&quot;&gt;&lt;div style=&quot;line-height: 18px;&quot;&gt;&lt;div style=&quot;&quot;&gt;&lt;span style=&quot;background-color: rgb(255, 255, 255);&quot;&gt;&lt;font face=&quot;Helvetica&quot;&gt;&lt;b&gt;Get &lt;/b&gt;&lt;/font&gt;&lt;/span&gt;&lt;b style=&quot;background-color: initial;&quot;&gt;RECR data, &lt;/b&gt;&lt;b&gt;ServiceAutUser, SVLstDyn, typ01 : 3, typ02 : 200 &lt;/b&gt;&lt;/div&gt;&lt;div style=&quot;&quot;&gt;&lt;span style=&quot;background-color: rgb(255, 255, 255);&quot;&gt;&lt;font face=&quot;Helvetica&quot;&gt;&lt;b&gt;&lt;br&gt;&lt;/b&gt;&lt;/font&gt;&lt;/span&gt;&lt;/div&gt;&lt;div style=&quot;&quot;&gt;&lt;span style=&quot;background-color: rgb(255, 255, 255);&quot;&gt;{&lt;/span&gt;&lt;/div&gt;&lt;div style=&quot;&quot;&gt;&lt;span style=&quot;background-color: rgb(255, 255, 255);&quot;&gt;&amp;nbsp; &amp;nbsp; &quot;sv_class&quot;:&quot;ServiceAutUser&quot;,&lt;/span&gt;&lt;/div&gt;&lt;div style=&quot;&quot;&gt;&lt;span style=&quot;background-color: rgb(255, 255, 255);&quot;&gt;&amp;nbsp; &amp;nbsp; &quot;sv_name&quot;:&quot;SVLstDyn&quot;,&lt;/span&gt;&lt;/div&gt;&lt;div style=&quot;&quot;&gt;&lt;span style=&quot;background-color: rgb(255, 255, 255);&quot;&gt;&amp;nbsp; &amp;nbsp; &quot;user_id&quot;:1,&lt;/span&gt;&lt;/div&gt;&lt;div style=&quot;&quot;&gt;&lt;span style=&quot;background-color: rgb(255, 255, 255);&quot;&gt;&amp;nbsp; &amp;nbsp; &quot;sess_id&quot;:-1,&lt;/span&gt;&lt;/div&gt;&lt;div style=&quot;&quot;&gt;&lt;span style=&quot;background-color: rgb(255, 255, 255);&quot;&gt;&amp;nbsp; &amp;nbsp; &quot;typ01&quot;:&quot;3&quot;,&lt;/span&gt;&lt;/div&gt;&lt;div style=&quot;&quot;&gt;&lt;span style=&quot;background-color: rgb(255, 255, 255);&quot;&gt;&amp;nbsp; &amp;nbsp; &quot;typ02&quot;:&quot;200&quot;,&lt;/span&gt;&lt;/div&gt;&lt;div style=&quot;&quot;&gt;&lt;div style=&quot;line-height: 18px;&quot;&gt;&lt;div style=&quot;&quot;&gt;&lt;span style=&quot;background-color: rgb(255, 255, 255);&quot;&gt;&lt;font face=&quot;IBMPlexMono, Courier New, monospace, Consolas, Courier New, monospace&quot;&gt;  &lt;/font&gt;&lt;font style=&quot;font-size: 13px;&quot; face=&quot;Helvetica&quot;&gt;&quot;dataTableParam&quot;:&quot;{\&quot;sEcho\&quot;:1,\&quot;iColumns\&quot;:4,\&quot;sColumns\&quot;:\&quot;id,login01,inf01,inf02\&quot;,\&quot;iDisplayStart\&quot;:0,&lt;/font&gt;&lt;/span&gt;&lt;/div&gt;&lt;div style=&quot;&quot;&gt;&lt;span style=&quot;background-color: rgb(255, 255, 255);&quot;&gt;&lt;font face=&quot;Helvetica&quot; style=&quot;font-size: 13px;&quot;&gt;&amp;nbsp; &amp;nbsp; \&quot;iDisplayLength\&quot;:15,\&quot;mDataProp_0\&quot;:\&quot;id\&quot;,\&quot;sSearch_0\&quot;:\&quot;\&quot;,\&quot;bRegex_0\&quot;:false,\&quot;bSearchable_0\&quot;:true,&lt;/font&gt;&lt;/span&gt;&lt;/div&gt;&lt;div style=&quot;&quot;&gt;&lt;span style=&quot;background-color: rgb(255, 255, 255);&quot;&gt;&lt;font face=&quot;Helvetica&quot; style=&quot;font-size: 13px;&quot;&gt;&amp;nbsp; &amp;nbsp; \&quot;bSortable_0\&quot;:true,\&quot;mDataProp_1\&quot;:\&quot;login01\&quot;,\&quot;sSearch_1\&quot;:\&quot;\&quot;,\&quot;bRegex_1\&quot;:false,\&quot;bSearchable_1\&quot;:true,&lt;/font&gt;&lt;/span&gt;&lt;/div&gt;&lt;div style=&quot;&quot;&gt;&lt;span style=&quot;background-color: rgb(255, 255, 255);&quot;&gt;&lt;font style=&quot;font-size: 13px;&quot;&gt;&amp;nbsp; &amp;nbsp; \&quot;bSortable_1\&quot;:true,\&quot;mDataProp_2\&quot;:\&quot;inf01\&quot;,\&quot;sSearch_2\&quot;:\&quot;\&quot;,\&quot;bRegex_2\&quot;:false,\&quot;bSearchable_2\&quot;:true,&lt;/font&gt;&lt;/span&gt;&lt;/div&gt;&lt;div style=&quot;&quot;&gt;&lt;span style=&quot;background-color: rgb(255, 255, 255);&quot;&gt;&lt;font face=&quot;Helvetica&quot; style=&quot;font-size: 13px;&quot;&gt;&amp;nbsp; &amp;nbsp; \&quot;bSortable_2\&quot;:true,\&quot;mDataProp_3\&quot;:\&quot;inf02\&quot;,\&quot;sSearch_3\&quot;:\&quot;\&quot;,\&quot;bRegex_3\&quot;:false,\&quot;bSearchable_3\&quot;:true,&lt;/font&gt;&lt;/span&gt;&lt;/div&gt;&lt;div style=&quot;&quot;&gt;&lt;span style=&quot;background-color: rgb(255, 255, 255);&quot;&gt;&lt;font face=&quot;Helvetica&quot; style=&quot;font-size: 13px;&quot;&gt;&amp;nbsp; &amp;nbsp; \&quot;bSortable_3\&quot;:true,\&quot;sSearch\&quot;:\&quot;\&quot;,\&quot;bRegex\&quot;:false,\&quot;iSortCol_0\&quot;:0,\&quot;sSortDir_0\&quot;:\&quot;asc\&quot;,&lt;/font&gt;&lt;/span&gt;&lt;/div&gt;&lt;div style=&quot;&quot;&gt;&lt;span style=&quot;background-color: rgb(255, 255, 255);&quot;&gt;&lt;font style=&quot;font-size: 13px;&quot;&gt;&amp;nbsp; &amp;nbsp; \&quot;iSortingCols\&quot;:1}&quot;&lt;/font&gt;&lt;/span&gt;&lt;/div&gt;&lt;/div&gt;&lt;/div&gt;&lt;div style=&quot;&quot;&gt;}&lt;br&gt;&lt;/div&gt;&lt;/div&gt;&lt;/div&gt;&lt;/div&gt;&lt;/div&gt;&lt;/div&gt;&lt;/font&gt;&lt;/div&gt;&lt;div style=&quot;white-space: pre; font-size: 13px;&quot;&gt;&lt;font style=&quot;font-size: 13px;&quot;&gt;&lt;br&gt;&lt;/font&gt;&lt;/div&gt;&lt;div style=&quot;white-space: pre; font-size: 13px;&quot;&gt;&lt;font face=&quot;Helvetica&quot; style=&quot;font-size: 14px;&quot;&gt;&lt;div style=&quot;line-height: 18px; background-color: rgb(255, 255, 255);&quot;&gt;&lt;div style=&quot;&quot;&gt;&lt;br&gt;&lt;/div&gt;&lt;/div&gt;&lt;/font&gt;&lt;/div&gt;" style="rounded=0;whiteSpace=wrap;html=1;align=left;" vertex="1" parent="v-xWoGNkuWQi2-wrLgr6-79">
          <mxGeometry y="892.5" width="790" height="1680" as="geometry" />
        </mxCell>
        <mxCell id="v-xWoGNkuWQi2-wrLgr6-13" value="&lt;h1 style=&quot;white-space: pre;&quot;&gt;&lt;b style=&quot;&quot;&gt;&lt;font style=&quot;font-size: 24px;&quot;&gt;Response data json&lt;/font&gt;&lt;/b&gt;&lt;/h1&gt;&lt;h2 style=&quot;white-space: pre; font-size: 13px;&quot;&gt;&lt;b style=&quot;&quot;&gt;&lt;font style=&quot;font-size: 13px;&quot;&gt;http://localhost:8080/bo/api/priv&lt;/font&gt;&lt;/b&gt;&lt;/h2&gt;&lt;div style=&quot;font-size: 13px; white-space: pre;&quot;&gt;&lt;b&gt;Get roll data &lt;/b&gt;&lt;span style=&quot;background-color: initial;&quot;&gt;&lt;b&gt;ServiceAutRole, &lt;/b&gt;&lt;/span&gt;&lt;span style=&quot;background-color: initial;&quot;&gt;&lt;b&gt;SVLst&lt;/b&gt;&lt;/span&gt;&lt;/div&gt;&lt;div style=&quot;font-size: 14px; white-space: pre;&quot;&gt;&lt;b&gt;&lt;br&gt;&lt;/b&gt;&lt;/div&gt;&lt;div style=&quot;font-size: 13px; white-space: pre;&quot;&gt;&lt;div style=&quot;line-height: 19px;&quot;&gt;&lt;div style=&quot;&quot;&gt;&lt;span style=&quot;background-color: rgb(255, 255, 255);&quot;&gt;&lt;font style=&quot;font-size: 13px;&quot; face=&quot;Helvetica&quot;&gt;{&lt;/font&gt;&lt;/span&gt;&lt;/div&gt;&lt;div style=&quot;&quot;&gt;&lt;span style=&quot;background-color: rgb(255, 255, 255);&quot;&gt;&lt;font style=&quot;font-size: 13px;&quot; face=&quot;spvWO1mO5FHsCvajAdfM&quot;&gt;&amp;nbsp; &amp;nbsp; &quot;sess_stat&quot;: true,&lt;/font&gt;&lt;/span&gt;&lt;/div&gt;&lt;div style=&quot;&quot;&gt;&lt;span style=&quot;background-color: rgb(255, 255, 255);&quot;&gt;&lt;font style=&quot;font-size: 13px;&quot; face=&quot;spvWO1mO5FHsCvajAdfM&quot;&gt;&amp;nbsp; &amp;nbsp; &quot;sv_code&quot;: 20000,&lt;/font&gt;&lt;/span&gt;&lt;/div&gt;&lt;div style=&quot;&quot;&gt;&lt;span style=&quot;background-color: rgb(255, 255, 255);&quot;&gt;&lt;font style=&quot;font-size: 13px;&quot; face=&quot;spvWO1mO5FHsCvajAdfM&quot;&gt;&amp;nbsp; &amp;nbsp; &quot;res_data&quot;: [&lt;/font&gt;&lt;/span&gt;&lt;/div&gt;&lt;div style=&quot;&quot;&gt;&lt;span style=&quot;background-color: rgb(255, 255, 255);&quot;&gt;&lt;font style=&quot;font-size: 13px;&quot; face=&quot;spvWO1mO5FHsCvajAdfM&quot;&gt;&amp;nbsp; &amp;nbsp; &amp;nbsp; &amp;nbsp; {&lt;/font&gt;&lt;/span&gt;&lt;/div&gt;&lt;div style=&quot;&quot;&gt;&lt;span style=&quot;background-color: rgb(255, 255, 255);&quot;&gt;&lt;font style=&quot;font-size: 13px;&quot; face=&quot;spvWO1mO5FHsCvajAdfM&quot;&gt;&amp;nbsp; &amp;nbsp; &amp;nbsp; &amp;nbsp; &amp;nbsp; &amp;nbsp; &quot;descr&quot;: &quot;Super%20Admin&quot;,&lt;/font&gt;&lt;/span&gt;&lt;/div&gt;&lt;div style=&quot;&quot;&gt;&lt;span style=&quot;background-color: rgb(255, 255, 255);&quot;&gt;&lt;font style=&quot;font-size: 13px;&quot; face=&quot;spvWO1mO5FHsCvajAdfM&quot;&gt;&amp;nbsp; &amp;nbsp; &amp;nbsp; &amp;nbsp; &amp;nbsp; &amp;nbsp; &quot;stat&quot;: 1,&lt;/font&gt;&lt;/span&gt;&lt;/div&gt;&lt;div style=&quot;&quot;&gt;&lt;span style=&quot;background-color: rgb(255, 255, 255);&quot;&gt;&lt;font style=&quot;font-size: 13px;&quot; face=&quot;spvWO1mO5FHsCvajAdfM&quot;&gt;&amp;nbsp; &amp;nbsp; &amp;nbsp; &amp;nbsp; &amp;nbsp; &amp;nbsp; &quot;grp&quot;: &quot;aut_adm&quot;,&lt;/font&gt;&lt;/span&gt;&lt;/div&gt;&lt;div style=&quot;&quot;&gt;&lt;span style=&quot;background-color: rgb(255, 255, 255);&quot;&gt;&lt;font style=&quot;font-size: 13px;&quot; face=&quot;spvWO1mO5FHsCvajAdfM&quot;&gt;&amp;nbsp; &amp;nbsp; &amp;nbsp; &amp;nbsp; &amp;nbsp; &amp;nbsp; &quot;name&quot;: &quot;RO_ADM_SUPER&quot;,&lt;/font&gt;&lt;/span&gt;&lt;/div&gt;&lt;div style=&quot;&quot;&gt;&lt;span style=&quot;background-color: rgb(255, 255, 255);&quot;&gt;&lt;font style=&quot;font-size: 13px;&quot; face=&quot;spvWO1mO5FHsCvajAdfM&quot;&gt;&amp;nbsp; &amp;nbsp; &amp;nbsp; &amp;nbsp; &amp;nbsp; &amp;nbsp; &quot;id&quot;: 100&lt;/font&gt;&lt;/span&gt;&lt;/div&gt;&lt;div style=&quot;&quot;&gt;&lt;span style=&quot;background-color: rgb(255, 255, 255);&quot;&gt;&lt;font style=&quot;font-size: 13px;&quot; face=&quot;spvWO1mO5FHsCvajAdfM&quot;&gt;&amp;nbsp; &amp;nbsp; &amp;nbsp; &amp;nbsp; },&lt;/font&gt;&lt;/span&gt;&lt;/div&gt;&lt;div style=&quot;&quot;&gt;&lt;span style=&quot;background-color: rgb(255, 255, 255);&quot;&gt;&lt;font style=&quot;font-size: 13px;&quot; face=&quot;spvWO1mO5FHsCvajAdfM&quot;&gt;&amp;nbsp; &amp;nbsp; &amp;nbsp; &amp;nbsp; {&lt;/font&gt;&lt;/span&gt;&lt;/div&gt;&lt;div style=&quot;&quot;&gt;&lt;span style=&quot;background-color: rgb(255, 255, 255);&quot;&gt;&lt;font style=&quot;font-size: 13px;&quot; face=&quot;spvWO1mO5FHsCvajAdfM&quot;&gt;&amp;nbsp; &amp;nbsp; &amp;nbsp; &amp;nbsp; &amp;nbsp; &amp;nbsp; &quot;descr&quot;: &quot;Administrateur%20Syst%C3%A8me&quot;,&lt;/font&gt;&lt;/span&gt;&lt;/div&gt;&lt;div style=&quot;&quot;&gt;&lt;span style=&quot;background-color: rgb(255, 255, 255);&quot;&gt;&lt;font style=&quot;font-size: 13px;&quot; face=&quot;spvWO1mO5FHsCvajAdfM&quot;&gt;&amp;nbsp; &amp;nbsp; &amp;nbsp; &amp;nbsp; &amp;nbsp; &amp;nbsp; &quot;stat&quot;: 1,&lt;/font&gt;&lt;/span&gt;&lt;/div&gt;&lt;div style=&quot;&quot;&gt;&lt;span style=&quot;background-color: rgb(255, 255, 255);&quot;&gt;&lt;font style=&quot;font-size: 13px;&quot; face=&quot;spvWO1mO5FHsCvajAdfM&quot;&gt;&amp;nbsp; &amp;nbsp; &amp;nbsp; &amp;nbsp; &amp;nbsp; &amp;nbsp; &quot;grp&quot;: &quot;aut_adm&quot;,&lt;/font&gt;&lt;/span&gt;&lt;/div&gt;&lt;div style=&quot;&quot;&gt;&lt;span style=&quot;background-color: rgb(255, 255, 255);&quot;&gt;&lt;font style=&quot;font-size: 13px;&quot; face=&quot;spvWO1mO5FHsCvajAdfM&quot;&gt;&amp;nbsp; &amp;nbsp; &amp;nbsp; &amp;nbsp; &amp;nbsp; &amp;nbsp; &quot;name&quot;: &quot;RO_ADM_SYS&quot;,&lt;/font&gt;&lt;/span&gt;&lt;/div&gt;&lt;div style=&quot;&quot;&gt;&lt;span style=&quot;background-color: rgb(255, 255, 255);&quot;&gt;&lt;font style=&quot;font-size: 13px;&quot; face=&quot;spvWO1mO5FHsCvajAdfM&quot;&gt;&amp;nbsp; &amp;nbsp; &amp;nbsp; &amp;nbsp; &amp;nbsp; &amp;nbsp; &quot;id&quot;: 101&lt;/font&gt;&lt;/span&gt;&lt;/div&gt;&lt;div style=&quot;&quot;&gt;&lt;span style=&quot;background-color: rgb(255, 255, 255);&quot;&gt;&lt;font style=&quot;font-size: 13px;&quot; face=&quot;spvWO1mO5FHsCvajAdfM&quot;&gt;&amp;nbsp; &amp;nbsp; &amp;nbsp; &amp;nbsp; },&lt;/font&gt;&lt;/span&gt;&lt;/div&gt;&lt;div style=&quot;&quot;&gt;&lt;span style=&quot;background-color: rgb(255, 255, 255);&quot;&gt;&lt;font style=&quot;font-size: 13px;&quot; face=&quot;spvWO1mO5FHsCvajAdfM&quot;&gt;&amp;nbsp; &amp;nbsp; &amp;nbsp; &amp;nbsp; {&lt;/font&gt;&lt;/span&gt;&lt;/div&gt;&lt;div style=&quot;&quot;&gt;&lt;span style=&quot;background-color: rgb(255, 255, 255);&quot;&gt;&lt;font style=&quot;font-size: 13px;&quot; face=&quot;spvWO1mO5FHsCvajAdfM&quot;&gt;&amp;nbsp; &amp;nbsp; &amp;nbsp; &amp;nbsp; &amp;nbsp; &amp;nbsp; &quot;descr&quot;: &quot;Administrateur%20de%20R%C3%A9f%C3%A9rentiel&quot;,&lt;/font&gt;&lt;/span&gt;&lt;/div&gt;&lt;div style=&quot;&quot;&gt;&lt;span style=&quot;background-color: rgb(255, 255, 255);&quot;&gt;&lt;font style=&quot;font-size: 13px;&quot; face=&quot;spvWO1mO5FHsCvajAdfM&quot;&gt;&amp;nbsp; &amp;nbsp; &amp;nbsp; &amp;nbsp; &amp;nbsp; &amp;nbsp; &quot;stat&quot;: 1,&lt;/font&gt;&lt;/span&gt;&lt;/div&gt;&lt;div style=&quot;&quot;&gt;&lt;span style=&quot;background-color: rgb(255, 255, 255);&quot;&gt;&lt;font style=&quot;font-size: 13px;&quot; face=&quot;spvWO1mO5FHsCvajAdfM&quot;&gt;&amp;nbsp; &amp;nbsp; &amp;nbsp; &amp;nbsp; &amp;nbsp; &amp;nbsp; &quot;grp&quot;: &quot;aut_adm&quot;,&lt;/font&gt;&lt;/span&gt;&lt;/div&gt;&lt;div style=&quot;&quot;&gt;&lt;span style=&quot;background-color: rgb(255, 255, 255);&quot;&gt;&lt;font style=&quot;font-size: 13px;&quot; face=&quot;spvWO1mO5FHsCvajAdfM&quot;&gt;&amp;nbsp; &amp;nbsp; &amp;nbsp; &amp;nbsp; &amp;nbsp; &amp;nbsp; &quot;name&quot;: &quot;RO_USR_ADM&quot;,&lt;/font&gt;&lt;/span&gt;&lt;/div&gt;&lt;div style=&quot;&quot;&gt;&lt;span style=&quot;background-color: rgb(255, 255, 255);&quot;&gt;&lt;font style=&quot;font-size: 13px;&quot; face=&quot;spvWO1mO5FHsCvajAdfM&quot;&gt;&amp;nbsp; &amp;nbsp; &amp;nbsp; &amp;nbsp; &amp;nbsp; &amp;nbsp; &quot;id&quot;: 200&lt;/font&gt;&lt;/span&gt;&lt;/div&gt;&lt;div style=&quot;&quot;&gt;&lt;span style=&quot;background-color: rgb(255, 255, 255);&quot;&gt;&lt;font style=&quot;font-size: 13px;&quot; face=&quot;spvWO1mO5FHsCvajAdfM&quot;&gt;&amp;nbsp; &amp;nbsp; &amp;nbsp; &amp;nbsp; },&lt;/font&gt;&lt;/span&gt;&lt;/div&gt;&lt;div style=&quot;&quot;&gt;&lt;span style=&quot;background-color: rgb(255, 255, 255);&quot;&gt;&lt;font style=&quot;font-size: 13px;&quot; face=&quot;spvWO1mO5FHsCvajAdfM&quot;&gt;&amp;nbsp; &amp;nbsp; &amp;nbsp; &amp;nbsp; {&lt;/font&gt;&lt;/span&gt;&lt;/div&gt;&lt;div style=&quot;&quot;&gt;&lt;span style=&quot;background-color: rgb(255, 255, 255);&quot;&gt;&lt;font style=&quot;font-size: 13px;&quot; face=&quot;spvWO1mO5FHsCvajAdfM&quot;&gt;&amp;nbsp; &amp;nbsp; &amp;nbsp; &amp;nbsp; &amp;nbsp; &amp;nbsp; &quot;descr&quot;: &quot;Utilisateur%20Standard&quot;,&lt;/font&gt;&lt;/span&gt;&lt;/div&gt;&lt;div style=&quot;&quot;&gt;&lt;span style=&quot;background-color: rgb(255, 255, 255);&quot;&gt;&lt;font style=&quot;font-size: 13px;&quot; face=&quot;spvWO1mO5FHsCvajAdfM&quot;&gt;&amp;nbsp; &amp;nbsp; &amp;nbsp; &amp;nbsp; &amp;nbsp; &amp;nbsp; &quot;stat&quot;: 1,&lt;/font&gt;&lt;/span&gt;&lt;/div&gt;&lt;div style=&quot;&quot;&gt;&lt;span style=&quot;background-color: rgb(255, 255, 255);&quot;&gt;&lt;font style=&quot;font-size: 13px;&quot; face=&quot;spvWO1mO5FHsCvajAdfM&quot;&gt;&amp;nbsp; &amp;nbsp; &amp;nbsp; &amp;nbsp; &amp;nbsp; &amp;nbsp; &quot;grp&quot;: &quot;aut_user&quot;,&lt;/font&gt;&lt;/span&gt;&lt;/div&gt;&lt;div style=&quot;&quot;&gt;&lt;span style=&quot;background-color: rgb(255, 255, 255);&quot;&gt;&lt;font style=&quot;font-size: 13px;&quot; face=&quot;spvWO1mO5FHsCvajAdfM&quot;&gt;&amp;nbsp; &amp;nbsp; &amp;nbsp; &amp;nbsp; &amp;nbsp; &amp;nbsp; &quot;name&quot;: &quot;RO_USR_STD&quot;,&lt;/font&gt;&lt;/span&gt;&lt;/div&gt;&lt;div style=&quot;&quot;&gt;&lt;span style=&quot;background-color: rgb(255, 255, 255);&quot;&gt;&lt;font style=&quot;font-size: 13px;&quot; face=&quot;spvWO1mO5FHsCvajAdfM&quot;&gt;&amp;nbsp; &amp;nbsp; &amp;nbsp; &amp;nbsp; &amp;nbsp; &amp;nbsp; &quot;id&quot;: 201&lt;/font&gt;&lt;/span&gt;&lt;/div&gt;&lt;div style=&quot;&quot;&gt;&lt;span style=&quot;background-color: rgb(255, 255, 255);&quot;&gt;&lt;font style=&quot;font-size: 13px;&quot; face=&quot;spvWO1mO5FHsCvajAdfM&quot;&gt;&amp;nbsp; &amp;nbsp; &amp;nbsp; &amp;nbsp; },&lt;/font&gt;&lt;/span&gt;&lt;/div&gt;&lt;div style=&quot;&quot;&gt;&lt;span style=&quot;background-color: rgb(255, 255, 255);&quot;&gt;&lt;font style=&quot;font-size: 13px;&quot; face=&quot;spvWO1mO5FHsCvajAdfM&quot;&gt;&amp;nbsp; &amp;nbsp; &amp;nbsp; &amp;nbsp; {&lt;/font&gt;&lt;/span&gt;&lt;/div&gt;&lt;div style=&quot;&quot;&gt;&lt;span style=&quot;background-color: rgb(255, 255, 255);&quot;&gt;&lt;font style=&quot;font-size: 13px;&quot; face=&quot;spvWO1mO5FHsCvajAdfM&quot;&gt;&amp;nbsp; &amp;nbsp; &amp;nbsp; &amp;nbsp; &amp;nbsp; &amp;nbsp; &quot;descr&quot;: &quot;%C3%89diteur%20de%20Donn%C3%A9es&quot;,&lt;/font&gt;&lt;/span&gt;&lt;/div&gt;&lt;div style=&quot;&quot;&gt;&lt;span style=&quot;background-color: rgb(255, 255, 255);&quot;&gt;&lt;font style=&quot;font-size: 13px;&quot; face=&quot;spvWO1mO5FHsCvajAdfM&quot;&gt;&amp;nbsp; &amp;nbsp; &amp;nbsp; &amp;nbsp; &amp;nbsp; &amp;nbsp; &quot;stat&quot;: 1,&lt;/font&gt;&lt;/span&gt;&lt;/div&gt;&lt;div style=&quot;&quot;&gt;&lt;span style=&quot;background-color: rgb(255, 255, 255);&quot;&gt;&lt;font style=&quot;font-size: 13px;&quot; face=&quot;spvWO1mO5FHsCvajAdfM&quot;&gt;&amp;nbsp; &amp;nbsp; &amp;nbsp; &amp;nbsp; &amp;nbsp; &amp;nbsp; &quot;grp&quot;: &quot;aut_user&quot;,&lt;/font&gt;&lt;/span&gt;&lt;/div&gt;&lt;div style=&quot;&quot;&gt;&lt;span style=&quot;background-color: rgb(255, 255, 255);&quot;&gt;&lt;font style=&quot;font-size: 13px;&quot; face=&quot;spvWO1mO5FHsCvajAdfM&quot;&gt;&amp;nbsp; &amp;nbsp; &amp;nbsp; &amp;nbsp; &amp;nbsp; &amp;nbsp; &quot;name&quot;: &quot;RO_USR_EDIT&quot;,&lt;/font&gt;&lt;/span&gt;&lt;/div&gt;&lt;div style=&quot;&quot;&gt;&lt;span style=&quot;background-color: rgb(255, 255, 255);&quot;&gt;&lt;font style=&quot;font-size: 13px;&quot; face=&quot;spvWO1mO5FHsCvajAdfM&quot;&gt;&amp;nbsp; &amp;nbsp; &amp;nbsp; &amp;nbsp; &amp;nbsp; &amp;nbsp; &quot;id&quot;: 202&lt;/font&gt;&lt;/span&gt;&lt;/div&gt;&lt;div style=&quot;&quot;&gt;&lt;span style=&quot;background-color: rgb(255, 255, 255);&quot;&gt;&lt;font style=&quot;font-size: 13px;&quot; face=&quot;spvWO1mO5FHsCvajAdfM&quot;&gt;&amp;nbsp; &amp;nbsp; &amp;nbsp; &amp;nbsp; },&lt;/font&gt;&lt;/span&gt;&lt;/div&gt;&lt;div style=&quot;&quot;&gt;&lt;span style=&quot;background-color: rgb(255, 255, 255);&quot;&gt;&lt;font style=&quot;font-size: 13px;&quot; face=&quot;spvWO1mO5FHsCvajAdfM&quot;&gt;&amp;nbsp; &amp;nbsp; &amp;nbsp; &amp;nbsp; {&lt;/font&gt;&lt;/span&gt;&lt;/div&gt;&lt;div style=&quot;&quot;&gt;&lt;span style=&quot;background-color: rgb(255, 255, 255);&quot;&gt;&lt;font style=&quot;font-size: 13px;&quot; face=&quot;spvWO1mO5FHsCvajAdfM&quot;&gt;&amp;nbsp; &amp;nbsp; &amp;nbsp; &amp;nbsp; &amp;nbsp; &amp;nbsp; &quot;descr&quot;: &quot;Consultant&quot;,&lt;/font&gt;&lt;/span&gt;&lt;/div&gt;&lt;div style=&quot;&quot;&gt;&lt;span style=&quot;background-color: rgb(255, 255, 255);&quot;&gt;&lt;font style=&quot;font-size: 13px;&quot; face=&quot;spvWO1mO5FHsCvajAdfM&quot;&gt;&amp;nbsp; &amp;nbsp; &amp;nbsp; &amp;nbsp; &amp;nbsp; &amp;nbsp; &quot;stat&quot;: 1,&lt;/font&gt;&lt;/span&gt;&lt;/div&gt;&lt;div style=&quot;&quot;&gt;&lt;span style=&quot;background-color: rgb(255, 255, 255);&quot;&gt;&lt;font style=&quot;font-size: 13px;&quot; face=&quot;spvWO1mO5FHsCvajAdfM&quot;&gt;&amp;nbsp; &amp;nbsp; &amp;nbsp; &amp;nbsp; &amp;nbsp; &amp;nbsp; &quot;grp&quot;: &quot;aut_user&quot;,&lt;/font&gt;&lt;/span&gt;&lt;/div&gt;&lt;div style=&quot;&quot;&gt;&lt;span style=&quot;background-color: rgb(255, 255, 255);&quot;&gt;&lt;font style=&quot;font-size: 13px;&quot; face=&quot;spvWO1mO5FHsCvajAdfM&quot;&gt;&amp;nbsp; &amp;nbsp; &amp;nbsp; &amp;nbsp; &amp;nbsp; &amp;nbsp; &quot;name&quot;: &quot;RO_USR_CONS&quot;,&lt;/font&gt;&lt;/span&gt;&lt;/div&gt;&lt;div style=&quot;&quot;&gt;&lt;span style=&quot;background-color: rgb(255, 255, 255);&quot;&gt;&lt;font style=&quot;font-size: 13px;&quot; face=&quot;spvWO1mO5FHsCvajAdfM&quot;&gt;&amp;nbsp; &amp;nbsp; &amp;nbsp; &amp;nbsp; &amp;nbsp; &amp;nbsp; &quot;id&quot;: 203&lt;/font&gt;&lt;/span&gt;&lt;/div&gt;&lt;div style=&quot;&quot;&gt;&lt;span style=&quot;background-color: rgb(255, 255, 255);&quot;&gt;&lt;font style=&quot;font-size: 13px;&quot; face=&quot;spvWO1mO5FHsCvajAdfM&quot;&gt;&amp;nbsp; &amp;nbsp; &amp;nbsp; &amp;nbsp; },&lt;/font&gt;&lt;/span&gt;&lt;/div&gt;&lt;div style=&quot;&quot;&gt;&lt;span style=&quot;background-color: rgb(255, 255, 255);&quot;&gt;&lt;font style=&quot;font-size: 13px;&quot; face=&quot;spvWO1mO5FHsCvajAdfM&quot;&gt;&amp;nbsp; &amp;nbsp; &amp;nbsp; &amp;nbsp; {&lt;/font&gt;&lt;/span&gt;&lt;/div&gt;&lt;div style=&quot;&quot;&gt;&lt;span style=&quot;background-color: rgb(255, 255, 255);&quot;&gt;&lt;font style=&quot;font-size: 13px;&quot; face=&quot;spvWO1mO5FHsCvajAdfM&quot;&gt;&amp;nbsp; &amp;nbsp; &amp;nbsp; &amp;nbsp; &amp;nbsp; &amp;nbsp; &quot;descr&quot;: &quot;Acc%C3%A8s%20en%20Lecture%20Seule&quot;,&lt;/font&gt;&lt;/span&gt;&lt;/div&gt;&lt;div style=&quot;&quot;&gt;&lt;span style=&quot;background-color: rgb(255, 255, 255);&quot;&gt;&lt;font style=&quot;font-size: 13px;&quot; face=&quot;spvWO1mO5FHsCvajAdfM&quot;&gt;&amp;nbsp; &amp;nbsp; &amp;nbsp; &amp;nbsp; &amp;nbsp; &amp;nbsp; &quot;stat&quot;: 1,&lt;/font&gt;&lt;/span&gt;&lt;/div&gt;&lt;div style=&quot;&quot;&gt;&lt;span style=&quot;background-color: rgb(255, 255, 255);&quot;&gt;&lt;font style=&quot;font-size: 13px;&quot; face=&quot;spvWO1mO5FHsCvajAdfM&quot;&gt;&amp;nbsp; &amp;nbsp; &amp;nbsp; &amp;nbsp; &amp;nbsp; &amp;nbsp; &quot;grp&quot;: &quot;aut_user&quot;,&lt;/font&gt;&lt;/span&gt;&lt;/div&gt;&lt;div style=&quot;&quot;&gt;&lt;span style=&quot;background-color: rgb(255, 255, 255);&quot;&gt;&lt;font style=&quot;font-size: 13px;&quot; face=&quot;spvWO1mO5FHsCvajAdfM&quot;&gt;&amp;nbsp; &amp;nbsp; &amp;nbsp; &amp;nbsp; &amp;nbsp; &amp;nbsp; &quot;name&quot;: &quot;RO_USR_GET&quot;,&lt;/font&gt;&lt;/span&gt;&lt;/div&gt;&lt;div style=&quot;&quot;&gt;&lt;span style=&quot;background-color: rgb(255, 255, 255);&quot;&gt;&lt;font style=&quot;font-size: 13px;&quot; face=&quot;spvWO1mO5FHsCvajAdfM&quot;&gt;&amp;nbsp; &amp;nbsp; &amp;nbsp; &amp;nbsp; &amp;nbsp; &amp;nbsp; &quot;id&quot;: 204&lt;/font&gt;&lt;/span&gt;&lt;/div&gt;&lt;div style=&quot;&quot;&gt;&lt;span style=&quot;background-color: rgb(255, 255, 255);&quot;&gt;&lt;font style=&quot;font-size: 13px;&quot; face=&quot;spvWO1mO5FHsCvajAdfM&quot;&gt;&amp;nbsp; &amp;nbsp; &amp;nbsp; &amp;nbsp; },&lt;/font&gt;&lt;/span&gt;&lt;/div&gt;&lt;div style=&quot;&quot;&gt;&lt;span style=&quot;background-color: rgb(255, 255, 255);&quot;&gt;&lt;font style=&quot;font-size: 13px;&quot; face=&quot;spvWO1mO5FHsCvajAdfM&quot;&gt;&amp;nbsp; &amp;nbsp; &amp;nbsp; &amp;nbsp; {&lt;/font&gt;&lt;/span&gt;&lt;/div&gt;&lt;div style=&quot;&quot;&gt;&lt;span style=&quot;background-color: rgb(255, 255, 255);&quot;&gt;&lt;font style=&quot;font-size: 13px;&quot; face=&quot;spvWO1mO5FHsCvajAdfM&quot;&gt;&amp;nbsp; &amp;nbsp; &amp;nbsp; &amp;nbsp; &amp;nbsp; &amp;nbsp; &quot;descr&quot;: &quot;Acc%C3%A8s%20en%20%C3%89criture%20Limit%C3%A9e&quot;,&lt;/font&gt;&lt;/span&gt;&lt;/div&gt;&lt;div style=&quot;&quot;&gt;&lt;span style=&quot;background-color: rgb(255, 255, 255);&quot;&gt;&lt;font style=&quot;font-size: 13px;&quot; face=&quot;spvWO1mO5FHsCvajAdfM&quot;&gt;&amp;nbsp; &amp;nbsp; &amp;nbsp; &amp;nbsp; &amp;nbsp; &amp;nbsp; &quot;stat&quot;: 1,&lt;/font&gt;&lt;/span&gt;&lt;/div&gt;&lt;div style=&quot;&quot;&gt;&lt;span style=&quot;background-color: rgb(255, 255, 255);&quot;&gt;&lt;font style=&quot;font-size: 13px;&quot; face=&quot;spvWO1mO5FHsCvajAdfM&quot;&gt;&amp;nbsp; &amp;nbsp; &amp;nbsp; &amp;nbsp; &amp;nbsp; &amp;nbsp; &quot;grp&quot;: &quot;aut_user&quot;,&lt;/font&gt;&lt;/span&gt;&lt;/div&gt;&lt;div style=&quot;&quot;&gt;&lt;span style=&quot;background-color: rgb(255, 255, 255);&quot;&gt;&lt;font style=&quot;font-size: 13px;&quot; face=&quot;spvWO1mO5FHsCvajAdfM&quot;&gt;&amp;nbsp; &amp;nbsp; &amp;nbsp; &amp;nbsp; &amp;nbsp; &amp;nbsp; &quot;name&quot;: &quot;RO_USR_MOD&quot;,&lt;/font&gt;&lt;/span&gt;&lt;/div&gt;&lt;div style=&quot;&quot;&gt;&lt;span style=&quot;background-color: rgb(255, 255, 255);&quot;&gt;&lt;font style=&quot;font-size: 13px;&quot; face=&quot;spvWO1mO5FHsCvajAdfM&quot;&gt;&amp;nbsp; &amp;nbsp; &amp;nbsp; &amp;nbsp; &amp;nbsp; &amp;nbsp; &quot;id&quot;: 205&lt;/font&gt;&lt;/span&gt;&lt;/div&gt;&lt;div style=&quot;&quot;&gt;&lt;span style=&quot;background-color: rgb(255, 255, 255);&quot;&gt;&lt;font style=&quot;font-size: 13px;&quot; face=&quot;spvWO1mO5FHsCvajAdfM&quot;&gt;&amp;nbsp; &amp;nbsp; &amp;nbsp; &amp;nbsp; },&lt;/font&gt;&lt;/span&gt;&lt;/div&gt;&lt;div style=&quot;&quot;&gt;&lt;span style=&quot;background-color: rgb(255, 255, 255);&quot;&gt;&lt;font style=&quot;font-size: 13px;&quot; face=&quot;spvWO1mO5FHsCvajAdfM&quot;&gt;&amp;nbsp; &amp;nbsp; &amp;nbsp; &amp;nbsp; {&lt;/font&gt;&lt;/span&gt;&lt;/div&gt;&lt;div style=&quot;&quot;&gt;&lt;span style=&quot;background-color: rgb(255, 255, 255);&quot;&gt;&lt;font style=&quot;font-size: 13px;&quot; face=&quot;spvWO1mO5FHsCvajAdfM&quot;&gt;&amp;nbsp; &amp;nbsp; &amp;nbsp; &amp;nbsp; &amp;nbsp; &amp;nbsp; &quot;descr&quot;: &quot;Acc%C3%A8s%20%C3%A0%20des%20Fonctionnalit%C3%A9s%20Sp%C3%A9cifiques&quot;,&lt;/font&gt;&lt;/span&gt;&lt;/div&gt;&lt;div style=&quot;&quot;&gt;&lt;span style=&quot;background-color: rgb(255, 255, 255);&quot;&gt;&lt;font style=&quot;font-size: 13px;&quot; face=&quot;spvWO1mO5FHsCvajAdfM&quot;&gt;&amp;nbsp; &amp;nbsp; &amp;nbsp; &amp;nbsp; &amp;nbsp; &amp;nbsp; &quot;stat&quot;: 1,&lt;/font&gt;&lt;/span&gt;&lt;/div&gt;&lt;div style=&quot;&quot;&gt;&lt;span style=&quot;background-color: rgb(255, 255, 255);&quot;&gt;&lt;font style=&quot;font-size: 13px;&quot; face=&quot;spvWO1mO5FHsCvajAdfM&quot;&gt;&amp;nbsp; &amp;nbsp; &amp;nbsp; &amp;nbsp; &amp;nbsp; &amp;nbsp; &quot;grp&quot;: &quot;aut_user&quot;,&lt;/font&gt;&lt;/span&gt;&lt;/div&gt;&lt;div style=&quot;&quot;&gt;&lt;span style=&quot;background-color: rgb(255, 255, 255);&quot;&gt;&lt;font style=&quot;font-size: 13px;&quot; face=&quot;spvWO1mO5FHsCvajAdfM&quot;&gt;&amp;nbsp; &amp;nbsp; &amp;nbsp; &amp;nbsp; &amp;nbsp; &amp;nbsp; &quot;name&quot;: &quot;RO_USR_SPEC&quot;,&lt;/font&gt;&lt;/span&gt;&lt;/div&gt;&lt;div style=&quot;&quot;&gt;&lt;span style=&quot;background-color: rgb(255, 255, 255);&quot;&gt;&lt;font style=&quot;font-size: 13px;&quot; face=&quot;spvWO1mO5FHsCvajAdfM&quot;&gt;&amp;nbsp; &amp;nbsp; &amp;nbsp; &amp;nbsp; &amp;nbsp; &amp;nbsp; &quot;id&quot;: 206&lt;/font&gt;&lt;/span&gt;&lt;/div&gt;&lt;div style=&quot;&quot;&gt;&lt;span style=&quot;background-color: rgb(255, 255, 255);&quot;&gt;&lt;font style=&quot;font-size: 13px;&quot; face=&quot;spvWO1mO5FHsCvajAdfM&quot;&gt;&amp;nbsp; &amp;nbsp; &amp;nbsp; &amp;nbsp; }&lt;/font&gt;&lt;/span&gt;&lt;/div&gt;&lt;div style=&quot;&quot;&gt;&lt;span style=&quot;background-color: rgb(255, 255, 255);&quot;&gt;&lt;font style=&quot;font-size: 13px;&quot; face=&quot;spvWO1mO5FHsCvajAdfM&quot;&gt;&amp;nbsp; &amp;nbsp; ]&lt;/font&gt;&lt;/span&gt;&lt;/div&gt;&lt;div style=&quot;&quot;&gt;&lt;span style=&quot;background-color: rgb(255, 255, 255);&quot;&gt;&lt;font style=&quot;font-size: 13px;&quot; face=&quot;spvWO1mO5FHsCvajAdfM&quot;&gt;}&lt;/font&gt;&lt;/span&gt;&lt;/div&gt;&lt;/div&gt;&lt;/div&gt;&lt;div style=&quot;font-size: 14px; white-space: pre;&quot;&gt;&lt;br&gt;&lt;/div&gt;&lt;div style=&quot;font-size: 13px; white-space: pre;&quot;&gt;&lt;div style=&quot;line-height: 18px;&quot;&gt;&lt;div style=&quot;&quot;&gt;&lt;font style=&quot;background-color: rgb(255, 255, 255); font-size: 13px;&quot; face=&quot;Helvetica&quot;&gt;&lt;b&gt;ServiceTpyCategory , SVLstSearch&lt;/b&gt;&lt;/font&gt;&lt;/div&gt;&lt;div style=&quot;&quot;&gt;&lt;font style=&quot;background-color: rgb(255, 255, 255); font-size: 13px;&quot; face=&quot;Helvetica&quot;&gt;&lt;br&gt;&lt;/font&gt;&lt;/div&gt;&lt;div style=&quot;&quot;&gt;&lt;div style=&quot;line-height: 19px;&quot;&gt;&lt;div style=&quot;&quot;&gt;&lt;font face=&quot;Helvetica&quot; style=&quot;background-color: rgb(255, 255, 255); font-size: 13px;&quot;&gt;{&lt;/font&gt;&lt;/div&gt;&lt;div style=&quot;&quot;&gt;&lt;font face=&quot;RiK8kL66OE9aWTORfXGx&quot; style=&quot;background-color: rgb(255, 255, 255); font-size: 13px;&quot;&gt;&amp;nbsp; &amp;nbsp; &quot;sess_stat&quot;: 1,&lt;/font&gt;&lt;/div&gt;&lt;div style=&quot;&quot;&gt;&lt;font face=&quot;RiK8kL66OE9aWTORfXGx&quot; style=&quot;background-color: rgb(255, 255, 255); font-size: 13px;&quot;&gt;&amp;nbsp; &amp;nbsp; &quot;sv_code&quot;: 20000,&lt;/font&gt;&lt;/div&gt;&lt;div style=&quot;&quot;&gt;&lt;font face=&quot;RiK8kL66OE9aWTORfXGx&quot; style=&quot;background-color: rgb(255, 255, 255); font-size: 13px;&quot;&gt;&amp;nbsp; &amp;nbsp; &quot;res_data&quot;: []&lt;/font&gt;&lt;/div&gt;&lt;div style=&quot;&quot;&gt;&lt;font face=&quot;RiK8kL66OE9aWTORfXGx&quot; style=&quot;background-color: rgb(255, 255, 255); font-size: 13px;&quot;&gt;}&lt;/font&gt;&lt;/div&gt;&lt;/div&gt;&lt;/div&gt;&lt;/div&gt;&lt;/div&gt;&lt;div style=&quot;font-size: 14px; white-space: pre;&quot;&gt;&lt;br&gt;&lt;/div&gt;&lt;p style=&quot;white-space: pre; font-size: 13px;&quot;&gt;&lt;b style=&quot;background-color: initial;&quot;&gt;Get Admin data, ServiceAutUser, SVLstDyn, typ01 : 1&lt;/b&gt;&lt;/p&gt;&lt;div style=&quot;font-size: 14px; line-height: 19px; white-space: pre;&quot;&gt;&lt;div style=&quot;&quot;&gt;&lt;span style=&quot;background-color: rgb(255, 255, 255);&quot;&gt;{&lt;/span&gt;&lt;/div&gt;&lt;div style=&quot;&quot;&gt;&lt;span style=&quot;background-color: rgb(255, 255, 255);&quot;&gt;&amp;nbsp; &quot;sess_stat&quot;: 1,&lt;/span&gt;&lt;/div&gt;&lt;div style=&quot;&quot;&gt;&lt;span style=&quot;background-color: rgb(255, 255, 255);&quot;&gt;&amp;nbsp; &quot;sv_code&quot;: 20000,&lt;/span&gt;&lt;/div&gt;&lt;div style=&quot;&quot;&gt;&lt;span style=&quot;background-color: rgb(255, 255, 255);&quot;&gt;&amp;nbsp; &quot;iTotalRecords&quot;: 9,&lt;/span&gt;&lt;/div&gt;&lt;div style=&quot;&quot;&gt;&lt;span style=&quot;background-color: rgb(255, 255, 255);&quot;&gt;&amp;nbsp; &quot;iTotalDisplayRecords&quot;: 1,&lt;/span&gt;&lt;/div&gt;&lt;div style=&quot;&quot;&gt;&lt;span style=&quot;background-color: rgb(255, 255, 255);&quot;&gt;&amp;nbsp; &quot;aaData&quot;: [&lt;/span&gt;&lt;/div&gt;&lt;div style=&quot;&quot;&gt;&lt;span style=&quot;background-color: rgb(255, 255, 255);&quot;&gt;&amp;nbsp; &amp;nbsp; {&lt;/span&gt;&lt;/div&gt;&lt;div style=&quot;&quot;&gt;&lt;span style=&quot;background-color: rgb(255, 255, 255);&quot;&gt;&amp;nbsp; &amp;nbsp; &amp;nbsp; &quot;stat&quot;: 1,&lt;/span&gt;&lt;/div&gt;&lt;div style=&quot;&quot;&gt;&lt;span style=&quot;background-color: rgb(255, 255, 255);&quot;&gt;&amp;nbsp; &amp;nbsp; &amp;nbsp; &quot;typ01&quot;: 1,&lt;/span&gt;&lt;/div&gt;&lt;div style=&quot;&quot;&gt;&lt;span style=&quot;background-color: rgb(255, 255, 255);&quot;&gt;&amp;nbsp; &amp;nbsp; &amp;nbsp; &quot;inf02&quot;: 1234567890,&lt;/span&gt;&lt;/div&gt;&lt;div style=&quot;&quot;&gt;&lt;span style=&quot;background-color: rgb(255, 255, 255);&quot;&gt;&amp;nbsp; &amp;nbsp; &amp;nbsp; &quot;id&quot;: 6,&lt;/span&gt;&lt;/div&gt;&lt;div style=&quot;&quot;&gt;&lt;span style=&quot;background-color: rgb(255, 255, 255);&quot;&gt;&amp;nbsp; &amp;nbsp; &amp;nbsp; &quot;login01&quot;: &quot;Hai&quot;&lt;/span&gt;&lt;/div&gt;&lt;div style=&quot;&quot;&gt;&lt;span style=&quot;background-color: rgb(255, 255, 255);&quot;&gt;&amp;nbsp; &amp;nbsp; }&lt;/span&gt;&lt;/div&gt;&lt;div style=&quot;&quot;&gt;&lt;span style=&quot;background-color: rgb(255, 255, 255);&quot;&gt;&amp;nbsp; ]&lt;/span&gt;&lt;/div&gt;&lt;div style=&quot;&quot;&gt;&lt;span style=&quot;background-color: rgb(255, 255, 255);&quot;&gt;}&lt;/span&gt;&lt;/div&gt;&lt;/div&gt;&lt;div style=&quot;white-space: pre; font-size: 13px;&quot;&gt;&lt;font style=&quot;font-size: 13px;&quot;&gt;&lt;br&gt;&lt;/font&gt;&lt;/div&gt;&lt;div style=&quot;white-space: pre; font-size: 13px;&quot;&gt;&lt;font style=&quot;font-size: 13px;&quot;&gt;&lt;div style=&quot;line-height: 18px;&quot;&gt;&lt;div style=&quot;font-family: Helvetica; background-color: rgb(255, 255, 255);&quot;&gt;&lt;b&gt;Get Agent data, ServiceAutUser, SVLstDyn, typ01 : 2&lt;/b&gt;&lt;/div&gt;&lt;div style=&quot;font-family: Helvetica; background-color: rgb(255, 255, 255);&quot;&gt;&lt;br&gt;&lt;/div&gt;&lt;div style=&quot;&quot;&gt;&lt;div style=&quot;font-size: 14px; line-height: 19px;&quot;&gt;&lt;div style=&quot;&quot;&gt;&lt;span style=&quot;background-color: rgb(255, 255, 255);&quot;&gt;&lt;font face=&quot;Helvetica&quot;&gt;{&lt;/font&gt;&lt;/span&gt;&lt;/div&gt;&lt;div style=&quot;&quot;&gt;&lt;span style=&quot;background-color: rgb(255, 255, 255);&quot;&gt;&lt;font face=&quot;EJQsykArC-3s4Fu6ZCva&quot;&gt;&amp;nbsp; &amp;nbsp; &quot;sess_stat&quot;: 1,&lt;/font&gt;&lt;/span&gt;&lt;/div&gt;&lt;div style=&quot;&quot;&gt;&lt;span style=&quot;background-color: rgb(255, 255, 255);&quot;&gt;&lt;font face=&quot;EJQsykArC-3s4Fu6ZCva&quot;&gt;&amp;nbsp; &amp;nbsp; &quot;sv_code&quot;: 20000,&lt;/font&gt;&lt;/span&gt;&lt;/div&gt;&lt;div style=&quot;&quot;&gt;&lt;span style=&quot;background-color: rgb(255, 255, 255);&quot;&gt;&lt;font face=&quot;EJQsykArC-3s4Fu6ZCva&quot;&gt;&amp;nbsp; &amp;nbsp; &quot;iTotalRecords&quot;: 9,&lt;/font&gt;&lt;/span&gt;&lt;/div&gt;&lt;div style=&quot;&quot;&gt;&lt;span style=&quot;background-color: rgb(255, 255, 255);&quot;&gt;&lt;font face=&quot;EJQsykArC-3s4Fu6ZCva&quot;&gt;&amp;nbsp; &amp;nbsp; &quot;iTotalDisplayRecords&quot;: 3,&lt;/font&gt;&lt;/span&gt;&lt;/div&gt;&lt;div style=&quot;&quot;&gt;&lt;span style=&quot;background-color: rgb(255, 255, 255);&quot;&gt;&lt;font face=&quot;EJQsykArC-3s4Fu6ZCva&quot;&gt;&amp;nbsp; &amp;nbsp; &quot;aaData&quot;: [&lt;/font&gt;&lt;/span&gt;&lt;/div&gt;&lt;div style=&quot;&quot;&gt;&lt;span style=&quot;background-color: rgb(255, 255, 255);&quot;&gt;&lt;font face=&quot;EJQsykArC-3s4Fu6ZCva&quot;&gt;&amp;nbsp; &amp;nbsp; &amp;nbsp; &amp;nbsp; {&lt;/font&gt;&lt;/span&gt;&lt;/div&gt;&lt;div style=&quot;&quot;&gt;&lt;span style=&quot;background-color: rgb(255, 255, 255);&quot;&gt;&lt;font face=&quot;EJQsykArC-3s4Fu6ZCva&quot;&gt;&amp;nbsp; &amp;nbsp; &amp;nbsp; &amp;nbsp; &amp;nbsp; &amp;nbsp; &quot;uId03&quot;: 1,&lt;/font&gt;&lt;/span&gt;&lt;/div&gt;&lt;div style=&quot;&quot;&gt;&lt;span style=&quot;background-color: rgb(255, 255, 255);&quot;&gt;&lt;font face=&quot;EJQsykArC-3s4Fu6ZCva&quot;&gt;&amp;nbsp; &amp;nbsp; &amp;nbsp; &amp;nbsp; &amp;nbsp; &amp;nbsp; &quot;perId&quot;: 2,&lt;/font&gt;&lt;/span&gt;&lt;/div&gt;&lt;div style=&quot;&quot;&gt;&lt;span style=&quot;background-color: rgb(255, 255, 255);&quot;&gt;&lt;font face=&quot;EJQsykArC-3s4Fu6ZCva&quot;&gt;&amp;nbsp; &amp;nbsp; &amp;nbsp; &amp;nbsp; &amp;nbsp; &amp;nbsp; &quot;stat&quot;: 1,&lt;/font&gt;&lt;/span&gt;&lt;/div&gt;&lt;div style=&quot;&quot;&gt;&lt;span style=&quot;background-color: rgb(255, 255, 255);&quot;&gt;&lt;font face=&quot;EJQsykArC-3s4Fu6ZCva&quot;&gt;&amp;nbsp; &amp;nbsp; &amp;nbsp; &amp;nbsp; &amp;nbsp; &amp;nbsp; &quot;typ01&quot;: 2,&lt;/font&gt;&lt;/span&gt;&lt;/div&gt;&lt;div style=&quot;&quot;&gt;&lt;span style=&quot;background-color: rgb(255, 255, 255);&quot;&gt;&lt;font face=&quot;EJQsykArC-3s4Fu6ZCva&quot;&gt;&amp;nbsp; &amp;nbsp; &amp;nbsp; &amp;nbsp; &amp;nbsp; &amp;nbsp; &quot;inf02&quot;: &quot;099&quot;,&lt;/font&gt;&lt;/span&gt;&lt;/div&gt;&lt;div style=&quot;&quot;&gt;&lt;span style=&quot;background-color: rgb(255, 255, 255);&quot;&gt;&lt;font face=&quot;EJQsykArC-3s4Fu6ZCva&quot;&gt;&amp;nbsp; &amp;nbsp; &amp;nbsp; &amp;nbsp; &amp;nbsp; &amp;nbsp; &quot;manId&quot;: 1,&lt;/font&gt;&lt;/span&gt;&lt;/div&gt;&lt;div style=&quot;&quot;&gt;&lt;span style=&quot;background-color: rgb(255, 255, 255);&quot;&gt;&lt;font face=&quot;EJQsykArC-3s4Fu6ZCva&quot;&gt;&amp;nbsp; &amp;nbsp; &amp;nbsp; &amp;nbsp; &amp;nbsp; &amp;nbsp; &quot;inf01&quot;: &quot;adm%40ratp.fr&quot;,&lt;/font&gt;&lt;/span&gt;&lt;/div&gt;&lt;div style=&quot;&quot;&gt;&lt;span style=&quot;background-color: rgb(255, 255, 255);&quot;&gt;&lt;font face=&quot;EJQsykArC-3s4Fu6ZCva&quot;&gt;&amp;nbsp; &amp;nbsp; &amp;nbsp; &amp;nbsp; &amp;nbsp; &amp;nbsp; &quot;id&quot;: 1,&lt;/font&gt;&lt;/span&gt;&lt;/div&gt;&lt;div style=&quot;&quot;&gt;&lt;span style=&quot;background-color: rgb(255, 255, 255);&quot;&gt;&lt;font face=&quot;EJQsykArC-3s4Fu6ZCva&quot;&gt;&amp;nbsp; &amp;nbsp; &amp;nbsp; &amp;nbsp; &amp;nbsp; &amp;nbsp; &quot;login01&quot;: &quot;adm&quot;&lt;/font&gt;&lt;/span&gt;&lt;/div&gt;&lt;div style=&quot;&quot;&gt;&lt;span style=&quot;background-color: rgb(255, 255, 255);&quot;&gt;&lt;font face=&quot;EJQsykArC-3s4Fu6ZCva&quot;&gt;&amp;nbsp; &amp;nbsp; &amp;nbsp; &amp;nbsp; },&lt;/font&gt;&lt;/span&gt;&lt;/div&gt;&lt;div style=&quot;&quot;&gt;&lt;span style=&quot;background-color: rgb(255, 255, 255);&quot;&gt;&lt;font face=&quot;EJQsykArC-3s4Fu6ZCva&quot;&gt;&amp;nbsp; &amp;nbsp; &amp;nbsp; &amp;nbsp; {&lt;/font&gt;&lt;/span&gt;&lt;/div&gt;&lt;div style=&quot;&quot;&gt;&lt;span style=&quot;background-color: rgb(255, 255, 255);&quot;&gt;&lt;font face=&quot;EJQsykArC-3s4Fu6ZCva&quot;&gt;&amp;nbsp; &amp;nbsp; &amp;nbsp; &amp;nbsp; &amp;nbsp; &amp;nbsp; &quot;stat&quot;: 1,&lt;/font&gt;&lt;/span&gt;&lt;/div&gt;&lt;div style=&quot;&quot;&gt;&lt;span style=&quot;background-color: rgb(255, 255, 255);&quot;&gt;&lt;font face=&quot;EJQsykArC-3s4Fu6ZCva&quot;&gt;&amp;nbsp; &amp;nbsp; &amp;nbsp; &amp;nbsp; &amp;nbsp; &amp;nbsp; &quot;typ01&quot;: 2,&lt;/font&gt;&lt;/span&gt;&lt;/div&gt;&lt;div style=&quot;&quot;&gt;&lt;span style=&quot;background-color: rgb(255, 255, 255);&quot;&gt;&lt;font face=&quot;EJQsykArC-3s4Fu6ZCva&quot;&gt;&amp;nbsp; &amp;nbsp; &amp;nbsp; &amp;nbsp; &amp;nbsp; &amp;nbsp; &quot;inf02&quot;: &quot;0886523224&quot;,&lt;/font&gt;&lt;/span&gt;&lt;/div&gt;&lt;div style=&quot;&quot;&gt;&lt;span style=&quot;background-color: rgb(255, 255, 255);&quot;&gt;&lt;font face=&quot;EJQsykArC-3s4Fu6ZCva&quot;&gt;&amp;nbsp; &amp;nbsp; &amp;nbsp; &amp;nbsp; &amp;nbsp; &amp;nbsp; &quot;id&quot;: 4,&lt;/font&gt;&lt;/span&gt;&lt;/div&gt;&lt;div style=&quot;&quot;&gt;&lt;span style=&quot;background-color: rgb(255, 255, 255);&quot;&gt;&lt;font face=&quot;EJQsykArC-3s4Fu6ZCva&quot;&gt;&amp;nbsp; &amp;nbsp; &amp;nbsp; &amp;nbsp; &amp;nbsp; &amp;nbsp; &quot;login01&quot;: &quot;Quandepchai&quot;&lt;/font&gt;&lt;/span&gt;&lt;/div&gt;&lt;div style=&quot;&quot;&gt;&lt;span style=&quot;background-color: rgb(255, 255, 255);&quot;&gt;&lt;font face=&quot;EJQsykArC-3s4Fu6ZCva&quot;&gt;&amp;nbsp; &amp;nbsp; &amp;nbsp; &amp;nbsp; },&lt;/font&gt;&lt;/span&gt;&lt;/div&gt;&lt;div style=&quot;&quot;&gt;&lt;span style=&quot;background-color: rgb(255, 255, 255);&quot;&gt;&lt;font face=&quot;EJQsykArC-3s4Fu6ZCva&quot;&gt;&amp;nbsp; &amp;nbsp; &amp;nbsp; &amp;nbsp; {&lt;/font&gt;&lt;/span&gt;&lt;/div&gt;&lt;div style=&quot;&quot;&gt;&lt;span style=&quot;background-color: rgb(255, 255, 255);&quot;&gt;&lt;font face=&quot;EJQsykArC-3s4Fu6ZCva&quot;&gt;&amp;nbsp; &amp;nbsp; &amp;nbsp; &amp;nbsp; &amp;nbsp; &amp;nbsp; &quot;stat&quot;: 1,&lt;/font&gt;&lt;/span&gt;&lt;/div&gt;&lt;div style=&quot;&quot;&gt;&lt;span style=&quot;background-color: rgb(255, 255, 255);&quot;&gt;&lt;font face=&quot;EJQsykArC-3s4Fu6ZCva&quot;&gt;&amp;nbsp; &amp;nbsp; &amp;nbsp; &amp;nbsp; &amp;nbsp; &amp;nbsp; &quot;typ01&quot;: 2,&lt;/font&gt;&lt;/span&gt;&lt;/div&gt;&lt;div style=&quot;&quot;&gt;&lt;span style=&quot;background-color: rgb(255, 255, 255);&quot;&gt;&lt;font face=&quot;EJQsykArC-3s4Fu6ZCva&quot;&gt;&amp;nbsp; &amp;nbsp; &amp;nbsp; &amp;nbsp; &amp;nbsp; &amp;nbsp; &quot;inf02&quot;: 12121212,&lt;/font&gt;&lt;/span&gt;&lt;/div&gt;&lt;div style=&quot;&quot;&gt;&lt;span style=&quot;background-color: rgb(255, 255, 255);&quot;&gt;&lt;font face=&quot;EJQsykArC-3s4Fu6ZCva&quot;&gt;&amp;nbsp; &amp;nbsp; &amp;nbsp; &amp;nbsp; &amp;nbsp; &amp;nbsp; &quot;id&quot;: 7,&lt;/font&gt;&lt;/span&gt;&lt;/div&gt;&lt;div style=&quot;&quot;&gt;&lt;span style=&quot;background-color: rgb(255, 255, 255);&quot;&gt;&lt;font face=&quot;EJQsykArC-3s4Fu6ZCva&quot;&gt;&amp;nbsp; &amp;nbsp; &amp;nbsp; &amp;nbsp; &amp;nbsp; &amp;nbsp; &quot;login01&quot;: &quot;Tran%20Minh%20Quan&quot;&lt;/font&gt;&lt;/span&gt;&lt;/div&gt;&lt;div style=&quot;&quot;&gt;&lt;span style=&quot;background-color: rgb(255, 255, 255);&quot;&gt;&lt;font face=&quot;EJQsykArC-3s4Fu6ZCva&quot;&gt;&amp;nbsp; &amp;nbsp; &amp;nbsp; &amp;nbsp; }&lt;/font&gt;&lt;/span&gt;&lt;/div&gt;&lt;div style=&quot;&quot;&gt;&lt;span style=&quot;background-color: rgb(255, 255, 255);&quot;&gt;&lt;font face=&quot;EJQsykArC-3s4Fu6ZCva&quot;&gt;&amp;nbsp; &amp;nbsp; ]&lt;/font&gt;&lt;/span&gt;&lt;/div&gt;&lt;div style=&quot;&quot;&gt;&lt;span style=&quot;background-color: rgb(255, 255, 255);&quot;&gt;&lt;font face=&quot;EJQsykArC-3s4Fu6ZCva&quot;&gt;}&lt;/font&gt;&lt;/span&gt;&lt;/div&gt;&lt;/div&gt;&lt;/div&gt;&lt;div style=&quot;font-family: Helvetica; background-color: rgb(255, 255, 255);&quot;&gt;&lt;br&gt;&lt;/div&gt;&lt;div style=&quot;&quot;&gt;&lt;div style=&quot;line-height: 18px;&quot;&gt;&lt;div style=&quot;&quot;&gt;&lt;span style=&quot;background-color: rgb(255, 255, 255);&quot;&gt;&lt;font style=&quot;font-size: 13px;&quot; face=&quot;Helvetica&quot;&gt;&lt;b&gt;Get &lt;/b&gt;&lt;/font&gt;&lt;/span&gt;&lt;b style=&quot;background-color: initial;&quot;&gt;Candidate data, &lt;/b&gt;&lt;b&gt;ServiceAutUser, SVLstDyn, typ01 : 3, typ02 : 100 &lt;/b&gt;&lt;/div&gt;&lt;div style=&quot;&quot;&gt;&lt;span style=&quot;background-color: rgb(255, 255, 255);&quot;&gt;&lt;font style=&quot;font-size: 13px;&quot; face=&quot;Helvetica&quot;&gt;&lt;b&gt;&lt;br&gt;&lt;/b&gt;&lt;/font&gt;&lt;/span&gt;&lt;/div&gt;&lt;div style=&quot;&quot;&gt;&lt;div style=&quot;font-size: 14px; line-height: 19px;&quot;&gt;&lt;div style=&quot;&quot;&gt;&lt;span style=&quot;background-color: rgb(255, 255, 255);&quot;&gt;{&lt;/span&gt;&lt;/div&gt;&lt;div style=&quot;&quot;&gt;&lt;span style=&quot;background-color: rgb(255, 255, 255);&quot;&gt;&amp;nbsp; &amp;nbsp; &quot;sess_stat&quot;: 1,&lt;/span&gt;&lt;/div&gt;&lt;div style=&quot;&quot;&gt;&lt;span style=&quot;background-color: rgb(255, 255, 255);&quot;&gt;&amp;nbsp; &amp;nbsp; &quot;sv_code&quot;: 20000,&lt;/span&gt;&lt;/div&gt;&lt;div style=&quot;&quot;&gt;&lt;span style=&quot;background-color: rgb(255, 255, 255);&quot;&gt;&amp;nbsp; &amp;nbsp; &quot;iTotalRecords&quot;: 9,&lt;/span&gt;&lt;/div&gt;&lt;div style=&quot;&quot;&gt;&lt;span style=&quot;background-color: rgb(255, 255, 255);&quot;&gt;&amp;nbsp; &amp;nbsp; &quot;iTotalDisplayRecords&quot;: 1,&lt;/span&gt;&lt;/div&gt;&lt;div style=&quot;&quot;&gt;&lt;span style=&quot;background-color: rgb(255, 255, 255);&quot;&gt;&amp;nbsp; &amp;nbsp; &quot;aaData&quot;: [&lt;/span&gt;&lt;/div&gt;&lt;div style=&quot;&quot;&gt;&lt;span style=&quot;background-color: rgb(255, 255, 255);&quot;&gt;&amp;nbsp; &amp;nbsp; &amp;nbsp; &amp;nbsp; {&lt;/span&gt;&lt;/div&gt;&lt;div style=&quot;&quot;&gt;&lt;span style=&quot;background-color: rgb(255, 255, 255);&quot;&gt;&amp;nbsp; &amp;nbsp; &amp;nbsp; &amp;nbsp; &amp;nbsp; &amp;nbsp; &quot;uId03&quot;: 1,&lt;/span&gt;&lt;/div&gt;&lt;div style=&quot;&quot;&gt;&lt;span style=&quot;background-color: rgb(255, 255, 255);&quot;&gt;&amp;nbsp; &amp;nbsp; &amp;nbsp; &amp;nbsp; &amp;nbsp; &amp;nbsp; &quot;perId&quot;: 2,&lt;/span&gt;&lt;/div&gt;&lt;div style=&quot;&quot;&gt;&lt;span style=&quot;background-color: rgb(255, 255, 255);&quot;&gt;&amp;nbsp; &amp;nbsp; &amp;nbsp; &amp;nbsp; &amp;nbsp; &amp;nbsp; &quot;stat&quot;: 1,&lt;/span&gt;&lt;/div&gt;&lt;div style=&quot;&quot;&gt;&lt;span style=&quot;background-color: rgb(255, 255, 255);&quot;&gt;&amp;nbsp; &amp;nbsp; &amp;nbsp; &amp;nbsp; &amp;nbsp; &amp;nbsp; &quot;typ01&quot;: 3,&lt;/span&gt;&lt;/div&gt;&lt;div style=&quot;&quot;&gt;&lt;span style=&quot;background-color: rgb(255, 255, 255);&quot;&gt;&amp;nbsp; &amp;nbsp; &amp;nbsp; &amp;nbsp; &amp;nbsp; &amp;nbsp; &quot;inf02&quot;: &quot;099&quot;,&lt;/span&gt;&lt;/div&gt;&lt;div style=&quot;&quot;&gt;&lt;span style=&quot;background-color: rgb(255, 255, 255);&quot;&gt;&amp;nbsp; &amp;nbsp; &amp;nbsp; &amp;nbsp; &amp;nbsp; &amp;nbsp; &quot;manId&quot;: 1,&lt;/span&gt;&lt;/div&gt;&lt;div style=&quot;&quot;&gt;&lt;span style=&quot;background-color: rgb(255, 255, 255);&quot;&gt;&amp;nbsp; &amp;nbsp; &amp;nbsp; &amp;nbsp; &amp;nbsp; &amp;nbsp; &quot;inf01&quot;: &quot;quan%40gmail.com&quot;,&lt;/span&gt;&lt;/div&gt;&lt;div style=&quot;&quot;&gt;&lt;span style=&quot;background-color: rgb(255, 255, 255);&quot;&gt;&amp;nbsp; &amp;nbsp; &amp;nbsp; &amp;nbsp; &amp;nbsp; &amp;nbsp; &quot;id&quot;: 11,&lt;/span&gt;&lt;/div&gt;&lt;div style=&quot;&quot;&gt;&lt;span style=&quot;background-color: rgb(255, 255, 255);&quot;&gt;&amp;nbsp; &amp;nbsp; &amp;nbsp; &amp;nbsp; &amp;nbsp; &amp;nbsp; &quot;login01&quot;: &quot;Tran%20Quan&quot;&lt;/span&gt;&lt;/div&gt;&lt;div style=&quot;&quot;&gt;&lt;span style=&quot;background-color: rgb(255, 255, 255);&quot;&gt;&amp;nbsp; &amp;nbsp; &amp;nbsp; &amp;nbsp; }&lt;/span&gt;&lt;/div&gt;&lt;div style=&quot;&quot;&gt;&lt;span style=&quot;background-color: rgb(255, 255, 255);&quot;&gt;&amp;nbsp; &amp;nbsp; ]&lt;/span&gt;&lt;/div&gt;&lt;div style=&quot;&quot;&gt;&lt;span style=&quot;background-color: rgb(255, 255, 255);&quot;&gt;}&lt;/span&gt;&lt;/div&gt;&lt;/div&gt;&lt;/div&gt;&lt;div style=&quot;&quot;&gt;&lt;span style=&quot;background-color: rgb(255, 255, 255);&quot;&gt;&lt;br&gt;&lt;/span&gt;&lt;/div&gt;&lt;div style=&quot;&quot;&gt;&lt;div style=&quot;line-height: 18px;&quot;&gt;&lt;div style=&quot;&quot;&gt;&lt;span style=&quot;background-color: rgb(255, 255, 255);&quot;&gt;&lt;font face=&quot;Helvetica&quot;&gt;&lt;b&gt;Get &lt;/b&gt;&lt;/font&gt;&lt;/span&gt;&lt;b style=&quot;background-color: initial;&quot;&gt;RECR data, &lt;/b&gt;&lt;b&gt;ServiceAutUser, SVLstDyn, typ01 : 3, typ02 : 200 &lt;/b&gt;&lt;/div&gt;&lt;div style=&quot;&quot;&gt;&lt;span style=&quot;background-color: rgb(255, 255, 255);&quot;&gt;&lt;font face=&quot;Helvetica&quot;&gt;&lt;b&gt;&lt;br&gt;&lt;/b&gt;&lt;/font&gt;&lt;/span&gt;&lt;/div&gt;&lt;div style=&quot;&quot;&gt;&lt;div style=&quot;font-size: 14px; line-height: 19px;&quot;&gt;&lt;div style=&quot;&quot;&gt;&lt;span style=&quot;background-color: rgb(255, 255, 255);&quot;&gt;&lt;font face=&quot;Helvetica&quot;&gt;{&lt;/font&gt;&lt;/span&gt;&lt;/div&gt;&lt;div style=&quot;&quot;&gt;&lt;span style=&quot;background-color: rgb(255, 255, 255);&quot;&gt;&lt;font face=&quot;SFc-XD5IkdRKKlJessub&quot;&gt;&amp;nbsp; &amp;nbsp; &quot;sess_stat&quot;: 1,&lt;/font&gt;&lt;/span&gt;&lt;/div&gt;&lt;div style=&quot;&quot;&gt;&lt;span style=&quot;background-color: rgb(255, 255, 255);&quot;&gt;&lt;font face=&quot;SFc-XD5IkdRKKlJessub&quot;&gt;&amp;nbsp; &amp;nbsp; &quot;sv_code&quot;: 20000,&lt;/font&gt;&lt;/span&gt;&lt;/div&gt;&lt;div style=&quot;&quot;&gt;&lt;span style=&quot;background-color: rgb(255, 255, 255);&quot;&gt;&lt;font face=&quot;SFc-XD5IkdRKKlJessub&quot;&gt;&amp;nbsp; &amp;nbsp; &quot;iTotalRecords&quot;: 9,&lt;/font&gt;&lt;/span&gt;&lt;/div&gt;&lt;div style=&quot;&quot;&gt;&lt;span style=&quot;background-color: rgb(255, 255, 255);&quot;&gt;&lt;font face=&quot;SFc-XD5IkdRKKlJessub&quot;&gt;&amp;nbsp; &amp;nbsp; &quot;iTotalDisplayRecords&quot;: 1,&lt;/font&gt;&lt;/span&gt;&lt;/div&gt;&lt;div style=&quot;&quot;&gt;&lt;span style=&quot;background-color: rgb(255, 255, 255);&quot;&gt;&lt;font face=&quot;SFc-XD5IkdRKKlJessub&quot;&gt;&amp;nbsp; &amp;nbsp; &quot;aaData&quot;: [&lt;/font&gt;&lt;/span&gt;&lt;/div&gt;&lt;div style=&quot;&quot;&gt;&lt;span style=&quot;background-color: rgb(255, 255, 255);&quot;&gt;&lt;font face=&quot;SFc-XD5IkdRKKlJessub&quot;&gt;&amp;nbsp; &amp;nbsp; &amp;nbsp; &amp;nbsp; {&lt;/font&gt;&lt;/span&gt;&lt;/div&gt;&lt;div style=&quot;&quot;&gt;&lt;span style=&quot;background-color: rgb(255, 255, 255);&quot;&gt;&lt;font face=&quot;SFc-XD5IkdRKKlJessub&quot;&gt;&amp;nbsp; &amp;nbsp; &amp;nbsp; &amp;nbsp; &amp;nbsp; &amp;nbsp; &quot;uId03&quot;: 1,&lt;/font&gt;&lt;/span&gt;&lt;/div&gt;&lt;div style=&quot;&quot;&gt;&lt;span style=&quot;background-color: rgb(255, 255, 255);&quot;&gt;&lt;font face=&quot;SFc-XD5IkdRKKlJessub&quot;&gt;&amp;nbsp; &amp;nbsp; &amp;nbsp; &amp;nbsp; &amp;nbsp; &amp;nbsp; &quot;perId&quot;: 2,&lt;/font&gt;&lt;/span&gt;&lt;/div&gt;&lt;div style=&quot;&quot;&gt;&lt;span style=&quot;background-color: rgb(255, 255, 255);&quot;&gt;&lt;font face=&quot;SFc-XD5IkdRKKlJessub&quot;&gt;&amp;nbsp; &amp;nbsp; &amp;nbsp; &amp;nbsp; &amp;nbsp; &amp;nbsp; &quot;stat&quot;: 1,&lt;/font&gt;&lt;/span&gt;&lt;/div&gt;&lt;div style=&quot;&quot;&gt;&lt;span style=&quot;background-color: rgb(255, 255, 255);&quot;&gt;&lt;font face=&quot;SFc-XD5IkdRKKlJessub&quot;&gt;&amp;nbsp; &amp;nbsp; &amp;nbsp; &amp;nbsp; &amp;nbsp; &amp;nbsp; &quot;typ01&quot;: 3,&lt;/font&gt;&lt;/span&gt;&lt;/div&gt;&lt;div style=&quot;&quot;&gt;&lt;span style=&quot;background-color: rgb(255, 255, 255);&quot;&gt;&lt;font face=&quot;SFc-XD5IkdRKKlJessub&quot;&gt;&amp;nbsp; &amp;nbsp; &amp;nbsp; &amp;nbsp; &amp;nbsp; &amp;nbsp; &quot;inf02&quot;: &quot;099&quot;,&lt;/font&gt;&lt;/span&gt;&lt;/div&gt;&lt;div style=&quot;&quot;&gt;&lt;span style=&quot;background-color: rgb(255, 255, 255);&quot;&gt;&lt;font face=&quot;SFc-XD5IkdRKKlJessub&quot;&gt;&amp;nbsp; &amp;nbsp; &amp;nbsp; &amp;nbsp; &amp;nbsp; &amp;nbsp; &quot;manId&quot;: 1,&lt;/font&gt;&lt;/span&gt;&lt;/div&gt;&lt;div style=&quot;&quot;&gt;&lt;span style=&quot;background-color: rgb(255, 255, 255);&quot;&gt;&lt;font face=&quot;SFc-XD5IkdRKKlJessub&quot;&gt;&amp;nbsp; &amp;nbsp; &amp;nbsp; &amp;nbsp; &amp;nbsp; &amp;nbsp; &quot;inf01&quot;: &quot;quan%40gmail.com&quot;,&lt;/font&gt;&lt;/span&gt;&lt;/div&gt;&lt;div style=&quot;&quot;&gt;&lt;span style=&quot;background-color: rgb(255, 255, 255);&quot;&gt;&lt;font face=&quot;SFc-XD5IkdRKKlJessub&quot;&gt;&amp;nbsp; &amp;nbsp; &amp;nbsp; &amp;nbsp; &amp;nbsp; &amp;nbsp; &quot;id&quot;: 11,&lt;/font&gt;&lt;/span&gt;&lt;/div&gt;&lt;div style=&quot;&quot;&gt;&lt;span style=&quot;background-color: rgb(255, 255, 255);&quot;&gt;&lt;font face=&quot;SFc-XD5IkdRKKlJessub&quot;&gt;&amp;nbsp; &amp;nbsp; &amp;nbsp; &amp;nbsp; &amp;nbsp; &amp;nbsp; &quot;login01&quot;: &quot;Tran%20Quan&quot;&lt;/font&gt;&lt;/span&gt;&lt;/div&gt;&lt;div style=&quot;&quot;&gt;&lt;span style=&quot;background-color: rgb(255, 255, 255);&quot;&gt;&lt;font face=&quot;SFc-XD5IkdRKKlJessub&quot;&gt;&amp;nbsp; &amp;nbsp; &amp;nbsp; &amp;nbsp; }&lt;/font&gt;&lt;/span&gt;&lt;/div&gt;&lt;div style=&quot;&quot;&gt;&lt;span style=&quot;background-color: rgb(255, 255, 255);&quot;&gt;&lt;font face=&quot;SFc-XD5IkdRKKlJessub&quot;&gt;&amp;nbsp; &amp;nbsp; ]&lt;/font&gt;&lt;/span&gt;&lt;/div&gt;&lt;div style=&quot;&quot;&gt;&lt;span style=&quot;background-color: rgb(255, 255, 255);&quot;&gt;&lt;font face=&quot;SFc-XD5IkdRKKlJessub&quot;&gt;}&lt;/font&gt;&lt;/span&gt;&lt;/div&gt;&lt;/div&gt;&lt;/div&gt;&lt;/div&gt;&lt;/div&gt;&lt;/div&gt;&lt;/div&gt;&lt;/div&gt;&lt;/font&gt;&lt;/div&gt;&lt;div style=&quot;white-space: pre; font-size: 13px;&quot;&gt;&lt;font style=&quot;font-size: 13px;&quot;&gt;&lt;br&gt;&lt;/font&gt;&lt;/div&gt;&lt;div style=&quot;white-space: pre; font-size: 13px;&quot;&gt;&lt;font face=&quot;Helvetica&quot; style=&quot;font-size: 14px;&quot;&gt;&lt;div style=&quot;line-height: 18px; background-color: rgb(255, 255, 255);&quot;&gt;&lt;div style=&quot;&quot;&gt;&lt;br&gt;&lt;/div&gt;&lt;/div&gt;&lt;/font&gt;&lt;/div&gt;" style="rounded=0;whiteSpace=wrap;html=1;align=left;" vertex="1" parent="v-xWoGNkuWQi2-wrLgr6-79">
          <mxGeometry x="1000" width="790" height="3465" as="geometry" />
        </mxCell>
        <mxCell id="v-xWoGNkuWQi2-wrLgr6-80" value="" style="group" connectable="0" vertex="1" parent="1">
          <mxGeometry x="810" y="-1173" width="1630" height="1990" as="geometry" />
        </mxCell>
        <mxCell id="v-xWoGNkuWQi2-wrLgr6-78" value="" style="rounded=0;whiteSpace=wrap;html=1;" vertex="1" parent="v-xWoGNkuWQi2-wrLgr6-80">
          <mxGeometry width="1630" height="1990" as="geometry" />
        </mxCell>
        <mxCell id="v-xWoGNkuWQi2-wrLgr6-18" style="edgeStyle=orthogonalEdgeStyle;rounded=0;orthogonalLoop=1;jettySize=auto;html=1;exitX=0.5;exitY=1;exitDx=0;exitDy=0;endArrow=none;endFill=0;" edge="1" parent="v-xWoGNkuWQi2-wrLgr6-80" source="v-xWoGNkuWQi2-wrLgr6-16">
          <mxGeometry relative="1" as="geometry">
            <mxPoint x="563" y="1940" as="targetPoint" />
            <Array as="points">
              <mxPoint x="563" y="1890" />
            </Array>
          </mxGeometry>
        </mxCell>
        <mxCell id="v-xWoGNkuWQi2-wrLgr6-16" value="Luồng&amp;nbsp;svlstDyn, hiển thị danh sách user bằng class ServiceAutUser2" style="rounded=0;whiteSpace=wrap;html=1;" vertex="1" parent="v-xWoGNkuWQi2-wrLgr6-80">
          <mxGeometry x="227.5" y="20" width="670" height="60" as="geometry" />
        </mxCell>
        <mxCell id="v-xWoGNkuWQi2-wrLgr6-19" value="&lt;font style=&quot;font-size: 13px;&quot;&gt;Front-end&lt;/font&gt;" style="rounded=0;whiteSpace=wrap;html=1;strokeColor=none;" vertex="1" parent="v-xWoGNkuWQi2-wrLgr6-80">
          <mxGeometry x="356" y="100" width="86" height="28" as="geometry" />
        </mxCell>
        <mxCell id="v-xWoGNkuWQi2-wrLgr6-20" value="Back-end" style="rounded=0;whiteSpace=wrap;html=1;strokeColor=none;" vertex="1" parent="v-xWoGNkuWQi2-wrLgr6-80">
          <mxGeometry x="680" y="102" width="104" height="24" as="geometry" />
        </mxCell>
        <mxCell id="v-xWoGNkuWQi2-wrLgr6-21" value="" style="endArrow=none;html=1;rounded=0;" edge="1" parent="v-xWoGNkuWQi2-wrLgr6-80">
          <mxGeometry width="50" height="50" relative="1" as="geometry">
            <mxPoint x="262.5" y="128" as="sourcePoint" />
            <mxPoint x="862.5" y="128" as="targetPoint" />
          </mxGeometry>
        </mxCell>
        <mxCell id="v-xWoGNkuWQi2-wrLgr6-24" style="edgeStyle=orthogonalEdgeStyle;rounded=0;orthogonalLoop=1;jettySize=auto;html=1;exitX=0.5;exitY=1;exitDx=0;exitDy=0;" edge="1" parent="v-xWoGNkuWQi2-wrLgr6-80" source="v-xWoGNkuWQi2-wrLgr6-22" target="v-xWoGNkuWQi2-wrLgr6-23">
          <mxGeometry relative="1" as="geometry" />
        </mxCell>
        <mxCell id="v-xWoGNkuWQi2-wrLgr6-22" value="&lt;b&gt;Start&lt;/b&gt;" style="rounded=0;whiteSpace=wrap;html=1;" vertex="1" parent="v-xWoGNkuWQi2-wrLgr6-80">
          <mxGeometry x="374" y="160" width="50" height="30" as="geometry" />
        </mxCell>
        <mxCell id="v-xWoGNkuWQi2-wrLgr6-30" style="edgeStyle=orthogonalEdgeStyle;rounded=0;orthogonalLoop=1;jettySize=auto;html=1;exitX=1;exitY=0.5;exitDx=0;exitDy=0;" edge="1" parent="v-xWoGNkuWQi2-wrLgr6-80" source="v-xWoGNkuWQi2-wrLgr6-23" target="v-xWoGNkuWQi2-wrLgr6-29">
          <mxGeometry relative="1" as="geometry" />
        </mxCell>
        <mxCell id="v-xWoGNkuWQi2-wrLgr6-23" value="Gửi yêu cầu đến server qua api key:&amp;nbsp;&lt;h2 style=&quot;text-align: left; white-space: pre; font-size: 13px; line-height: 0%;&quot;&gt;&lt;b&gt;http://localhost:8080/bo/api/priv&lt;/b&gt;&lt;/h2&gt;" style="rounded=0;whiteSpace=wrap;html=1;" vertex="1" parent="v-xWoGNkuWQi2-wrLgr6-80">
          <mxGeometry x="286" y="225" width="226" height="65" as="geometry" />
        </mxCell>
        <mxCell id="v-xWoGNkuWQi2-wrLgr6-32" style="edgeStyle=orthogonalEdgeStyle;rounded=0;orthogonalLoop=1;jettySize=auto;html=1;exitX=0.5;exitY=1;exitDx=0;exitDy=0;" edge="1" parent="v-xWoGNkuWQi2-wrLgr6-80" source="v-xWoGNkuWQi2-wrLgr6-29" target="v-xWoGNkuWQi2-wrLgr6-31">
          <mxGeometry relative="1" as="geometry" />
        </mxCell>
        <mxCell id="v-xWoGNkuWQi2-wrLgr6-29" value="Nhận response qua class&lt;br&gt;&lt;b&gt;ServiceAPIPrivate.java&lt;/b&gt;" style="rounded=0;whiteSpace=wrap;html=1;" vertex="1" parent="v-xWoGNkuWQi2-wrLgr6-80">
          <mxGeometry x="619" y="225" width="226" height="65" as="geometry" />
        </mxCell>
        <mxCell id="v-xWoGNkuWQi2-wrLgr6-34" style="edgeStyle=orthogonalEdgeStyle;rounded=0;orthogonalLoop=1;jettySize=auto;html=1;exitX=0.5;exitY=1;exitDx=0;exitDy=0;" edge="1" parent="v-xWoGNkuWQi2-wrLgr6-80" source="v-xWoGNkuWQi2-wrLgr6-31" target="v-xWoGNkuWQi2-wrLgr6-33">
          <mxGeometry relative="1" as="geometry" />
        </mxCell>
        <mxCell id="v-xWoGNkuWQi2-wrLgr6-31" value="doGet()-&amp;gt; doPost()-&amp;gt; API.doService()&lt;div&gt;-&amp;gt;&amp;nbsp;&lt;span style=&quot;padding: 0px 0px 0px 2px;&quot;&gt;&lt;span style=&quot;white-space: pre;&quot;&gt;&lt;font style=&quot;font-size: 13px;&quot; face=&quot;Helvetica&quot;&gt;doService() trong class ServiceAutUser2&lt;/font&gt;&lt;/span&gt;&lt;/span&gt;&lt;/div&gt;" style="rounded=0;whiteSpace=wrap;html=1;" vertex="1" parent="v-xWoGNkuWQi2-wrLgr6-80">
          <mxGeometry x="591.5" y="340" width="281" height="60" as="geometry" />
        </mxCell>
        <mxCell id="v-xWoGNkuWQi2-wrLgr6-36" style="edgeStyle=orthogonalEdgeStyle;rounded=0;orthogonalLoop=1;jettySize=auto;html=1;" edge="1" parent="v-xWoGNkuWQi2-wrLgr6-80" source="v-xWoGNkuWQi2-wrLgr6-33" target="v-xWoGNkuWQi2-wrLgr6-35">
          <mxGeometry relative="1" as="geometry" />
        </mxCell>
        <mxCell id="v-xWoGNkuWQi2-wrLgr6-33" value="&lt;p style=&quot;line-height: 160%;&quot;&gt;&lt;font style=&quot;font-size: 13px;&quot;&gt;vào trong hàm doService() của class ServiceAutUser2, bắt dầu lấy dữ liệu trong file json ra bằng hàm get của đối tượng json&lt;/font&gt;&lt;/p&gt;" style="rounded=0;whiteSpace=wrap;html=1;" vertex="1" parent="v-xWoGNkuWQi2-wrLgr6-80">
          <mxGeometry x="611.5" y="440" width="241" height="100" as="geometry" />
        </mxCell>
        <mxCell id="v-xWoGNkuWQi2-wrLgr6-40" style="edgeStyle=orthogonalEdgeStyle;rounded=0;orthogonalLoop=1;jettySize=auto;html=1;exitX=0.5;exitY=1;exitDx=0;exitDy=0;" edge="1" parent="v-xWoGNkuWQi2-wrLgr6-80" source="v-xWoGNkuWQi2-wrLgr6-35" target="v-xWoGNkuWQi2-wrLgr6-39">
          <mxGeometry relative="1" as="geometry" />
        </mxCell>
        <mxCell id="v-xWoGNkuWQi2-wrLgr6-35" value="&lt;p style=&quot;line-height: 140%;&quot;&gt;&lt;span style=&quot;font-size: 13px;&quot;&gt;Ở đây chuỗi sv (sv sẽ chứa tên của service muốn sử dụng) được lấy ra từ json bằng API.reqSVFunctName(json) sau đó kiểm tra với điều kiện nào khớp với sv đó&lt;/span&gt;&lt;br&gt;&lt;/p&gt;" style="rounded=0;whiteSpace=wrap;html=1;" vertex="1" parent="v-xWoGNkuWQi2-wrLgr6-80">
          <mxGeometry x="611.5" y="580" width="241" height="100" as="geometry" />
        </mxCell>
        <mxCell id="v-xWoGNkuWQi2-wrLgr6-42" style="edgeStyle=orthogonalEdgeStyle;rounded=0;orthogonalLoop=1;jettySize=auto;html=1;exitX=0.5;exitY=1;exitDx=0;exitDy=0;" edge="1" parent="v-xWoGNkuWQi2-wrLgr6-80" source="v-xWoGNkuWQi2-wrLgr6-39" target="v-xWoGNkuWQi2-wrLgr6-41">
          <mxGeometry relative="1" as="geometry" />
        </mxCell>
        <mxCell id="v-xWoGNkuWQi2-wrLgr6-39" value="&lt;p style=&quot;line-height: 140%;&quot;&gt;&lt;span style=&quot;font-size: 13px;&quot;&gt;sv =&amp;nbsp;&lt;/span&gt;&lt;span style=&quot;background-color: initial; font-size: 13px;&quot;&gt;svlstdyn =&amp;gt; thực hiện hàm doLstDyn()&lt;/span&gt;&lt;/p&gt;" style="rounded=0;whiteSpace=wrap;html=1;" vertex="1" parent="v-xWoGNkuWQi2-wrLgr6-80">
          <mxGeometry x="637.75" y="710" width="188.5" height="60" as="geometry" />
        </mxCell>
        <mxCell id="v-xWoGNkuWQi2-wrLgr6-44" style="edgeStyle=orthogonalEdgeStyle;rounded=0;orthogonalLoop=1;jettySize=auto;html=1;exitX=0.5;exitY=1;exitDx=0;exitDy=0;" edge="1" parent="v-xWoGNkuWQi2-wrLgr6-80" source="v-xWoGNkuWQi2-wrLgr6-41" target="v-xWoGNkuWQi2-wrLgr6-43">
          <mxGeometry relative="1" as="geometry" />
        </mxCell>
        <mxCell id="v-xWoGNkuWQi2-wrLgr6-41" value="&lt;p style=&quot;line-height: 140%;&quot;&gt;&lt;span style=&quot;font-size: 13px;&quot;&gt;sv =&amp;nbsp;&lt;/span&gt;&lt;span style=&quot;background-color: initial; font-size: 13px;&quot;&gt;svlstdyn =&amp;gt; thực hiện hàm doLstDyn()&lt;/span&gt;&lt;/p&gt;" style="rounded=0;whiteSpace=wrap;html=1;" vertex="1" parent="v-xWoGNkuWQi2-wrLgr6-80">
          <mxGeometry x="637.75" y="810" width="188.5" height="60" as="geometry" />
        </mxCell>
        <mxCell id="v-xWoGNkuWQi2-wrLgr6-48" style="edgeStyle=orthogonalEdgeStyle;rounded=0;orthogonalLoop=1;jettySize=auto;html=1;exitX=0.5;exitY=1;exitDx=0;exitDy=0;" edge="1" parent="v-xWoGNkuWQi2-wrLgr6-80" source="v-xWoGNkuWQi2-wrLgr6-43" target="v-xWoGNkuWQi2-wrLgr6-47">
          <mxGeometry relative="1" as="geometry" />
        </mxCell>
        <mxCell id="v-xWoGNkuWQi2-wrLgr6-54" style="edgeStyle=orthogonalEdgeStyle;rounded=0;orthogonalLoop=1;jettySize=auto;html=1;exitX=1;exitY=0.5;exitDx=0;exitDy=0;entryX=1;entryY=0.5;entryDx=0;entryDy=0;" edge="1" parent="v-xWoGNkuWQi2-wrLgr6-80" source="v-xWoGNkuWQi2-wrLgr6-43" target="v-xWoGNkuWQi2-wrLgr6-53">
          <mxGeometry relative="1" as="geometry" />
        </mxCell>
        <mxCell id="v-xWoGNkuWQi2-wrLgr6-43" value="&lt;p style=&quot;line-height: 140%;&quot;&gt;&lt;span style=&quot;font-size: 13px;&quot;&gt;Trong doLstDyn(), thực hiện lấy searchKey, stat, typ01, typ02&amp;nbsp;&lt;/span&gt;&lt;span style=&quot;font-size: 13px; background-color: initial;&quot;&gt;từ json, xác thực thông tin user&lt;/span&gt;&lt;/p&gt;" style="rounded=0;whiteSpace=wrap;html=1;" vertex="1" parent="v-xWoGNkuWQi2-wrLgr6-80">
          <mxGeometry x="637.75" y="910" width="188.5" height="60" as="geometry" />
        </mxCell>
        <mxCell id="v-xWoGNkuWQi2-wrLgr6-45" value="&lt;p style=&quot;line-height: 140%;&quot;&gt;Nhận phản hồi từ server: {&quot;sess_stat&quot;:1,&quot;sv_code&quot;:20001}&lt;br&gt;&lt;/p&gt;" style="rounded=0;whiteSpace=wrap;html=1;" vertex="1" parent="v-xWoGNkuWQi2-wrLgr6-80">
          <mxGeometry x="256" y="1112" width="188.5" height="60" as="geometry" />
        </mxCell>
        <mxCell id="v-xWoGNkuWQi2-wrLgr6-49" style="edgeStyle=orthogonalEdgeStyle;rounded=0;orthogonalLoop=1;jettySize=auto;html=1;exitX=0.5;exitY=1;exitDx=0;exitDy=0;entryX=1;entryY=0.5;entryDx=0;entryDy=0;" edge="1" parent="v-xWoGNkuWQi2-wrLgr6-80" source="v-xWoGNkuWQi2-wrLgr6-47" target="v-xWoGNkuWQi2-wrLgr6-45">
          <mxGeometry relative="1" as="geometry" />
        </mxCell>
        <mxCell id="v-xWoGNkuWQi2-wrLgr6-50" value="trả về sv_code : 20001" style="edgeLabel;html=1;align=center;verticalAlign=middle;resizable=0;points=[];" connectable="0" vertex="1" parent="v-xWoGNkuWQi2-wrLgr6-49">
          <mxGeometry x="0.125" y="2" relative="1" as="geometry">
            <mxPoint x="28" y="-14" as="offset" />
          </mxGeometry>
        </mxCell>
        <mxCell id="v-xWoGNkuWQi2-wrLgr6-47" value="&lt;p style=&quot;line-height: 140%;&quot;&gt;&lt;span style=&quot;font-size: 13px;&quot;&gt;Nếu thông tin user không cho phép làm việc&lt;/span&gt;&lt;/p&gt;" style="rounded=0;whiteSpace=wrap;html=1;" vertex="1" parent="v-xWoGNkuWQi2-wrLgr6-80">
          <mxGeometry x="637.75" y="1010" width="188.5" height="60" as="geometry" />
        </mxCell>
        <mxCell id="v-xWoGNkuWQi2-wrLgr6-56" style="edgeStyle=orthogonalEdgeStyle;rounded=0;orthogonalLoop=1;jettySize=auto;html=1;exitX=0.5;exitY=1;exitDx=0;exitDy=0;" edge="1" parent="v-xWoGNkuWQi2-wrLgr6-80" source="v-xWoGNkuWQi2-wrLgr6-53" target="v-xWoGNkuWQi2-wrLgr6-55">
          <mxGeometry relative="1" as="geometry" />
        </mxCell>
        <mxCell id="v-xWoGNkuWQi2-wrLgr6-53" value="&lt;p style=&quot;line-height: 140%;&quot;&gt;&lt;span style=&quot;font-size: 13px;&quot;&gt;Thông tin user cho phép làm việc&lt;/span&gt;&lt;/p&gt;" style="rounded=0;whiteSpace=wrap;html=1;" vertex="1" parent="v-xWoGNkuWQi2-wrLgr6-80">
          <mxGeometry x="635.5" y="1200" width="188.5" height="60" as="geometry" />
        </mxCell>
        <mxCell id="v-xWoGNkuWQi2-wrLgr6-58" style="edgeStyle=orthogonalEdgeStyle;rounded=0;orthogonalLoop=1;jettySize=auto;html=1;entryX=0;entryY=0.5;entryDx=0;entryDy=0;exitX=1;exitY=0.5;exitDx=0;exitDy=0;" edge="1" parent="v-xWoGNkuWQi2-wrLgr6-80" source="v-xWoGNkuWQi2-wrLgr6-55" target="v-xWoGNkuWQi2-wrLgr6-57">
          <mxGeometry relative="1" as="geometry">
            <mxPoint x="830" y="1373" as="sourcePoint" />
          </mxGeometry>
        </mxCell>
        <mxCell id="v-xWoGNkuWQi2-wrLgr6-61" style="edgeStyle=orthogonalEdgeStyle;rounded=0;orthogonalLoop=1;jettySize=auto;html=1;exitX=0.5;exitY=1;exitDx=0;exitDy=0;" edge="1" parent="v-xWoGNkuWQi2-wrLgr6-80" source="v-xWoGNkuWQi2-wrLgr6-55" target="v-xWoGNkuWQi2-wrLgr6-60">
          <mxGeometry relative="1" as="geometry" />
        </mxCell>
        <mxCell id="v-xWoGNkuWQi2-wrLgr6-55" value="&lt;p style=&quot;line-height: 140%;&quot;&gt;&lt;span style=&quot;font-size: 13px;&quot;&gt;Bắt đầu build lệnh truy suất database với đối tượng Creterion, với phương thức reqRestriction()&amp;nbsp;&lt;/span&gt;&lt;br&gt;&lt;/p&gt;" style="rounded=0;whiteSpace=wrap;html=1;" vertex="1" parent="v-xWoGNkuWQi2-wrLgr6-80">
          <mxGeometry x="635.5" y="1315" width="188.5" height="85" as="geometry" />
        </mxCell>
        <mxCell id="v-xWoGNkuWQi2-wrLgr6-57" value="&lt;p style=&quot;line-height: 140%;&quot;&gt;&lt;span style=&quot;font-size: 13px;&quot;&gt;Với&amp;nbsp;&lt;/span&gt;&lt;span style=&quot;font-size: 13px; background-color: initial;&quot;&gt;phương thức reqRestriction(), ta có thể build điều kiện IN và AND với phương thức: Restriction.in(), Restriction.and(), ngoài ra còn có các phương thức để tạo điều kiện với OR, LIKE, EQUAL( = ), ... ,&amp;nbsp;&lt;/span&gt;&lt;/p&gt;" style="rounded=0;whiteSpace=wrap;html=1;" vertex="1" parent="v-xWoGNkuWQi2-wrLgr6-80">
          <mxGeometry x="860" y="1302.5" width="274.5" height="110" as="geometry" />
        </mxCell>
        <mxCell id="v-xWoGNkuWQi2-wrLgr6-63" value="" style="edgeStyle=orthogonalEdgeStyle;rounded=0;orthogonalLoop=1;jettySize=auto;html=1;" edge="1" parent="v-xWoGNkuWQi2-wrLgr6-80" source="v-xWoGNkuWQi2-wrLgr6-60" target="v-xWoGNkuWQi2-wrLgr6-62">
          <mxGeometry relative="1" as="geometry" />
        </mxCell>
        <mxCell id="v-xWoGNkuWQi2-wrLgr6-69" style="edgeStyle=orthogonalEdgeStyle;rounded=0;orthogonalLoop=1;jettySize=auto;html=1;exitX=0.5;exitY=1;exitDx=0;exitDy=0;" edge="1" parent="v-xWoGNkuWQi2-wrLgr6-80" source="v-xWoGNkuWQi2-wrLgr6-60" target="v-xWoGNkuWQi2-wrLgr6-68">
          <mxGeometry relative="1" as="geometry" />
        </mxCell>
        <mxCell id="v-xWoGNkuWQi2-wrLgr6-60" value="&lt;p style=&quot;line-height: 140%;&quot;&gt;&lt;span style=&quot;font-size: 13px;&quot;&gt;Sau khi tạo điều kiện, đến với hàm reqListDyn() để trả dữ liệu về dạng List&lt;/span&gt;&lt;br&gt;&lt;/p&gt;" style="rounded=0;whiteSpace=wrap;html=1;" vertex="1" parent="v-xWoGNkuWQi2-wrLgr6-80">
          <mxGeometry x="635.5" y="1470" width="188.5" height="85" as="geometry" />
        </mxCell>
        <mxCell id="v-xWoGNkuWQi2-wrLgr6-65" style="edgeStyle=orthogonalEdgeStyle;rounded=0;orthogonalLoop=1;jettySize=auto;html=1;exitX=1;exitY=0.5;exitDx=0;exitDy=0;" edge="1" parent="v-xWoGNkuWQi2-wrLgr6-80" source="v-xWoGNkuWQi2-wrLgr6-62" target="v-xWoGNkuWQi2-wrLgr6-64">
          <mxGeometry relative="1" as="geometry" />
        </mxCell>
        <mxCell id="v-xWoGNkuWQi2-wrLgr6-67" style="edgeStyle=orthogonalEdgeStyle;rounded=0;orthogonalLoop=1;jettySize=auto;html=1;exitX=0.75;exitY=1;exitDx=0;exitDy=0;entryX=0;entryY=0.5;entryDx=0;entryDy=0;" edge="1" parent="v-xWoGNkuWQi2-wrLgr6-80" source="v-xWoGNkuWQi2-wrLgr6-62" target="v-xWoGNkuWQi2-wrLgr6-66">
          <mxGeometry relative="1" as="geometry" />
        </mxCell>
        <mxCell id="v-xWoGNkuWQi2-wrLgr6-62" value="&lt;p style=&quot;line-height: 140%;&quot;&gt;Với phương thức&amp;nbsp;&lt;span style=&quot;font-size: 13px;&quot;&gt;reqListDyn(), lấy dữ liệu begin(dữ liệu bắt đầu), number(số lượng), sortCol(sắp xếp cột), sortTyp(Kiểu sắp xếp kiểu typ)&lt;/span&gt;&lt;/p&gt;" style="whiteSpace=wrap;html=1;rounded=0;" vertex="1" parent="v-xWoGNkuWQi2-wrLgr6-80">
          <mxGeometry x="860" y="1451.25" width="207.5" height="122.5" as="geometry" />
        </mxCell>
        <mxCell id="v-xWoGNkuWQi2-wrLgr6-64" value="&lt;p style=&quot;line-height: 140%;&quot;&gt;&lt;span style=&quot;font-size: 14px;&quot;&gt;Nếu sortCol = 0 thì colName = ViAutUserDyn.ATT_I_ID&amp;nbsp;&lt;/span&gt;&lt;/p&gt;&lt;p style=&quot;line-height: 140%;&quot;&gt;&lt;span style=&quot;font-size: 14px;&quot;&gt;Nếu sortCol = 1 thì colName = ViAutUserDyn.ATT_T_LOGIN_01&lt;/span&gt;&lt;/p&gt;&lt;p style=&quot;line-height: 140%;&quot;&gt;&lt;span style=&quot;font-size: 14px;&quot;&gt;&amp;nbsp;Nếu sortCol = 2 thì colName = ViAutUserDyn.ATT_T_INFO_01&lt;/span&gt;&lt;br&gt;&lt;/p&gt;" style="whiteSpace=wrap;html=1;rounded=0;" vertex="1" parent="v-xWoGNkuWQi2-wrLgr6-80">
          <mxGeometry x="1100" y="1451.25" width="430" height="122.5" as="geometry" />
        </mxCell>
        <mxCell id="v-xWoGNkuWQi2-wrLgr6-66" value="&lt;p style=&quot;line-height: 140%; font-size: 13px;&quot;&gt;&lt;font style=&quot;font-size: 13px;&quot;&gt;Nếu sortTyp = 0 thì order sẽ bằng Order.asc() (sắp xếp tăng dần)&lt;br&gt;&lt;/font&gt;&lt;/p&gt;&lt;p style=&quot;line-height: 16.8px; font-size: 13px;&quot;&gt;&lt;font style=&quot;font-size: 13px;&quot;&gt;Nếu sortTyp = 1 thì order sẽ bằng Order.desc() (sắp xếp giảmdần)&lt;/font&gt;&lt;/p&gt;" style="whiteSpace=wrap;html=1;rounded=0;" vertex="1" parent="v-xWoGNkuWQi2-wrLgr6-80">
          <mxGeometry x="1080" y="1600" width="430" height="80" as="geometry" />
        </mxCell>
        <mxCell id="v-xWoGNkuWQi2-wrLgr6-71" style="edgeStyle=orthogonalEdgeStyle;rounded=0;orthogonalLoop=1;jettySize=auto;html=1;exitX=0.5;exitY=1;exitDx=0;exitDy=0;" edge="1" parent="v-xWoGNkuWQi2-wrLgr6-80" source="v-xWoGNkuWQi2-wrLgr6-68" target="v-xWoGNkuWQi2-wrLgr6-70">
          <mxGeometry relative="1" as="geometry" />
        </mxCell>
        <mxCell id="v-xWoGNkuWQi2-wrLgr6-68" value="&lt;p style=&quot;line-height: 140%;&quot;&gt;&lt;span style=&quot;font-size: 13px;&quot;&gt;Sau khi truy suất dữ liệu sẽ đếm số lượng iTotalRecords và iTotalDisplayRecords lần lượt qua 2 hàm reqNbNsoPostListDyn() và reqNbNsoPostListDyn()&lt;/span&gt;&lt;br&gt;&lt;/p&gt;" style="rounded=0;whiteSpace=wrap;html=1;" vertex="1" parent="v-xWoGNkuWQi2-wrLgr6-80">
          <mxGeometry x="617.5" y="1600" width="224.5" height="112" as="geometry" />
        </mxCell>
        <mxCell id="v-xWoGNkuWQi2-wrLgr6-73" style="edgeStyle=orthogonalEdgeStyle;rounded=0;orthogonalLoop=1;jettySize=auto;html=1;exitX=0;exitY=0.5;exitDx=0;exitDy=0;" edge="1" parent="v-xWoGNkuWQi2-wrLgr6-80" source="v-xWoGNkuWQi2-wrLgr6-70" target="v-xWoGNkuWQi2-wrLgr6-72">
          <mxGeometry relative="1" as="geometry" />
        </mxCell>
        <mxCell id="v-xWoGNkuWQi2-wrLgr6-70" value="&lt;p style=&quot;line-height: 140%;&quot;&gt;&lt;span style=&quot;font-size: 13px;&quot;&gt;Response dữ liệu dạng json về front-end&lt;/span&gt;&lt;/p&gt;" style="rounded=0;whiteSpace=wrap;html=1;" vertex="1" parent="v-xWoGNkuWQi2-wrLgr6-80">
          <mxGeometry x="630.6600000000001" y="1760" width="198.19" height="60" as="geometry" />
        </mxCell>
        <mxCell id="v-xWoGNkuWQi2-wrLgr6-75" style="edgeStyle=orthogonalEdgeStyle;rounded=0;orthogonalLoop=1;jettySize=auto;html=1;exitX=0.5;exitY=1;exitDx=0;exitDy=0;" edge="1" parent="v-xWoGNkuWQi2-wrLgr6-80" source="v-xWoGNkuWQi2-wrLgr6-72" target="v-xWoGNkuWQi2-wrLgr6-74">
          <mxGeometry relative="1" as="geometry" />
        </mxCell>
        <mxCell id="v-xWoGNkuWQi2-wrLgr6-72" value="&lt;p style=&quot;line-height: 140%;&quot;&gt;&lt;span style=&quot;font-size: 13px;&quot;&gt;Nhận dữ liệu user và bắt đầu init ra view, table&lt;/span&gt;&lt;/p&gt;" style="rounded=0;whiteSpace=wrap;html=1;" vertex="1" parent="v-xWoGNkuWQi2-wrLgr6-80">
          <mxGeometry x="262.81" y="1760" width="198.19" height="60" as="geometry" />
        </mxCell>
        <mxCell id="v-xWoGNkuWQi2-wrLgr6-74" value="&lt;p style=&quot;line-height: 140%;&quot;&gt;&lt;span style=&quot;font-size: 13px;&quot;&gt;&lt;b&gt;END&lt;/b&gt;&lt;/span&gt;&lt;/p&gt;" style="rounded=0;whiteSpace=wrap;html=1;" vertex="1" parent="v-xWoGNkuWQi2-wrLgr6-80">
          <mxGeometry x="333.40999999999997" y="1890" width="57" height="40" as="geometry" />
        </mxCell>
        <mxCell id="v-xWoGNkuWQi2-wrLgr6-81" value="" style="group" connectable="0" vertex="1" parent="1">
          <mxGeometry x="-190" y="-330" width="960" height="1140" as="geometry" />
        </mxCell>
        <mxCell id="v-xWoGNkuWQi2-wrLgr6-76" value="" style="rounded=0;whiteSpace=wrap;html=1;" vertex="1" parent="v-xWoGNkuWQi2-wrLgr6-81">
          <mxGeometry width="960" height="1140" as="geometry" />
        </mxCell>
        <mxCell id="KCQ4XFGD0ZcYqRoLXp1U-2" value="&lt;font style=&quot;font-size: 13px;&quot;&gt;Front-end&lt;/font&gt;" style="rounded=0;whiteSpace=wrap;html=1;strokeColor=none;" vertex="1" parent="v-xWoGNkuWQi2-wrLgr6-81">
          <mxGeometry x="306" y="133" width="86" height="28" as="geometry" />
        </mxCell>
        <mxCell id="KCQ4XFGD0ZcYqRoLXp1U-3" value="" style="endArrow=none;html=1;rounded=0;" edge="1" parent="v-xWoGNkuWQi2-wrLgr6-81">
          <mxGeometry width="50" height="50" relative="1" as="geometry">
            <mxPoint x="241" y="161" as="sourcePoint" />
            <mxPoint x="695" y="161" as="targetPoint" />
          </mxGeometry>
        </mxCell>
        <mxCell id="KCQ4XFGD0ZcYqRoLXp1U-4" value="Back-end" style="rounded=0;whiteSpace=wrap;html=1;strokeColor=none;" vertex="1" parent="v-xWoGNkuWQi2-wrLgr6-81">
          <mxGeometry x="529" y="134" width="104" height="24" as="geometry" />
        </mxCell>
        <mxCell id="KCQ4XFGD0ZcYqRoLXp1U-5" value="" style="endArrow=none;html=1;rounded=0;entryX=0.5;entryY=1;entryDx=0;entryDy=0;" edge="1" parent="v-xWoGNkuWQi2-wrLgr6-81" target="v-xWoGNkuWQi2-wrLgr6-15">
          <mxGeometry width="50" height="50" relative="1" as="geometry">
            <mxPoint x="464" y="1110" as="sourcePoint" />
            <mxPoint x="464" y="130" as="targetPoint" />
          </mxGeometry>
        </mxCell>
        <mxCell id="KCQ4XFGD0ZcYqRoLXp1U-8" style="edgeStyle=orthogonalEdgeStyle;rounded=0;orthogonalLoop=1;jettySize=auto;html=1;exitX=1;exitY=0.5;exitDx=0;exitDy=0;entryX=0.5;entryY=0;entryDx=0;entryDy=0;" edge="1" parent="v-xWoGNkuWQi2-wrLgr6-81" source="KCQ4XFGD0ZcYqRoLXp1U-6" target="KCQ4XFGD0ZcYqRoLXp1U-7">
          <mxGeometry relative="1" as="geometry" />
        </mxCell>
        <mxCell id="7vMeg80q9LHAkZB8NodJ-20" style="edgeStyle=orthogonalEdgeStyle;rounded=0;orthogonalLoop=1;jettySize=auto;html=1;exitX=0;exitY=0.5;exitDx=0;exitDy=0;entryX=0.5;entryY=0;entryDx=0;entryDy=0;" edge="1" parent="v-xWoGNkuWQi2-wrLgr6-81" source="KCQ4XFGD0ZcYqRoLXp1U-6" target="KCQ4XFGD0ZcYqRoLXp1U-9">
          <mxGeometry relative="1" as="geometry" />
        </mxCell>
        <mxCell id="KCQ4XFGD0ZcYqRoLXp1U-6" value="&lt;b&gt;START&lt;/b&gt;" style="rounded=0;whiteSpace=wrap;html=1;" vertex="1" parent="v-xWoGNkuWQi2-wrLgr6-81">
          <mxGeometry x="295" y="183" width="61" height="30" as="geometry" />
        </mxCell>
        <mxCell id="7vMeg80q9LHAkZB8NodJ-5" style="edgeStyle=orthogonalEdgeStyle;rounded=0;orthogonalLoop=1;jettySize=auto;html=1;exitX=0.5;exitY=1;exitDx=0;exitDy=0;" edge="1" parent="v-xWoGNkuWQi2-wrLgr6-81" source="KCQ4XFGD0ZcYqRoLXp1U-7" target="7vMeg80q9LHAkZB8NodJ-4">
          <mxGeometry relative="1" as="geometry" />
        </mxCell>
        <mxCell id="KCQ4XFGD0ZcYqRoLXp1U-7" value="Sau khi đăng nhập" style="rounded=0;whiteSpace=wrap;html=1;" vertex="1" parent="v-xWoGNkuWQi2-wrLgr6-81">
          <mxGeometry x="342" y="250" width="70" height="43" as="geometry" />
        </mxCell>
        <mxCell id="KCQ4XFGD0ZcYqRoLXp1U-12" style="edgeStyle=orthogonalEdgeStyle;rounded=0;orthogonalLoop=1;jettySize=auto;html=1;exitX=0.5;exitY=1;exitDx=0;exitDy=0;entryX=0.5;entryY=0;entryDx=0;entryDy=0;" edge="1" parent="v-xWoGNkuWQi2-wrLgr6-81" source="KCQ4XFGD0ZcYqRoLXp1U-9" target="KCQ4XFGD0ZcYqRoLXp1U-11">
          <mxGeometry relative="1" as="geometry" />
        </mxCell>
        <mxCell id="KCQ4XFGD0ZcYqRoLXp1U-9" value="Tải lại trang" style="rounded=0;whiteSpace=wrap;html=1;" vertex="1" parent="v-xWoGNkuWQi2-wrLgr6-81">
          <mxGeometry x="240.25" y="250.5" width="70.5" height="42.5" as="geometry" />
        </mxCell>
        <mxCell id="7vMeg80q9LHAkZB8NodJ-28" style="edgeStyle=orthogonalEdgeStyle;rounded=0;orthogonalLoop=1;jettySize=auto;html=1;exitX=0.5;exitY=1;exitDx=0;exitDy=0;entryX=0;entryY=0.5;entryDx=0;entryDy=0;" edge="1" parent="v-xWoGNkuWQi2-wrLgr6-81" source="KCQ4XFGD0ZcYqRoLXp1U-11" target="7vMeg80q9LHAkZB8NodJ-27">
          <mxGeometry relative="1" as="geometry" />
        </mxCell>
        <mxCell id="KCQ4XFGD0ZcYqRoLXp1U-11" value="Send request ajax to server over URL &quot;localhost://8080/bo/api/priv&lt;div&gt;lần lượt theo thứ tự các user typ01 được yêu cầu&lt;/div&gt;" style="rounded=0;whiteSpace=wrap;html=1;" vertex="1" parent="v-xWoGNkuWQi2-wrLgr6-81">
          <mxGeometry x="190" y="553" width="171" height="80" as="geometry" />
        </mxCell>
        <mxCell id="7vMeg80q9LHAkZB8NodJ-10" style="edgeStyle=orthogonalEdgeStyle;rounded=0;orthogonalLoop=1;jettySize=auto;html=1;exitX=1;exitY=0.5;exitDx=0;exitDy=0;entryX=0.5;entryY=0;entryDx=0;entryDy=0;" edge="1" parent="v-xWoGNkuWQi2-wrLgr6-81" source="7vMeg80q9LHAkZB8NodJ-1" target="7vMeg80q9LHAkZB8NodJ-7">
          <mxGeometry relative="1" as="geometry" />
        </mxCell>
        <mxCell id="7vMeg80q9LHAkZB8NodJ-11" value="&lt;font style=&quot;font-size: 11px;&quot;&gt;Hợp lệ&lt;/font&gt;" style="edgeLabel;html=1;align=center;verticalAlign=middle;resizable=0;points=[];" connectable="0" vertex="1" parent="7vMeg80q9LHAkZB8NodJ-10">
          <mxGeometry x="-0.7574" y="-1" relative="1" as="geometry">
            <mxPoint x="11" y="-12" as="offset" />
          </mxGeometry>
        </mxCell>
        <mxCell id="7vMeg80q9LHAkZB8NodJ-14" style="edgeStyle=orthogonalEdgeStyle;rounded=0;orthogonalLoop=1;jettySize=auto;html=1;exitX=0.25;exitY=1;exitDx=0;exitDy=0;" edge="1" parent="v-xWoGNkuWQi2-wrLgr6-81" source="7vMeg80q9LHAkZB8NodJ-1" target="7vMeg80q9LHAkZB8NodJ-13">
          <mxGeometry relative="1" as="geometry" />
        </mxCell>
        <mxCell id="7vMeg80q9LHAkZB8NodJ-15" value="Không hợp lệ" style="edgeLabel;html=1;align=center;verticalAlign=middle;resizable=0;points=[];" connectable="0" vertex="1" parent="7vMeg80q9LHAkZB8NodJ-14">
          <mxGeometry x="-0.1631" y="1" relative="1" as="geometry">
            <mxPoint x="38" as="offset" />
          </mxGeometry>
        </mxCell>
        <mxCell id="7vMeg80q9LHAkZB8NodJ-1" value="Kiểm tra thông tin" style="rounded=0;whiteSpace=wrap;html=1;" vertex="1" parent="v-xWoGNkuWQi2-wrLgr6-81">
          <mxGeometry x="535.5" y="339" width="91" height="43" as="geometry" />
        </mxCell>
        <mxCell id="7vMeg80q9LHAkZB8NodJ-6" style="edgeStyle=orthogonalEdgeStyle;rounded=0;orthogonalLoop=1;jettySize=auto;html=1;exitX=1;exitY=0.5;exitDx=0;exitDy=0;entryX=0;entryY=0.5;entryDx=0;entryDy=0;" edge="1" parent="v-xWoGNkuWQi2-wrLgr6-81" source="7vMeg80q9LHAkZB8NodJ-4" target="7vMeg80q9LHAkZB8NodJ-1">
          <mxGeometry relative="1" as="geometry" />
        </mxCell>
        <mxCell id="7vMeg80q9LHAkZB8NodJ-4" value="Gửi dữ liệu user về server để kiểm tra thông tin đăng nhập" style="rounded=0;whiteSpace=wrap;html=1;" vertex="1" parent="v-xWoGNkuWQi2-wrLgr6-81">
          <mxGeometry x="316.5" y="330" width="121" height="61" as="geometry" />
        </mxCell>
        <mxCell id="7vMeg80q9LHAkZB8NodJ-17" style="edgeStyle=orthogonalEdgeStyle;rounded=0;orthogonalLoop=1;jettySize=auto;html=1;exitX=0;exitY=0.5;exitDx=0;exitDy=0;" edge="1" parent="v-xWoGNkuWQi2-wrLgr6-81" source="7vMeg80q9LHAkZB8NodJ-7" target="7vMeg80q9LHAkZB8NodJ-16">
          <mxGeometry relative="1" as="geometry" />
        </mxCell>
        <mxCell id="7vMeg80q9LHAkZB8NodJ-7" value="Gửi status code và token về front-end" style="rounded=0;whiteSpace=wrap;html=1;" vertex="1" parent="v-xWoGNkuWQi2-wrLgr6-81">
          <mxGeometry x="620" y="453" width="94" height="60" as="geometry" />
        </mxCell>
        <mxCell id="7vMeg80q9LHAkZB8NodJ-22" style="edgeStyle=orthogonalEdgeStyle;rounded=0;orthogonalLoop=1;jettySize=auto;html=1;exitX=0;exitY=0.5;exitDx=0;exitDy=0;" edge="1" parent="v-xWoGNkuWQi2-wrLgr6-81" source="7vMeg80q9LHAkZB8NodJ-13" target="7vMeg80q9LHAkZB8NodJ-21">
          <mxGeometry relative="1" as="geometry" />
        </mxCell>
        <mxCell id="7vMeg80q9LHAkZB8NodJ-13" value="Gửi error code về front-end" style="rounded=0;whiteSpace=wrap;html=1;" vertex="1" parent="v-xWoGNkuWQi2-wrLgr6-81">
          <mxGeometry x="513" y="410" width="91" height="43" as="geometry" />
        </mxCell>
        <mxCell id="7vMeg80q9LHAkZB8NodJ-19" style="edgeStyle=orthogonalEdgeStyle;rounded=0;orthogonalLoop=1;jettySize=auto;html=1;exitX=0.5;exitY=1;exitDx=0;exitDy=0;entryX=0.5;entryY=0;entryDx=0;entryDy=0;" edge="1" parent="v-xWoGNkuWQi2-wrLgr6-81" source="7vMeg80q9LHAkZB8NodJ-16" target="KCQ4XFGD0ZcYqRoLXp1U-11">
          <mxGeometry relative="1" as="geometry" />
        </mxCell>
        <mxCell id="7vMeg80q9LHAkZB8NodJ-16" value="Nhận token, server code ổn định" style="rounded=0;whiteSpace=wrap;html=1;" vertex="1" parent="v-xWoGNkuWQi2-wrLgr6-81">
          <mxGeometry x="310" y="453" width="94" height="60" as="geometry" />
        </mxCell>
        <mxCell id="v-xWoGNkuWQi2-wrLgr6-12" style="edgeStyle=orthogonalEdgeStyle;rounded=0;orthogonalLoop=1;jettySize=auto;html=1;exitX=0.5;exitY=1;exitDx=0;exitDy=0;entryX=0;entryY=0.5;entryDx=0;entryDy=0;" edge="1" parent="v-xWoGNkuWQi2-wrLgr6-81" source="7vMeg80q9LHAkZB8NodJ-21" target="v-xWoGNkuWQi2-wrLgr6-10">
          <mxGeometry relative="1" as="geometry" />
        </mxCell>
        <mxCell id="7vMeg80q9LHAkZB8NodJ-21" value="Về lại trang đăng nhập" style="rounded=0;whiteSpace=wrap;html=1;" vertex="1" parent="v-xWoGNkuWQi2-wrLgr6-81">
          <mxGeometry x="50" y="410" width="91" height="43" as="geometry" />
        </mxCell>
        <mxCell id="cO8xQzGmWa9g65R7Fuws-2" style="edgeStyle=orthogonalEdgeStyle;rounded=0;orthogonalLoop=1;jettySize=auto;html=1;exitX=0.5;exitY=1;exitDx=0;exitDy=0;" edge="1" parent="v-xWoGNkuWQi2-wrLgr6-81" source="7vMeg80q9LHAkZB8NodJ-27" target="cO8xQzGmWa9g65R7Fuws-1">
          <mxGeometry relative="1" as="geometry" />
        </mxCell>
        <mxCell id="7vMeg80q9LHAkZB8NodJ-27" value="Tiếp nhận request và bắt đầu xử lý" style="rounded=0;whiteSpace=wrap;html=1;" vertex="1" parent="v-xWoGNkuWQi2-wrLgr6-81">
          <mxGeometry x="661" y="633" width="104.5" height="50" as="geometry" />
        </mxCell>
        <mxCell id="cO8xQzGmWa9g65R7Fuws-4" style="edgeStyle=orthogonalEdgeStyle;rounded=0;orthogonalLoop=1;jettySize=auto;html=1;exitX=1;exitY=1;exitDx=0;exitDy=0;" edge="1" parent="v-xWoGNkuWQi2-wrLgr6-81" source="cO8xQzGmWa9g65R7Fuws-1" target="cO8xQzGmWa9g65R7Fuws-3">
          <mxGeometry relative="1" as="geometry" />
        </mxCell>
        <mxCell id="cO8xQzGmWa9g65R7Fuws-5" value="danh sách role" style="edgeLabel;html=1;align=center;verticalAlign=middle;resizable=0;points=[];" connectable="0" vertex="1" parent="cO8xQzGmWa9g65R7Fuws-4">
          <mxGeometry x="0.0422" y="-1" relative="1" as="geometry">
            <mxPoint x="11" y="-15" as="offset" />
          </mxGeometry>
        </mxCell>
        <mxCell id="cO8xQzGmWa9g65R7Fuws-9" style="edgeStyle=orthogonalEdgeStyle;rounded=0;orthogonalLoop=1;jettySize=auto;html=1;exitX=0;exitY=1;exitDx=0;exitDy=0;" edge="1" parent="v-xWoGNkuWQi2-wrLgr6-81" source="cO8xQzGmWa9g65R7Fuws-1" target="cO8xQzGmWa9g65R7Fuws-8">
          <mxGeometry relative="1" as="geometry" />
        </mxCell>
        <mxCell id="cO8xQzGmWa9g65R7Fuws-10" value="Danh sách categories" style="edgeLabel;html=1;align=center;verticalAlign=middle;resizable=0;points=[];" connectable="0" vertex="1" parent="cO8xQzGmWa9g65R7Fuws-9">
          <mxGeometry x="-0.2258" relative="1" as="geometry">
            <mxPoint x="-88" y="-10" as="offset" />
          </mxGeometry>
        </mxCell>
        <mxCell id="cO8xQzGmWa9g65R7Fuws-14" style="edgeStyle=orthogonalEdgeStyle;rounded=0;orthogonalLoop=1;jettySize=auto;html=1;exitX=0.5;exitY=1;exitDx=0;exitDy=0;" edge="1" parent="v-xWoGNkuWQi2-wrLgr6-81" source="cO8xQzGmWa9g65R7Fuws-1" target="cO8xQzGmWa9g65R7Fuws-13">
          <mxGeometry relative="1" as="geometry" />
        </mxCell>
        <mxCell id="cO8xQzGmWa9g65R7Fuws-1" value="ServiceAPIPrivate.java" style="rounded=0;whiteSpace=wrap;html=1;" vertex="1" parent="v-xWoGNkuWQi2-wrLgr6-81">
          <mxGeometry x="633" y="710" width="160" height="50" as="geometry" />
        </mxCell>
        <mxCell id="cO8xQzGmWa9g65R7Fuws-7" style="edgeStyle=orthogonalEdgeStyle;rounded=0;orthogonalLoop=1;jettySize=auto;html=1;exitX=0.5;exitY=1;exitDx=0;exitDy=0;" edge="1" parent="v-xWoGNkuWQi2-wrLgr6-81" source="cO8xQzGmWa9g65R7Fuws-3" target="cO8xQzGmWa9g65R7Fuws-6">
          <mxGeometry relative="1" as="geometry" />
        </mxCell>
        <mxCell id="cO8xQzGmWa9g65R7Fuws-3" value="&lt;div style=&quot;line-height: 18px; white-space: pre;&quot;&gt;&lt;span style=&quot;background-color: rgb(255, 255, 255);&quot;&gt;ServiceAutRole.java&lt;/span&gt;&lt;/div&gt;" style="rounded=0;whiteSpace=wrap;html=1;" vertex="1" parent="v-xWoGNkuWQi2-wrLgr6-81">
          <mxGeometry x="799" y="809.5" width="120" height="35" as="geometry" />
        </mxCell>
        <mxCell id="v-xWoGNkuWQi2-wrLgr6-6" style="edgeStyle=orthogonalEdgeStyle;rounded=0;orthogonalLoop=1;jettySize=auto;html=1;exitX=0.5;exitY=1;exitDx=0;exitDy=0;entryX=1;entryY=0.5;entryDx=0;entryDy=0;" edge="1" parent="v-xWoGNkuWQi2-wrLgr6-81" source="cO8xQzGmWa9g65R7Fuws-6" target="v-xWoGNkuWQi2-wrLgr6-1">
          <mxGeometry relative="1" as="geometry" />
        </mxCell>
        <mxCell id="cO8xQzGmWa9g65R7Fuws-6" value="&lt;div style=&quot;line-height: 18px; white-space: pre;&quot;&gt;&lt;div style=&quot;line-height: 18px;&quot;&gt;&lt;span style=&quot;background-color: rgb(255, 255, 255);&quot;&gt;&lt;font face=&quot;Helvetica&quot;&gt;doService() -&amp;gt; &lt;/font&gt;&lt;/span&gt;&lt;span style=&quot;background-color: rgb(255, 255, 255);&quot;&gt;&lt;font style=&quot;&quot; face=&quot;Helvetica&quot;&gt;doLst()&lt;/font&gt;&lt;/span&gt; &lt;/div&gt;&lt;/div&gt;" style="rounded=0;whiteSpace=wrap;html=1;" vertex="1" parent="v-xWoGNkuWQi2-wrLgr6-81">
          <mxGeometry x="793" y="869" width="130" height="41" as="geometry" />
        </mxCell>
        <mxCell id="cO8xQzGmWa9g65R7Fuws-12" style="edgeStyle=orthogonalEdgeStyle;rounded=0;orthogonalLoop=1;jettySize=auto;html=1;exitX=0.5;exitY=1;exitDx=0;exitDy=0;" edge="1" parent="v-xWoGNkuWQi2-wrLgr6-81" source="cO8xQzGmWa9g65R7Fuws-8" target="cO8xQzGmWa9g65R7Fuws-11">
          <mxGeometry relative="1" as="geometry" />
        </mxCell>
        <mxCell id="cO8xQzGmWa9g65R7Fuws-8" value="&lt;div style=&quot;line-height: 18px; white-space: pre;&quot;&gt;&lt;span style=&quot;background-color: rgb(255, 255, 255);&quot;&gt;&lt;font face=&quot;Helvetica&quot;&gt;ServiceTpyCategory.java&lt;/font&gt;&lt;/span&gt;&lt;/div&gt;" style="rounded=0;whiteSpace=wrap;html=1;" vertex="1" parent="v-xWoGNkuWQi2-wrLgr6-81">
          <mxGeometry x="483.12" y="800" width="139.88" height="39" as="geometry" />
        </mxCell>
        <mxCell id="v-xWoGNkuWQi2-wrLgr6-8" style="edgeStyle=orthogonalEdgeStyle;rounded=0;orthogonalLoop=1;jettySize=auto;html=1;exitX=0.5;exitY=1;exitDx=0;exitDy=0;entryX=1;entryY=0.5;entryDx=0;entryDy=0;" edge="1" parent="v-xWoGNkuWQi2-wrLgr6-81" source="cO8xQzGmWa9g65R7Fuws-11" target="v-xWoGNkuWQi2-wrLgr6-1">
          <mxGeometry relative="1" as="geometry" />
        </mxCell>
        <mxCell id="cO8xQzGmWa9g65R7Fuws-11" value="&lt;span style=&quot;white-space: pre;&quot;&gt;doService() -&amp;gt; &lt;/span&gt;&lt;span style=&quot;padding: 0px 0px 0px 2px;&quot;&gt;&lt;span style=&quot;white-space: pre;&quot;&gt;&lt;span style=&quot;font-style: italic; background-color: rgb(255, 255, 255);&quot;&gt;&lt;font style=&quot;font-size: 12px;&quot; face=&quot;Helvetica&quot;&gt;doLstSearch&lt;/font&gt;&lt;/span&gt;&lt;/span&gt;&lt;/span&gt;&lt;span style=&quot;white-space: pre;&quot;&gt;()&lt;/span&gt;&lt;span style=&quot;white-space: pre;&quot;&gt; &lt;/span&gt;" style="rounded=0;whiteSpace=wrap;html=1;" vertex="1" parent="v-xWoGNkuWQi2-wrLgr6-81">
          <mxGeometry x="471.56" y="869" width="163" height="38" as="geometry" />
        </mxCell>
        <mxCell id="cO8xQzGmWa9g65R7Fuws-16" style="edgeStyle=orthogonalEdgeStyle;rounded=0;orthogonalLoop=1;jettySize=auto;html=1;exitX=0.5;exitY=1;exitDx=0;exitDy=0;" edge="1" parent="v-xWoGNkuWQi2-wrLgr6-81" source="cO8xQzGmWa9g65R7Fuws-13" target="cO8xQzGmWa9g65R7Fuws-15">
          <mxGeometry relative="1" as="geometry" />
        </mxCell>
        <mxCell id="cO8xQzGmWa9g65R7Fuws-13" value="ServiceAutUser2.java" style="rounded=0;whiteSpace=wrap;html=1;" vertex="1" parent="v-xWoGNkuWQi2-wrLgr6-81">
          <mxGeometry x="644.75" y="794.5" width="137" height="35.5" as="geometry" />
        </mxCell>
        <mxCell id="v-xWoGNkuWQi2-wrLgr6-7" style="edgeStyle=orthogonalEdgeStyle;rounded=0;orthogonalLoop=1;jettySize=auto;html=1;exitX=0.5;exitY=1;exitDx=0;exitDy=0;entryX=1;entryY=0.5;entryDx=0;entryDy=0;" edge="1" parent="v-xWoGNkuWQi2-wrLgr6-81" source="cO8xQzGmWa9g65R7Fuws-15" target="v-xWoGNkuWQi2-wrLgr6-1">
          <mxGeometry relative="1" as="geometry" />
        </mxCell>
        <mxCell id="v-xWoGNkuWQi2-wrLgr6-9" value="&lt;font style=&quot;font-size: 13px;&quot;&gt;Trả dữ liệu về&lt;/font&gt;" style="edgeLabel;html=1;align=center;verticalAlign=middle;resizable=0;points=[];" vertex="1" connectable="0" parent="v-xWoGNkuWQi2-wrLgr6-7">
          <mxGeometry x="0.3254" y="1" relative="1" as="geometry">
            <mxPoint x="-76" y="14" as="offset" />
          </mxGeometry>
        </mxCell>
        <mxCell id="cO8xQzGmWa9g65R7Fuws-15" value="ServiceAutUser2.java" style="rounded=0;whiteSpace=wrap;html=1;" vertex="1" parent="v-xWoGNkuWQi2-wrLgr6-81">
          <mxGeometry x="644.75" y="869" width="137" height="35.5" as="geometry" />
        </mxCell>
        <mxCell id="v-xWoGNkuWQi2-wrLgr6-11" style="edgeStyle=orthogonalEdgeStyle;rounded=0;orthogonalLoop=1;jettySize=auto;html=1;exitX=0.5;exitY=1;exitDx=0;exitDy=0;" edge="1" parent="v-xWoGNkuWQi2-wrLgr6-81" source="v-xWoGNkuWQi2-wrLgr6-1" target="v-xWoGNkuWQi2-wrLgr6-10">
          <mxGeometry relative="1" as="geometry" />
        </mxCell>
        <mxCell id="v-xWoGNkuWQi2-wrLgr6-1" value="&lt;span style=&quot;white-space: pre; font-size: 13px;&quot;&gt;&lt;font style=&quot;font-size: 13px;&quot;&gt;Nhận dữ liệu từ API, &lt;/font&gt;&lt;/span&gt;&lt;div style=&quot;font-size: 13px;&quot;&gt;&lt;span style=&quot;white-space: pre;&quot;&gt;&lt;font style=&quot;font-size: 13px;&quot;&gt;sau đó thực hiện init dữ liệu ra view&lt;/font&gt;&lt;/span&gt;&lt;/div&gt;" style="rounded=0;whiteSpace=wrap;html=1;" vertex="1" parent="v-xWoGNkuWQi2-wrLgr6-81">
          <mxGeometry x="129.5" y="907" width="226.5" height="70" as="geometry" />
        </mxCell>
        <mxCell id="v-xWoGNkuWQi2-wrLgr6-10" value="&lt;span style=&quot;font-size: 13px; white-space: pre;&quot;&gt;&lt;b&gt;END&lt;/b&gt;&lt;/span&gt;" style="rounded=0;whiteSpace=wrap;html=1;" vertex="1" parent="v-xWoGNkuWQi2-wrLgr6-81">
          <mxGeometry x="206.25" y="1020" width="73" height="40" as="geometry" />
        </mxCell>
        <mxCell id="v-xWoGNkuWQi2-wrLgr6-15" value="Luồng chính giao diện" style="rounded=0;whiteSpace=wrap;html=1;" vertex="1" parent="v-xWoGNkuWQi2-wrLgr6-81">
          <mxGeometry x="233" y="50" width="460" height="60" as="geometry" />
        </mxCell>
        <mxCell id="MfE0cGZa_u_oP_6wORAc-109" value="" style="group" connectable="0" vertex="1" parent="1">
          <mxGeometry x="-190" y="860" width="1450" height="2070" as="geometry" />
        </mxCell>
        <mxCell id="MfE0cGZa_u_oP_6wORAc-106" value="" style="rounded=0;whiteSpace=wrap;html=1;" vertex="1" parent="MfE0cGZa_u_oP_6wORAc-109">
          <mxGeometry width="1450" height="2070" as="geometry" />
        </mxCell>
        <mxCell id="MfE0cGZa_u_oP_6wORAc-53" value="Luồng thêm user mới bằng hàm doNew()" style="rounded=0;whiteSpace=wrap;html=1;" vertex="1" parent="MfE0cGZa_u_oP_6wORAc-109">
          <mxGeometry x="196" y="10" width="660" height="60" as="geometry" />
        </mxCell>
        <mxCell id="MfE0cGZa_u_oP_6wORAc-54" value="" style="endArrow=none;html=1;rounded=0;entryX=0.5;entryY=1;entryDx=0;entryDy=0;" edge="1" parent="MfE0cGZa_u_oP_6wORAc-109" target="MfE0cGZa_u_oP_6wORAc-53">
          <mxGeometry width="50" height="50" relative="1" as="geometry">
            <mxPoint x="526" y="1980" as="sourcePoint" />
            <mxPoint x="610" y="330" as="targetPoint" />
          </mxGeometry>
        </mxCell>
        <mxCell id="MfE0cGZa_u_oP_6wORAc-55" value="Front-end" style="rounded=0;whiteSpace=wrap;html=1;strokeColor=none;" vertex="1" parent="MfE0cGZa_u_oP_6wORAc-109">
          <mxGeometry x="290" y="90" width="120" height="30" as="geometry" />
        </mxCell>
        <mxCell id="MfE0cGZa_u_oP_6wORAc-56" value="Back-end" style="rounded=0;whiteSpace=wrap;html=1;strokeColor=none;" vertex="1" parent="MfE0cGZa_u_oP_6wORAc-109">
          <mxGeometry x="650" y="90" width="120" height="30" as="geometry" />
        </mxCell>
        <mxCell id="MfE0cGZa_u_oP_6wORAc-60" style="edgeStyle=orthogonalEdgeStyle;rounded=0;orthogonalLoop=1;jettySize=auto;html=1;exitX=0.5;exitY=1;exitDx=0;exitDy=0;" edge="1" parent="MfE0cGZa_u_oP_6wORAc-109" source="MfE0cGZa_u_oP_6wORAc-57" target="MfE0cGZa_u_oP_6wORAc-59">
          <mxGeometry relative="1" as="geometry" />
        </mxCell>
        <mxCell id="MfE0cGZa_u_oP_6wORAc-57" value="&lt;b&gt;START&lt;/b&gt;" style="rounded=0;whiteSpace=wrap;html=1;" vertex="1" parent="MfE0cGZa_u_oP_6wORAc-109">
          <mxGeometry x="320" y="170" width="60" height="30" as="geometry" />
        </mxCell>
        <mxCell id="MfE0cGZa_u_oP_6wORAc-58" value="" style="endArrow=none;html=1;rounded=0;" edge="1" parent="MfE0cGZa_u_oP_6wORAc-109">
          <mxGeometry width="50" height="50" relative="1" as="geometry">
            <mxPoint x="190" y="140" as="sourcePoint" />
            <mxPoint x="850" y="140" as="targetPoint" />
          </mxGeometry>
        </mxCell>
        <mxCell id="MfE0cGZa_u_oP_6wORAc-62" style="edgeStyle=orthogonalEdgeStyle;rounded=0;orthogonalLoop=1;jettySize=auto;html=1;exitX=0.5;exitY=1;exitDx=0;exitDy=0;" edge="1" parent="MfE0cGZa_u_oP_6wORAc-109" source="MfE0cGZa_u_oP_6wORAc-59" target="MfE0cGZa_u_oP_6wORAc-61">
          <mxGeometry relative="1" as="geometry" />
        </mxCell>
        <mxCell id="MfE0cGZa_u_oP_6wORAc-59" value="Chọn nút thêm (dấu cộng)" style="rounded=0;whiteSpace=wrap;html=1;" vertex="1" parent="MfE0cGZa_u_oP_6wORAc-109">
          <mxGeometry x="275" y="230" width="150" height="30" as="geometry" />
        </mxCell>
        <mxCell id="MfE0cGZa_u_oP_6wORAc-64" style="edgeStyle=orthogonalEdgeStyle;rounded=0;orthogonalLoop=1;jettySize=auto;html=1;exitX=0.5;exitY=1;exitDx=0;exitDy=0;" edge="1" parent="MfE0cGZa_u_oP_6wORAc-109" source="MfE0cGZa_u_oP_6wORAc-61" target="MfE0cGZa_u_oP_6wORAc-63">
          <mxGeometry relative="1" as="geometry" />
        </mxCell>
        <mxCell id="MfE0cGZa_u_oP_6wORAc-61" value="Tạo form để nhập thông tin user mới" style="rounded=0;whiteSpace=wrap;html=1;" vertex="1" parent="MfE0cGZa_u_oP_6wORAc-109">
          <mxGeometry x="275" y="280" width="150" height="55" as="geometry" />
        </mxCell>
        <mxCell id="MfE0cGZa_u_oP_6wORAc-72" style="edgeStyle=orthogonalEdgeStyle;rounded=0;orthogonalLoop=1;jettySize=auto;html=1;exitX=0.5;exitY=1;exitDx=0;exitDy=0;" edge="1" parent="MfE0cGZa_u_oP_6wORAc-109" source="MfE0cGZa_u_oP_6wORAc-63" target="MfE0cGZa_u_oP_6wORAc-71">
          <mxGeometry relative="1" as="geometry" />
        </mxCell>
        <mxCell id="MfE0cGZa_u_oP_6wORAc-63" value="&lt;div&gt;&lt;font style=&quot;font-size: 13px;&quot;&gt;Hoàn thành nhập thông tin user mới, bấm nút lưu&lt;/font&gt;&lt;/div&gt;" style="rounded=0;whiteSpace=wrap;html=1;" vertex="1" parent="MfE0cGZa_u_oP_6wORAc-109">
          <mxGeometry x="250.88" y="370" width="198.25" height="50" as="geometry" />
        </mxCell>
        <mxCell id="MfE0cGZa_u_oP_6wORAc-76" style="edgeStyle=orthogonalEdgeStyle;rounded=0;orthogonalLoop=1;jettySize=auto;html=1;exitX=0.5;exitY=1;exitDx=0;exitDy=0;" edge="1" parent="MfE0cGZa_u_oP_6wORAc-109" source="MfE0cGZa_u_oP_6wORAc-71" target="MfE0cGZa_u_oP_6wORAc-75">
          <mxGeometry relative="1" as="geometry" />
        </mxCell>
        <mxCell id="MfE0cGZa_u_oP_6wORAc-77" style="edgeStyle=orthogonalEdgeStyle;rounded=0;orthogonalLoop=1;jettySize=auto;html=1;exitX=0.5;exitY=1;exitDx=0;exitDy=0;entryX=0.5;entryY=0;entryDx=0;entryDy=0;" edge="1" parent="MfE0cGZa_u_oP_6wORAc-109" source="MfE0cGZa_u_oP_6wORAc-71" target="MfE0cGZa_u_oP_6wORAc-73">
          <mxGeometry relative="1" as="geometry">
            <Array as="points">
              <mxPoint x="350" y="570" />
              <mxPoint x="190" y="570" />
            </Array>
          </mxGeometry>
        </mxCell>
        <mxCell id="MfE0cGZa_u_oP_6wORAc-71" value="&lt;div&gt;&lt;font style=&quot;font-size: 13px;&quot;&gt;Hiển thị thông báo :&lt;br&gt;1: Lưu và thoát&lt;/font&gt;&lt;/div&gt;&lt;div&gt;&lt;font style=&quot;font-size: 13px;&quot;&gt;2: Lưu và tiếp tục chỉnh sửa&lt;/font&gt;&lt;/div&gt;" style="rounded=0;whiteSpace=wrap;html=1;" vertex="1" parent="MfE0cGZa_u_oP_6wORAc-109">
          <mxGeometry x="230.94" y="465" width="238.12" height="75" as="geometry" />
        </mxCell>
        <mxCell id="MfE0cGZa_u_oP_6wORAc-80" style="edgeStyle=orthogonalEdgeStyle;rounded=0;orthogonalLoop=1;jettySize=auto;html=1;exitX=1;exitY=0.5;exitDx=0;exitDy=0;entryX=0;entryY=0.5;entryDx=0;entryDy=0;" edge="1" parent="MfE0cGZa_u_oP_6wORAc-109" source="MfE0cGZa_u_oP_6wORAc-73" target="MfE0cGZa_u_oP_6wORAc-78">
          <mxGeometry relative="1" as="geometry" />
        </mxCell>
        <mxCell id="MfE0cGZa_u_oP_6wORAc-73" value="&lt;div style=&quot;font-size: 14px;&quot;&gt;&lt;div&gt;&lt;span style=&quot;&quot;&gt;Chọn lưu và thoát thì bắt đầu gửi dữ liệu qua URL:&amp;nbsp;&lt;b&gt;http://localhost:8080/bo/api/priv&lt;/b&gt;&lt;/span&gt;&lt;br&gt;&lt;/div&gt;&lt;div&gt;&lt;span style=&quot;&quot;&gt;với yêu cầu :&lt;/span&gt;&lt;/div&gt;&lt;div&gt;&lt;span style=&quot;&quot;&gt;&lt;b&gt;lock : 0&lt;/b&gt;&lt;/span&gt;&lt;/div&gt;&lt;div&gt;&lt;span style=&quot;&quot;&gt;&lt;b&gt;sv_class:&quot;ServiceAutUser&quot;&lt;/b&gt;&lt;/span&gt;&lt;/div&gt;&lt;div&gt;&lt;span style=&quot;&quot;&gt;&lt;b&gt;sv_name:&quot;SVNew&quot;&lt;/b&gt;&lt;/span&gt;&lt;/div&gt;&lt;/div&gt;" style="rounded=0;whiteSpace=wrap;html=1;" vertex="1" parent="MfE0cGZa_u_oP_6wORAc-109">
          <mxGeometry x="40" y="760" width="300" height="140" as="geometry" />
        </mxCell>
        <mxCell id="MfE0cGZa_u_oP_6wORAc-79" style="edgeStyle=orthogonalEdgeStyle;rounded=0;orthogonalLoop=1;jettySize=auto;html=1;exitX=1;exitY=0.5;exitDx=0;exitDy=0;entryX=0;entryY=0.5;entryDx=0;entryDy=0;" edge="1" parent="MfE0cGZa_u_oP_6wORAc-109" source="MfE0cGZa_u_oP_6wORAc-75" target="MfE0cGZa_u_oP_6wORAc-78">
          <mxGeometry relative="1" as="geometry" />
        </mxCell>
        <mxCell id="MfE0cGZa_u_oP_6wORAc-75" value="&lt;div style=&quot;font-size: 14px;&quot;&gt;&lt;font style=&quot;font-size: 14px;&quot;&gt;Chọn lưu và tiếp tục thì bắt đầu gửi dữ liệu qua URL: &lt;b style=&quot;&quot;&gt;http://localhost:8080/bo/api/priv&lt;/b&gt;&lt;br&gt;&lt;/font&gt;&lt;/div&gt;&lt;div style=&quot;font-size: 14px;&quot;&gt;&lt;font style=&quot;font-size: 14px;&quot;&gt;với yêu cầu :&lt;/font&gt;&lt;/div&gt;&lt;div style=&quot;font-size: 14px;&quot;&gt;&lt;b&gt;&lt;font style=&quot;font-size: 14px;&quot;&gt;lock : 1&lt;/font&gt;&lt;/b&gt;&lt;/div&gt;&lt;div style=&quot;font-size: 14px;&quot;&gt;&lt;b&gt;&lt;font style=&quot;font-size: 14px;&quot;&gt;sv_class:&quot;ServiceAutUser&quot;&lt;/font&gt;&lt;/b&gt;&lt;/div&gt;&lt;div style=&quot;font-size: 14px;&quot;&gt;&lt;b style=&quot;&quot;&gt;&lt;font style=&quot;font-size: 14px;&quot;&gt;sv_name:&quot;SVNew&quot;&lt;/font&gt;&lt;/b&gt;&lt;br&gt;&lt;/div&gt;" style="rounded=0;whiteSpace=wrap;html=1;" vertex="1" parent="MfE0cGZa_u_oP_6wORAc-109">
          <mxGeometry x="230" y="600" width="290" height="140" as="geometry" />
        </mxCell>
        <mxCell id="MfE0cGZa_u_oP_6wORAc-82" style="edgeStyle=orthogonalEdgeStyle;rounded=0;orthogonalLoop=1;jettySize=auto;html=1;exitX=0.5;exitY=1;exitDx=0;exitDy=0;" edge="1" parent="MfE0cGZa_u_oP_6wORAc-109" source="MfE0cGZa_u_oP_6wORAc-78" target="MfE0cGZa_u_oP_6wORAc-81">
          <mxGeometry relative="1" as="geometry" />
        </mxCell>
        <mxCell id="MfE0cGZa_u_oP_6wORAc-78" value="&lt;div style=&quot;font-size: 14px;&quot;&gt;Nhận request trong class ServiceAPIPrivate, với hàm doGet()-&amp;gt; API.doService()&lt;/div&gt;" style="rounded=0;whiteSpace=wrap;html=1;" vertex="1" parent="MfE0cGZa_u_oP_6wORAc-109">
          <mxGeometry x="610" y="800" width="200" height="60" as="geometry" />
        </mxCell>
        <mxCell id="MfE0cGZa_u_oP_6wORAc-84" style="edgeStyle=orthogonalEdgeStyle;rounded=0;orthogonalLoop=1;jettySize=auto;html=1;exitX=0.5;exitY=1;exitDx=0;exitDy=0;" edge="1" parent="MfE0cGZa_u_oP_6wORAc-109" source="MfE0cGZa_u_oP_6wORAc-81" target="MfE0cGZa_u_oP_6wORAc-83">
          <mxGeometry relative="1" as="geometry" />
        </mxCell>
        <mxCell id="MfE0cGZa_u_oP_6wORAc-81" value="&lt;div style=&quot;&quot;&gt;&lt;span style=&quot;font-size: 14px;&quot;&gt;Thực hiện hàm doService() trong class&amp;nbsp;&lt;/span&gt;&lt;span style=&quot;background-color: initial; font-size: 14px;&quot;&gt;ServiceAutUser2&lt;/span&gt;&lt;br&gt;&lt;/div&gt;" style="rounded=0;whiteSpace=wrap;html=1;" vertex="1" parent="MfE0cGZa_u_oP_6wORAc-109">
          <mxGeometry x="610" y="900" width="200" height="60" as="geometry" />
        </mxCell>
        <mxCell id="MfE0cGZa_u_oP_6wORAc-86" style="edgeStyle=orthogonalEdgeStyle;rounded=0;orthogonalLoop=1;jettySize=auto;html=1;exitX=0.5;exitY=1;exitDx=0;exitDy=0;" edge="1" parent="MfE0cGZa_u_oP_6wORAc-109" source="MfE0cGZa_u_oP_6wORAc-83" target="MfE0cGZa_u_oP_6wORAc-85">
          <mxGeometry relative="1" as="geometry" />
        </mxCell>
        <mxCell id="MfE0cGZa_u_oP_6wORAc-83" value="&lt;div style=&quot;&quot;&gt;&lt;span style=&quot;font-size: 14px;&quot;&gt;Sau đó thực hiện truy suất dữ liệu trong json data nhận được, lấy dữ liệu sv_name và user&lt;/span&gt;&lt;/div&gt;" style="rounded=0;whiteSpace=wrap;html=1;" vertex="1" parent="MfE0cGZa_u_oP_6wORAc-109">
          <mxGeometry x="610" y="990" width="200" height="80" as="geometry" />
        </mxCell>
        <mxCell id="MfE0cGZa_u_oP_6wORAc-88" style="edgeStyle=orthogonalEdgeStyle;rounded=0;orthogonalLoop=1;jettySize=auto;html=1;exitX=1;exitY=0.5;exitDx=0;exitDy=0;" edge="1" parent="MfE0cGZa_u_oP_6wORAc-109" source="MfE0cGZa_u_oP_6wORAc-85" target="MfE0cGZa_u_oP_6wORAc-87">
          <mxGeometry relative="1" as="geometry" />
        </mxCell>
        <mxCell id="MfE0cGZa_u_oP_6wORAc-85" value="&lt;div style=&quot;&quot;&gt;&lt;span style=&quot;font-size: 14px;&quot;&gt;Ở đây sv_name = SVNew&lt;/span&gt;&lt;/div&gt;&lt;div style=&quot;&quot;&gt;&lt;span style=&quot;font-size: 14px;&quot;&gt;=&amp;gt; thực hiện hàm doNew()&lt;/span&gt;&lt;br&gt;&lt;/div&gt;" style="rounded=0;whiteSpace=wrap;html=1;" vertex="1" parent="MfE0cGZa_u_oP_6wORAc-109">
          <mxGeometry x="610" y="1090" width="200" height="80" as="geometry" />
        </mxCell>
        <mxCell id="MfE0cGZa_u_oP_6wORAc-90" style="edgeStyle=orthogonalEdgeStyle;rounded=0;orthogonalLoop=1;jettySize=auto;html=1;exitX=0.5;exitY=1;exitDx=0;exitDy=0;" edge="1" parent="MfE0cGZa_u_oP_6wORAc-109" source="MfE0cGZa_u_oP_6wORAc-87" target="MfE0cGZa_u_oP_6wORAc-89">
          <mxGeometry relative="1" as="geometry" />
        </mxCell>
        <mxCell id="MfE0cGZa_u_oP_6wORAc-87" value="&lt;div style=&quot;&quot;&gt;&lt;span style=&quot;font-size: 14px;&quot;&gt;Thực hiện thêm mới user vào database bằng hàm reqNew() và trả về 1 đối tượng TaAutUser&lt;/span&gt;&lt;br&gt;&lt;/div&gt;" style="rounded=0;whiteSpace=wrap;html=1;" vertex="1" parent="MfE0cGZa_u_oP_6wORAc-109">
          <mxGeometry x="920" y="1090" width="200" height="80" as="geometry" />
        </mxCell>
        <mxCell id="MfE0cGZa_u_oP_6wORAc-92" style="edgeStyle=orthogonalEdgeStyle;rounded=0;orthogonalLoop=1;jettySize=auto;html=1;exitX=0.5;exitY=1;exitDx=0;exitDy=0;" edge="1" parent="MfE0cGZa_u_oP_6wORAc-109" source="MfE0cGZa_u_oP_6wORAc-89" target="MfE0cGZa_u_oP_6wORAc-91">
          <mxGeometry relative="1" as="geometry" />
        </mxCell>
        <mxCell id="MfE0cGZa_u_oP_6wORAc-94" style="edgeStyle=orthogonalEdgeStyle;rounded=0;orthogonalLoop=1;jettySize=auto;html=1;exitX=0.5;exitY=1;exitDx=0;exitDy=0;" edge="1" parent="MfE0cGZa_u_oP_6wORAc-109" source="MfE0cGZa_u_oP_6wORAc-89" target="MfE0cGZa_u_oP_6wORAc-93">
          <mxGeometry relative="1" as="geometry" />
        </mxCell>
        <mxCell id="MfE0cGZa_u_oP_6wORAc-101" style="edgeStyle=orthogonalEdgeStyle;rounded=0;orthogonalLoop=1;jettySize=auto;html=1;exitX=1;exitY=0.5;exitDx=0;exitDy=0;" edge="1" parent="MfE0cGZa_u_oP_6wORAc-109" source="MfE0cGZa_u_oP_6wORAc-89" target="MfE0cGZa_u_oP_6wORAc-100">
          <mxGeometry relative="1" as="geometry" />
        </mxCell>
        <mxCell id="MfE0cGZa_u_oP_6wORAc-89" value="&lt;div style=&quot;&quot;&gt;&lt;font style=&quot;font-size: 14px;&quot;&gt;Sau khi thêm thành công thì bước tiếp theo sẽ thực hiện lock bằng đối tượng ToolDBLock với phương thức reqLock()&lt;/font&gt;&lt;br&gt;&lt;/div&gt;" style="rounded=0;whiteSpace=wrap;html=1;" vertex="1" parent="MfE0cGZa_u_oP_6wORAc-109">
          <mxGeometry x="915" y="1220" width="210" height="100" as="geometry" />
        </mxCell>
        <mxCell id="MfE0cGZa_u_oP_6wORAc-99" style="edgeStyle=orthogonalEdgeStyle;rounded=0;orthogonalLoop=1;jettySize=auto;html=1;exitX=0.5;exitY=1;exitDx=0;exitDy=0;entryX=1;entryY=0.5;entryDx=0;entryDy=0;" edge="1" parent="MfE0cGZa_u_oP_6wORAc-109" source="MfE0cGZa_u_oP_6wORAc-91" target="MfE0cGZa_u_oP_6wORAc-98">
          <mxGeometry relative="1" as="geometry" />
        </mxCell>
        <mxCell id="MfE0cGZa_u_oP_6wORAc-105" value="&lt;span style=&quot;font-size: 14px;&quot;&gt;Response về front-end&lt;/span&gt;" style="edgeLabel;html=1;align=center;verticalAlign=middle;resizable=0;points=[];" connectable="0" vertex="1" parent="MfE0cGZa_u_oP_6wORAc-99">
          <mxGeometry x="0.3341" y="4" relative="1" as="geometry">
            <mxPoint x="-3" y="-31" as="offset" />
          </mxGeometry>
        </mxCell>
        <mxCell id="MfE0cGZa_u_oP_6wORAc-91" value="&lt;div style=&quot;&quot;&gt;&lt;font style=&quot;font-size: 14px;&quot;&gt;Nếu lock = 1 (không thực hiện lock trong csdl) thì ToolDBLock.reqLock() trả về null, và thực hiện build response&amp;nbsp;&lt;/font&gt;&lt;/div&gt;&lt;div style=&quot;&quot;&gt;&lt;font style=&quot;font-size: 14px;&quot;&gt;lock :&amp;nbsp;&lt;/font&gt;&lt;/div&gt;&lt;div style=&quot;text-align: left;&quot;&gt;&lt;font style=&quot;font-size: 14px;&quot;&gt;{&lt;/font&gt;&lt;/div&gt;&lt;div style=&quot;text-align: left;&quot;&gt;&lt;span style=&quot;font-size: 14px; background-color: initial;&quot;&gt;&lt;span style=&quot;white-space: pre;&quot;&gt;&#x9;&lt;/span&gt;&amp;nbsp; &amp;nbsp;uId: 1,&lt;/span&gt;&lt;/div&gt;&lt;blockquote style=&quot;margin: 0 0 0 40px; border: none; padding: 0px;&quot;&gt;&lt;div style=&quot;text-align: left;&quot;&gt;&lt;font style=&quot;font-size: 14px;&quot;&gt;stat: 1,&lt;/font&gt;&lt;/div&gt;&lt;div style=&quot;text-align: left;&quot;&gt;&lt;font style=&quot;font-size: 14px;&quot;&gt;&amp;nbsp;v01: 1000,&lt;/font&gt;&lt;/div&gt;&lt;div style=&quot;text-align: left;&quot;&gt;&lt;font style=&quot;font-size: 14px;&quot;&gt;&amp;nbsp;v02: 24,&lt;/font&gt;&lt;/div&gt;&lt;div style=&quot;text-align: left;&quot;&gt;&lt;font style=&quot;font-size: 14px;&quot;&gt;&amp;nbsp;id: 79,&lt;/font&gt;&lt;/div&gt;&lt;div style=&quot;text-align: left;&quot;&gt;&lt;font style=&quot;font-size: 14px;&quot;&gt;&amp;nbsp;dt01: &quot;2024-04-13 18:27:11&quot;&lt;/font&gt;&lt;/div&gt;&lt;/blockquote&gt;&lt;div style=&quot;text-align: left;&quot;&gt;&lt;font style=&quot;font-size: 14px;&quot;&gt;}&amp;nbsp;&lt;/font&gt;&lt;/div&gt;&lt;div style=&quot;text-align: left;&quot;&gt;&lt;font style=&quot;font-size: 14px;&quot;&gt;res_data :&amp;nbsp;&lt;/font&gt;&lt;/div&gt;&lt;div style=&quot;text-align: left;&quot;&gt;&lt;font style=&quot;font-size: 14px;&quot;&gt;{&lt;/font&gt;&lt;/div&gt;&lt;div style=&quot;text-align: left;&quot;&gt;&lt;font style=&quot;font-size: 14px;&quot;&gt;&lt;span style=&quot;white-space: pre;&quot;&gt;&#x9;&lt;/span&gt;stat: 1,&lt;/font&gt;&lt;/div&gt;&lt;div style=&quot;text-align: left;&quot;&gt;&lt;font style=&quot;font-size: 14px;&quot;&gt;&lt;span style=&quot;white-space: pre;&quot;&gt;&#x9;&lt;/span&gt;&amp;nbsp;uId01: 1,…&lt;/font&gt;&lt;/div&gt;&lt;div style=&quot;text-align: left;&quot;&gt;&lt;font style=&quot;font-size: 14px;&quot;&gt;}&lt;/font&gt;&lt;/div&gt;&lt;div style=&quot;text-align: left;&quot;&gt;&lt;font style=&quot;font-size: 14px;&quot;&gt;sess_stat : 1&lt;/font&gt;&lt;/div&gt;&lt;div style=&quot;text-align: left;&quot;&gt;&lt;font style=&quot;font-size: 14px;&quot;&gt;&amp;nbsp;sv_code : 20000&lt;/font&gt;&lt;br&gt;&lt;/div&gt;" style="rounded=0;whiteSpace=wrap;html=1;" vertex="1" parent="MfE0cGZa_u_oP_6wORAc-109">
          <mxGeometry x="1020" y="1380" width="230" height="370" as="geometry" />
        </mxCell>
        <mxCell id="MfE0cGZa_u_oP_6wORAc-96" style="edgeStyle=orthogonalEdgeStyle;rounded=0;orthogonalLoop=1;jettySize=auto;html=1;exitX=0.5;exitY=1;exitDx=0;exitDy=0;" edge="1" parent="MfE0cGZa_u_oP_6wORAc-109" source="MfE0cGZa_u_oP_6wORAc-93" target="MfE0cGZa_u_oP_6wORAc-95">
          <mxGeometry relative="1" as="geometry" />
        </mxCell>
        <mxCell id="MfE0cGZa_u_oP_6wORAc-97" value="&lt;font style=&quot;font-size: 14px;&quot;&gt;Response về front-end&lt;/font&gt;" style="edgeLabel;html=1;align=center;verticalAlign=middle;resizable=0;points=[];" connectable="0" vertex="1" parent="MfE0cGZa_u_oP_6wORAc-96">
          <mxGeometry x="0.1549" y="5" relative="1" as="geometry">
            <mxPoint x="8" y="-20" as="offset" />
          </mxGeometry>
        </mxCell>
        <mxCell id="MfE0cGZa_u_oP_6wORAc-93" value="&lt;div style=&quot;&quot;&gt;&lt;div&gt;&lt;font style=&quot;font-size: 14px;&quot;&gt;Nếu lock = 1 (không thực hiện lock trong csdl) thì ToolDBLock.reqLock() trả về null, và thực hiện build response&lt;/font&gt;&lt;/div&gt;&lt;div&gt;&lt;font style=&quot;font-size: 14px;&quot;&gt;&amp;nbsp;&lt;/font&gt;&lt;/div&gt;&lt;div style=&quot;text-align: left;&quot;&gt;&lt;font style=&quot;font-size: 14px;&quot;&gt;lock : null&lt;/font&gt;&lt;/div&gt;&lt;div style=&quot;text-align: left;&quot;&gt;&lt;font style=&quot;font-size: 14px;&quot;&gt;res_data :&amp;nbsp;&lt;/font&gt;&lt;/div&gt;&lt;div style=&quot;text-align: left;&quot;&gt;&lt;font style=&quot;font-size: 14px;&quot;&gt;{&lt;/font&gt;&lt;/div&gt;&lt;div style=&quot;text-align: left;&quot;&gt;&lt;font style=&quot;font-size: 14px;&quot;&gt;&lt;span style=&quot;white-space: pre;&quot;&gt;&#x9;&lt;/span&gt;stat: 1,&lt;/font&gt;&lt;/div&gt;&lt;div style=&quot;text-align: left;&quot;&gt;&lt;font style=&quot;font-size: 14px;&quot;&gt;&lt;span style=&quot;white-space: pre;&quot;&gt;&#x9;&lt;/span&gt;&amp;nbsp;uId01: 1,…&lt;/font&gt;&lt;/div&gt;&lt;div style=&quot;text-align: left;&quot;&gt;&lt;font style=&quot;font-size: 14px;&quot;&gt;}&lt;/font&gt;&lt;/div&gt;&lt;div style=&quot;text-align: left;&quot;&gt;&lt;font style=&quot;font-size: 14px;&quot;&gt;sess_stat : 1&lt;/font&gt;&lt;/div&gt;&lt;div style=&quot;text-align: left;&quot;&gt;&lt;font style=&quot;font-size: 14px;&quot;&gt;&amp;nbsp;sv_code : 20000&lt;/font&gt;&lt;/div&gt;&lt;/div&gt;" style="rounded=0;whiteSpace=wrap;html=1;" vertex="1" parent="MfE0cGZa_u_oP_6wORAc-109">
          <mxGeometry x="790" y="1380" width="210" height="250" as="geometry" />
        </mxCell>
        <mxCell id="MfE0cGZa_u_oP_6wORAc-103" style="edgeStyle=orthogonalEdgeStyle;rounded=0;orthogonalLoop=1;jettySize=auto;html=1;exitX=0;exitY=0.5;exitDx=0;exitDy=0;entryX=0;entryY=0.5;entryDx=0;entryDy=0;" edge="1" parent="MfE0cGZa_u_oP_6wORAc-109" source="MfE0cGZa_u_oP_6wORAc-95" target="MfE0cGZa_u_oP_6wORAc-102">
          <mxGeometry relative="1" as="geometry" />
        </mxCell>
        <mxCell id="MfE0cGZa_u_oP_6wORAc-95" value="&lt;font style=&quot;font-size: 14px;&quot;&gt;Hiển thị thông báo lưu thành công và giao diện vẫn hiển thị form chỉnh sửa thông tin user(vì trước đó chọn lưu và tiếp tục chỉnh sửa)&lt;/font&gt;" style="rounded=0;whiteSpace=wrap;html=1;" vertex="1" parent="MfE0cGZa_u_oP_6wORAc-109">
          <mxGeometry x="230.94" y="1620" width="210" height="110" as="geometry" />
        </mxCell>
        <mxCell id="MfE0cGZa_u_oP_6wORAc-104" style="edgeStyle=orthogonalEdgeStyle;rounded=0;orthogonalLoop=1;jettySize=auto;html=1;exitX=0.5;exitY=1;exitDx=0;exitDy=0;entryX=0.5;entryY=0;entryDx=0;entryDy=0;" edge="1" parent="MfE0cGZa_u_oP_6wORAc-109" source="MfE0cGZa_u_oP_6wORAc-98" target="MfE0cGZa_u_oP_6wORAc-102">
          <mxGeometry relative="1" as="geometry" />
        </mxCell>
        <mxCell id="MfE0cGZa_u_oP_6wORAc-98" value="&lt;div style=&quot;&quot;&gt;&lt;span style=&quot;font-size: 14px;&quot;&gt;Hiển thị thông báo lưu thành công và giao diện sẽ hiển thị thông tin user dạng preview và không thể chỉnh sửa (vì trước đó chọn lưu và thoát&lt;/span&gt;&lt;br&gt;&lt;/div&gt;" style="rounded=0;whiteSpace=wrap;html=1;" vertex="1" parent="MfE0cGZa_u_oP_6wORAc-109">
          <mxGeometry x="280" y="1780" width="230" height="95" as="geometry" />
        </mxCell>
        <mxCell id="MfE0cGZa_u_oP_6wORAc-100" value="&lt;div style=&quot;&quot;&gt;&lt;span style=&quot;font-size: 14px;&quot;&gt;ToolDBLock.reqLock() sẽ thực hiện tạo 1 dòng dữ liệu trong bảng ta_sys_lock, dựa vào dữ liệu json, lock id của user và entity&lt;/span&gt;&lt;br&gt;&lt;/div&gt;" style="rounded=0;whiteSpace=wrap;html=1;" vertex="1" parent="MfE0cGZa_u_oP_6wORAc-109">
          <mxGeometry x="1180" y="1220" width="210" height="100" as="geometry" />
        </mxCell>
        <mxCell id="MfE0cGZa_u_oP_6wORAc-102" value="&lt;font style=&quot;font-size: 14px;&quot;&gt;&lt;b&gt;END&lt;/b&gt;&lt;/font&gt;" style="rounded=0;whiteSpace=wrap;html=1;" vertex="1" parent="MfE0cGZa_u_oP_6wORAc-109">
          <mxGeometry x="360" y="1980" width="70" height="40" as="geometry" />
        </mxCell>
        <mxCell id="W6fA6F0B-VJ_BkxwTvq0-64" value="" style="group" connectable="0" vertex="1" parent="1">
          <mxGeometry x="1310" y="860" width="2830" height="3930" as="geometry" />
        </mxCell>
        <mxCell id="W6fA6F0B-VJ_BkxwTvq0-62" value="" style="rounded=0;whiteSpace=wrap;html=1;" vertex="1" parent="W6fA6F0B-VJ_BkxwTvq0-64">
          <mxGeometry width="2830" height="3930" as="geometry" />
        </mxCell>
        <mxCell id="MfE0cGZa_u_oP_6wORAc-110" value="&lt;font style=&quot;font-size: 14px;&quot;&gt;Luồng chỉnh sửa, build lock làm việc của 1 user&lt;/font&gt;" style="rounded=0;whiteSpace=wrap;html=1;" vertex="1" parent="W6fA6F0B-VJ_BkxwTvq0-64">
          <mxGeometry x="500" y="30" width="940" height="60" as="geometry" />
        </mxCell>
        <mxCell id="MfE0cGZa_u_oP_6wORAc-159" value="&lt;font style=&quot;font-size: 14px;&quot;&gt;Front-end&lt;/font&gt;" style="rounded=0;whiteSpace=wrap;html=1;strokeColor=none;" vertex="1" parent="W6fA6F0B-VJ_BkxwTvq0-64">
          <mxGeometry x="680" y="110" width="120" height="40" as="geometry" />
        </mxCell>
        <mxCell id="MfE0cGZa_u_oP_6wORAc-160" value="" style="endArrow=none;html=1;rounded=0;entryX=0.5;entryY=1;entryDx=0;entryDy=0;exitX=0.5;exitY=0;exitDx=0;exitDy=0;" edge="1" parent="W6fA6F0B-VJ_BkxwTvq0-64" target="MfE0cGZa_u_oP_6wORAc-110" source="W6fA6F0B-VJ_BkxwTvq0-61">
          <mxGeometry width="50" height="50" relative="1" as="geometry">
            <mxPoint x="970" y="3730" as="sourcePoint" />
            <mxPoint x="1000" y="140" as="targetPoint" />
          </mxGeometry>
        </mxCell>
        <mxCell id="MfE0cGZa_u_oP_6wORAc-161" value="&lt;font style=&quot;font-size: 14px;&quot;&gt;Back-end&lt;/font&gt;" style="rounded=0;whiteSpace=wrap;html=1;strokeColor=none;" vertex="1" parent="W6fA6F0B-VJ_BkxwTvq0-64">
          <mxGeometry x="1160" y="110" width="120" height="40" as="geometry" />
        </mxCell>
        <mxCell id="MfE0cGZa_u_oP_6wORAc-162" value="" style="endArrow=none;html=1;rounded=0;" edge="1" parent="W6fA6F0B-VJ_BkxwTvq0-64">
          <mxGeometry width="50" height="50" relative="1" as="geometry">
            <mxPoint x="495" y="158.33000000000004" as="sourcePoint" />
            <mxPoint x="1445" y="158.33000000000004" as="targetPoint" />
          </mxGeometry>
        </mxCell>
        <mxCell id="MfE0cGZa_u_oP_6wORAc-166" style="edgeStyle=orthogonalEdgeStyle;rounded=0;orthogonalLoop=1;jettySize=auto;html=1;exitX=0.5;exitY=1;exitDx=0;exitDy=0;entryX=0.5;entryY=0;entryDx=0;entryDy=0;" edge="1" parent="W6fA6F0B-VJ_BkxwTvq0-64" source="MfE0cGZa_u_oP_6wORAc-164" target="MfE0cGZa_u_oP_6wORAc-165">
          <mxGeometry relative="1" as="geometry" />
        </mxCell>
        <mxCell id="MfE0cGZa_u_oP_6wORAc-164" value="&lt;font style=&quot;font-size: 14px;&quot;&gt;&lt;b&gt;START&lt;/b&gt;&lt;/font&gt;" style="rounded=0;whiteSpace=wrap;html=1;" vertex="1" parent="W6fA6F0B-VJ_BkxwTvq0-64">
          <mxGeometry x="700" y="180" width="80" height="50" as="geometry" />
        </mxCell>
        <mxCell id="MfE0cGZa_u_oP_6wORAc-168" style="edgeStyle=orthogonalEdgeStyle;rounded=0;orthogonalLoop=1;jettySize=auto;html=1;exitX=0.5;exitY=1;exitDx=0;exitDy=0;" edge="1" parent="W6fA6F0B-VJ_BkxwTvq0-64" source="MfE0cGZa_u_oP_6wORAc-165" target="MfE0cGZa_u_oP_6wORAc-167">
          <mxGeometry relative="1" as="geometry" />
        </mxCell>
        <mxCell id="MfE0cGZa_u_oP_6wORAc-165" value="&lt;font style=&quot;font-size: 14px;&quot;&gt;Chọn 1 user bên table để hiển thị preview dữ liệu user đó&lt;/font&gt;" style="rounded=0;whiteSpace=wrap;html=1;" vertex="1" parent="W6fA6F0B-VJ_BkxwTvq0-64">
          <mxGeometry x="640" y="270" width="200" height="60" as="geometry" />
        </mxCell>
        <mxCell id="MfE0cGZa_u_oP_6wORAc-170" style="edgeStyle=orthogonalEdgeStyle;rounded=0;orthogonalLoop=1;jettySize=auto;html=1;exitX=1;exitY=0.5;exitDx=0;exitDy=0;" edge="1" parent="W6fA6F0B-VJ_BkxwTvq0-64" source="MfE0cGZa_u_oP_6wORAc-167" target="MfE0cGZa_u_oP_6wORAc-169">
          <mxGeometry relative="1" as="geometry" />
        </mxCell>
        <mxCell id="MfE0cGZa_u_oP_6wORAc-167" value="&lt;div&gt;&lt;span style=&quot;font-size: 14px;&quot;&gt;Bắt đầu gửi request về cho server qua URL:&amp;nbsp;&lt;/span&gt;&lt;/div&gt;&lt;div&gt;&lt;span style=&quot;font-size: 14px;&quot;&gt;&lt;b&gt;http://localhost:8080/bo/api/priv&lt;/b&gt;&lt;/span&gt;&lt;/div&gt;&lt;div&gt;&lt;span style=&quot;font-size: 14px;&quot;&gt;với dữ liệu chính:&lt;/span&gt;&lt;/div&gt;&lt;div style=&quot;text-align: left;&quot;&gt;&lt;span style=&quot;font-size: 14px;&quot;&gt;&lt;b&gt;forced: true&amp;nbsp;&lt;/b&gt;&lt;/span&gt;&lt;/div&gt;&lt;div style=&quot;text-align: left;&quot;&gt;&lt;span style=&quot;font-size: 14px;&quot;&gt;&lt;b&gt;id: 16 (id user chỉnh sửa)&amp;nbsp;&lt;/b&gt;&lt;/span&gt;&lt;/div&gt;&lt;div style=&quot;text-align: left;&quot;&gt;&lt;span style=&quot;font-size: 14px;&quot;&gt;&lt;b&gt;sv_class: &quot;ServiceAutUser&quot;&amp;nbsp;&lt;/b&gt;&lt;/span&gt;&lt;/div&gt;&lt;div style=&quot;text-align: left;&quot;&gt;&lt;span style=&quot;font-size: 14px;&quot;&gt;&lt;b&gt;sv_name: &quot;SVGet&quot;&lt;/b&gt;&lt;/span&gt;&lt;br&gt;&lt;/div&gt;" style="rounded=0;whiteSpace=wrap;html=1;" vertex="1" parent="W6fA6F0B-VJ_BkxwTvq0-64">
          <mxGeometry x="605" y="360" width="270" height="150" as="geometry" />
        </mxCell>
        <mxCell id="MfE0cGZa_u_oP_6wORAc-172" style="edgeStyle=orthogonalEdgeStyle;rounded=0;orthogonalLoop=1;jettySize=auto;html=1;exitX=0.5;exitY=1;exitDx=0;exitDy=0;" edge="1" parent="W6fA6F0B-VJ_BkxwTvq0-64" source="MfE0cGZa_u_oP_6wORAc-169" target="MfE0cGZa_u_oP_6wORAc-171">
          <mxGeometry relative="1" as="geometry" />
        </mxCell>
        <mxCell id="MfE0cGZa_u_oP_6wORAc-169" value="&lt;div&gt;&lt;span style=&quot;font-size: 14px;&quot;&gt;Nhận request với class ServiceAPIPrivate.java, với phương thức doGet() -&amp;gt; doPost() -&amp;gt; API.doService()&lt;/span&gt;&lt;/div&gt;" style="rounded=0;whiteSpace=wrap;html=1;" vertex="1" parent="W6fA6F0B-VJ_BkxwTvq0-64">
          <mxGeometry x="1030" y="400" width="270" height="70" as="geometry" />
        </mxCell>
        <mxCell id="MfE0cGZa_u_oP_6wORAc-174" style="edgeStyle=orthogonalEdgeStyle;rounded=0;orthogonalLoop=1;jettySize=auto;html=1;exitX=0.5;exitY=1;exitDx=0;exitDy=0;" edge="1" parent="W6fA6F0B-VJ_BkxwTvq0-64" source="MfE0cGZa_u_oP_6wORAc-171" target="MfE0cGZa_u_oP_6wORAc-173">
          <mxGeometry relative="1" as="geometry" />
        </mxCell>
        <mxCell id="MfE0cGZa_u_oP_6wORAc-171" value="&lt;span style=&quot;font-size: 14px;&quot;&gt;Thực hiện hàm &lt;b&gt;doService()&lt;/b&gt;&amp;nbsp;&lt;/span&gt;&lt;b style=&quot;font-size: 14px; text-align: left;&quot;&gt;ServiceAutUser2&amp;nbsp;&lt;/b&gt;&lt;span style=&quot;font-size: 14px;&quot;&gt;trong class&amp;nbsp; -&amp;gt; trong hàm này, sẽ lấy dữ liệu sv_name và kiểm tra với điều kiện&lt;/span&gt;" style="rounded=0;whiteSpace=wrap;html=1;" vertex="1" parent="W6fA6F0B-VJ_BkxwTvq0-64">
          <mxGeometry x="1030" y="498" width="270" height="92" as="geometry" />
        </mxCell>
        <mxCell id="MfE0cGZa_u_oP_6wORAc-176" style="edgeStyle=orthogonalEdgeStyle;rounded=0;orthogonalLoop=1;jettySize=auto;html=1;exitX=1;exitY=0.5;exitDx=0;exitDy=0;" edge="1" parent="W6fA6F0B-VJ_BkxwTvq0-64" source="MfE0cGZa_u_oP_6wORAc-173" target="MfE0cGZa_u_oP_6wORAc-175">
          <mxGeometry relative="1" as="geometry" />
        </mxCell>
        <mxCell id="MfE0cGZa_u_oP_6wORAc-173" value="&lt;span style=&quot;font-size: 14px;&quot;&gt;Ở đây sv_name =&amp;nbsp;&lt;/span&gt;&lt;b style=&quot;font-size: 14px; text-align: left;&quot;&gt;SVGet&lt;/b&gt;&lt;div&gt;&lt;b style=&quot;font-size: 14px; text-align: left;&quot;&gt;=&amp;gt; &lt;/b&gt;&lt;span style=&quot;font-size: 14px; text-align: left;&quot;&gt;thực hiện hàm doGet() để lấy dữ liệu của user cần xem&lt;/span&gt;&lt;/div&gt;" style="rounded=0;whiteSpace=wrap;html=1;" vertex="1" parent="W6fA6F0B-VJ_BkxwTvq0-64">
          <mxGeometry x="1030" y="620" width="270" height="70" as="geometry" />
        </mxCell>
        <mxCell id="MfE0cGZa_u_oP_6wORAc-178" style="edgeStyle=orthogonalEdgeStyle;rounded=0;orthogonalLoop=1;jettySize=auto;html=1;exitX=0.5;exitY=1;exitDx=0;exitDy=0;" edge="1" parent="W6fA6F0B-VJ_BkxwTvq0-64" source="MfE0cGZa_u_oP_6wORAc-175" target="MfE0cGZa_u_oP_6wORAc-177">
          <mxGeometry relative="1" as="geometry" />
        </mxCell>
        <mxCell id="MfE0cGZa_u_oP_6wORAc-175" value="&lt;span style=&quot;font-size: 14px;&quot;&gt;Trong hàm doGet sẽ thực hiện lấy dữ liệu id user cần xem, forced&lt;/span&gt;" style="rounded=0;whiteSpace=wrap;html=1;" vertex="1" parent="W6fA6F0B-VJ_BkxwTvq0-64">
          <mxGeometry x="1360" y="620" width="270" height="70" as="geometry" />
        </mxCell>
        <mxCell id="MfE0cGZa_u_oP_6wORAc-180" style="edgeStyle=orthogonalEdgeStyle;rounded=0;orthogonalLoop=1;jettySize=auto;html=1;exitX=0.5;exitY=1;exitDx=0;exitDy=0;" edge="1" parent="W6fA6F0B-VJ_BkxwTvq0-64" source="MfE0cGZa_u_oP_6wORAc-177" target="MfE0cGZa_u_oP_6wORAc-179">
          <mxGeometry relative="1" as="geometry" />
        </mxCell>
        <mxCell id="MfE0cGZa_u_oP_6wORAc-185" value="&lt;font style=&quot;font-size: 14px;&quot;&gt;Nếu ent khác null&lt;/font&gt;" style="edgeLabel;html=1;align=center;verticalAlign=middle;resizable=0;points=[];" connectable="0" vertex="1" parent="MfE0cGZa_u_oP_6wORAc-180">
          <mxGeometry x="-0.1214" y="1" relative="1" as="geometry">
            <mxPoint x="64" as="offset" />
          </mxGeometry>
        </mxCell>
        <mxCell id="MfE0cGZa_u_oP_6wORAc-187" style="edgeStyle=orthogonalEdgeStyle;rounded=0;orthogonalLoop=1;jettySize=auto;html=1;exitX=0;exitY=0.5;exitDx=0;exitDy=0;" edge="1" parent="W6fA6F0B-VJ_BkxwTvq0-64" source="MfE0cGZa_u_oP_6wORAc-177" target="MfE0cGZa_u_oP_6wORAc-186">
          <mxGeometry relative="1" as="geometry" />
        </mxCell>
        <mxCell id="MfE0cGZa_u_oP_6wORAc-189" value="&lt;font style=&quot;font-size: 14px;&quot;&gt;Nếu ent null&lt;/font&gt;" style="edgeLabel;html=1;align=center;verticalAlign=middle;resizable=0;points=[];" connectable="0" vertex="1" parent="MfE0cGZa_u_oP_6wORAc-187">
          <mxGeometry x="-0.2692" y="4" relative="1" as="geometry">
            <mxPoint y="16" as="offset" />
          </mxGeometry>
        </mxCell>
        <mxCell id="MfE0cGZa_u_oP_6wORAc-177" value="&lt;span style=&quot;font-size: 14px;&quot;&gt;Sau đó lấy dữ liệu ent thông qua phương thức reqGet() dựa vào entId và forced&lt;/span&gt;" style="rounded=0;whiteSpace=wrap;html=1;" vertex="1" parent="W6fA6F0B-VJ_BkxwTvq0-64">
          <mxGeometry x="1360" y="715" width="270" height="70" as="geometry" />
        </mxCell>
        <mxCell id="MfE0cGZa_u_oP_6wORAc-182" style="edgeStyle=orthogonalEdgeStyle;rounded=0;orthogonalLoop=1;jettySize=auto;html=1;exitX=0.5;exitY=1;exitDx=0;exitDy=0;entryX=1;entryY=0.5;entryDx=0;entryDy=0;" edge="1" parent="W6fA6F0B-VJ_BkxwTvq0-64" source="MfE0cGZa_u_oP_6wORAc-179" target="MfE0cGZa_u_oP_6wORAc-181">
          <mxGeometry relative="1" as="geometry" />
        </mxCell>
        <mxCell id="MfE0cGZa_u_oP_6wORAc-191" value="&lt;font style=&quot;font-size: 14px;&quot;&gt;Gửi response về front-end&lt;/font&gt;" style="edgeLabel;html=1;align=center;verticalAlign=middle;resizable=0;points=[];" connectable="0" vertex="1" parent="MfE0cGZa_u_oP_6wORAc-182">
          <mxGeometry x="0.0616" y="-5" relative="1" as="geometry">
            <mxPoint x="-1" y="-10" as="offset" />
          </mxGeometry>
        </mxCell>
        <mxCell id="MfE0cGZa_u_oP_6wORAc-179" value="&lt;span style=&quot;font-size: 14px;&quot;&gt;Sau đó build response&lt;/span&gt;&lt;div&gt;&lt;div style=&quot;text-align: left;&quot;&gt;&lt;span style=&quot;font-size: 14px; background-color: initial;&quot;&gt;{&lt;/span&gt;&lt;/div&gt;&lt;/div&gt;&lt;blockquote style=&quot;margin: 0 0 0 40px; border: none; padding: 0px;&quot;&gt;&lt;div&gt;&lt;div style=&quot;text-align: left;&quot;&gt;&lt;span style=&quot;font-size: 14px;&quot;&gt;DefJS.SESS_STAT&lt;span style=&quot;white-space: pre;&quot;&gt;&#x9;&#x9;&lt;/span&gt;, 1, DefJS.SV_CODE&lt;span style=&quot;white-space: pre;&quot;&gt;&#x9;&#x9;&lt;/span&gt;, DefAPI.SV_CODE_API_YES, DefJS.RES_DATA&lt;span style=&quot;white-space: pre;&quot;&gt;&#x9;&#x9;&lt;/span&gt;, ent&lt;/span&gt;&lt;/div&gt;&lt;/div&gt;&lt;/blockquote&gt;&lt;div style=&quot;text-align: left;&quot;&gt;&lt;span style=&quot;font-size: 14px;&quot;&gt;}&lt;/span&gt;&lt;/div&gt;" style="rounded=0;whiteSpace=wrap;html=1;" vertex="1" parent="W6fA6F0B-VJ_BkxwTvq0-64">
          <mxGeometry x="1360" y="850" width="270" height="140" as="geometry" />
        </mxCell>
        <mxCell id="Z0egD16-2ySsLRJK3Lj5-2" style="edgeStyle=orthogonalEdgeStyle;rounded=0;orthogonalLoop=1;jettySize=auto;html=1;exitX=0.5;exitY=1;exitDx=0;exitDy=0;" edge="1" parent="W6fA6F0B-VJ_BkxwTvq0-64" source="MfE0cGZa_u_oP_6wORAc-181" target="Z0egD16-2ySsLRJK3Lj5-1">
          <mxGeometry relative="1" as="geometry" />
        </mxCell>
        <mxCell id="MfE0cGZa_u_oP_6wORAc-181" value="&lt;font style=&quot;font-size: 14px;&quot;&gt;Nhận dữ liệu từ server và bắt đầu hiển thị thông tin user đó ra form dạng preview(dạng xem trước, không thể chỉnh sửa)&lt;/font&gt;" style="rounded=0;whiteSpace=wrap;html=1;" vertex="1" parent="W6fA6F0B-VJ_BkxwTvq0-64">
          <mxGeometry x="610" y="990" width="270" height="110" as="geometry" />
        </mxCell>
        <mxCell id="MfE0cGZa_u_oP_6wORAc-186" value="&lt;span style=&quot;font-size: 14px;&quot;&gt;Nhận response từ server và hiển thị thông báo&lt;/span&gt;" style="rounded=0;whiteSpace=wrap;html=1;" vertex="1" parent="W6fA6F0B-VJ_BkxwTvq0-64">
          <mxGeometry x="610" y="860" width="270" height="70" as="geometry" />
        </mxCell>
        <mxCell id="Z0egD16-2ySsLRJK3Lj5-4" style="edgeStyle=orthogonalEdgeStyle;rounded=0;orthogonalLoop=1;jettySize=auto;html=1;exitX=0.5;exitY=1;exitDx=0;exitDy=0;" edge="1" parent="W6fA6F0B-VJ_BkxwTvq0-64" source="Z0egD16-2ySsLRJK3Lj5-1" target="Z0egD16-2ySsLRJK3Lj5-3">
          <mxGeometry relative="1" as="geometry" />
        </mxCell>
        <mxCell id="Z0egD16-2ySsLRJK3Lj5-1" value="&lt;span style=&quot;font-size: 14px;&quot;&gt;Nhấn nút chỉnh sửa thông tin user&lt;/span&gt;" style="rounded=0;whiteSpace=wrap;html=1;" vertex="1" parent="W6fA6F0B-VJ_BkxwTvq0-64">
          <mxGeometry x="610" y="1140" width="270" height="50" as="geometry" />
        </mxCell>
        <mxCell id="Z0egD16-2ySsLRJK3Lj5-6" style="edgeStyle=orthogonalEdgeStyle;rounded=0;orthogonalLoop=1;jettySize=auto;html=1;exitX=1;exitY=0.5;exitDx=0;exitDy=0;" edge="1" parent="W6fA6F0B-VJ_BkxwTvq0-64" source="Z0egD16-2ySsLRJK3Lj5-3" target="Z0egD16-2ySsLRJK3Lj5-5">
          <mxGeometry relative="1" as="geometry" />
        </mxCell>
        <mxCell id="Z0egD16-2ySsLRJK3Lj5-3" value="&lt;div style=&quot;text-align: center;&quot;&gt;&lt;span style=&quot;box-sizing: border-box; min-width: 0px; min-height: 0px; --override-primitive-dark-mode-color: hsl(252deg 100% 75%); text-align: left;&quot; title=&quot;16&quot; class=&quot;object-value-number value&quot;&gt;&lt;span style=&quot;font-size: 14px; background-color: rgb(255, 255, 255);&quot;&gt;Bắt đầu gửi yêu cầu về server qua URL:&lt;/span&gt;&lt;/span&gt;&lt;/div&gt;&lt;div style=&quot;text-align: center;&quot;&gt;&lt;span style=&quot;box-sizing: border-box; min-width: 0px; min-height: 0px; --override-primitive-dark-mode-color: hsl(252deg 100% 75%); text-align: left;&quot; title=&quot;16&quot; class=&quot;object-value-number value&quot;&gt;&lt;span style=&quot;font-size: 14px; background-color: rgb(255, 255, 255);&quot;&gt;&amp;nbsp;&lt;b&gt;http://localhost:8080/bo/api/priv&lt;/b&gt;&lt;/span&gt;&lt;/span&gt;&lt;/div&gt;&lt;div style=&quot;text-align: center;&quot;&gt;&lt;span style=&quot;box-sizing: border-box; min-width: 0px; min-height: 0px; --override-primitive-dark-mode-color: hsl(252deg 100% 75%); text-align: left;&quot; title=&quot;16&quot; class=&quot;object-value-number value&quot;&gt;&lt;span style=&quot;font-size: 14px; background-color: rgb(255, 255, 255);&quot;&gt; với dữ liệu chính:&amp;nbsp;&lt;/span&gt;&lt;/span&gt;&lt;/div&gt;&lt;div style=&quot;text-align: left;&quot;&gt;&lt;span style=&quot;box-sizing: border-box; min-width: 0px; min-height: 0px; --override-primitive-dark-mode-color: hsl(252deg 100% 75%);&quot; title=&quot;16&quot; class=&quot;object-value-number value&quot;&gt;&lt;span style=&quot;font-size: 14px; background-color: rgb(255, 255, 255);&quot;&gt;&lt;b&gt;id: 16&amp;nbsp;&lt;/b&gt;&lt;/span&gt;&lt;/span&gt;&lt;/div&gt;&lt;div style=&quot;text-align: left;&quot;&gt;&lt;span style=&quot;box-sizing: border-box; min-width: 0px; min-height: 0px; --override-primitive-dark-mode-color: hsl(252deg 100% 75%);&quot; title=&quot;16&quot; class=&quot;object-value-number value&quot;&gt;&lt;span style=&quot;font-size: 14px; background-color: rgb(255, 255, 255);&quot;&gt;&lt;b&gt;sv_class : &quot;ServiceAutUser&quot;&amp;nbsp;&lt;/b&gt;&lt;/span&gt;&lt;/span&gt;&lt;/div&gt;&lt;div style=&quot;text-align: left;&quot;&gt;&lt;span style=&quot;box-sizing: border-box; min-width: 0px; min-height: 0px; --override-primitive-dark-mode-color: hsl(252deg 100% 75%);&quot; title=&quot;16&quot; class=&quot;object-value-number value&quot;&gt;&lt;span style=&quot;font-size: 14px; background-color: rgb(255, 255, 255);&quot;&gt;&lt;b&gt;sv_name : &quot;SVLckReq&quot;&lt;/b&gt;&lt;/span&gt;&lt;br&gt;&lt;/span&gt;&lt;/div&gt;" style="rounded=0;whiteSpace=wrap;html=1;" vertex="1" parent="W6fA6F0B-VJ_BkxwTvq0-64">
          <mxGeometry x="610" y="1235" width="270" height="115" as="geometry" />
        </mxCell>
        <mxCell id="Z0egD16-2ySsLRJK3Lj5-8" style="edgeStyle=orthogonalEdgeStyle;rounded=0;orthogonalLoop=1;jettySize=auto;html=1;exitX=0.5;exitY=1;exitDx=0;exitDy=0;" edge="1" parent="W6fA6F0B-VJ_BkxwTvq0-64" source="Z0egD16-2ySsLRJK3Lj5-5" target="Z0egD16-2ySsLRJK3Lj5-7">
          <mxGeometry relative="1" as="geometry" />
        </mxCell>
        <mxCell id="Z0egD16-2ySsLRJK3Lj5-5" value="&lt;div style=&quot;&quot;&gt;&lt;span style=&quot;font-size: 14px;&quot;&gt;Nhận yêu cầu bằng doGet() trong class ServiceAPIPrivate() -&amp;gt; doPost() -&amp;gt; API.doService()&lt;/span&gt;&lt;/div&gt;" style="rounded=0;whiteSpace=wrap;html=1;align=center;" vertex="1" parent="W6fA6F0B-VJ_BkxwTvq0-64">
          <mxGeometry x="1040" y="1242.5" width="240" height="100" as="geometry" />
        </mxCell>
        <mxCell id="Z0egD16-2ySsLRJK3Lj5-10" style="edgeStyle=orthogonalEdgeStyle;rounded=0;orthogonalLoop=1;jettySize=auto;html=1;exitX=0.5;exitY=1;exitDx=0;exitDy=0;" edge="1" parent="W6fA6F0B-VJ_BkxwTvq0-64" source="Z0egD16-2ySsLRJK3Lj5-7" target="Z0egD16-2ySsLRJK3Lj5-9">
          <mxGeometry relative="1" as="geometry" />
        </mxCell>
        <mxCell id="Z0egD16-2ySsLRJK3Lj5-7" value="&lt;div style=&quot;&quot;&gt;&lt;font style=&quot;font-size: 14px;&quot;&gt;Sau đó dữ liệu được xử lý bằng phương thức doService() trong class ServiceAutUser2.java&lt;/font&gt;&lt;/div&gt;" style="rounded=0;whiteSpace=wrap;html=1;align=center;" vertex="1" parent="W6fA6F0B-VJ_BkxwTvq0-64">
          <mxGeometry x="1040" y="1370" width="240" height="70" as="geometry" />
        </mxCell>
        <mxCell id="Z0egD16-2ySsLRJK3Lj5-12" style="edgeStyle=orthogonalEdgeStyle;rounded=0;orthogonalLoop=1;jettySize=auto;html=1;exitX=1;exitY=0.5;exitDx=0;exitDy=0;" edge="1" parent="W6fA6F0B-VJ_BkxwTvq0-64" source="Z0egD16-2ySsLRJK3Lj5-9" target="Z0egD16-2ySsLRJK3Lj5-11">
          <mxGeometry relative="1" as="geometry" />
        </mxCell>
        <mxCell id="Z0egD16-2ySsLRJK3Lj5-9" value="&lt;div style=&quot;font-size: 15px;&quot;&gt;&lt;font style=&quot;font-size: 15px;&quot;&gt;truy suất sv_name và user từ dữ liệu json, sau đó so sánh với các điều kiện, ở đây sv_name =&amp;nbsp;&lt;b style=&quot;background-color: initial; text-align: left;&quot;&gt;SVLckReq&amp;nbsp;&lt;/b&gt;&lt;/font&gt;&lt;/div&gt;&lt;div style=&quot;font-size: 15px;&quot;&gt;&lt;font style=&quot;font-size: 15px;&quot;&gt;&lt;b style=&quot;background-color: initial; text-align: left;&quot;&gt;=&amp;gt; &lt;/b&gt;&lt;span style=&quot;background-color: initial; text-align: left;&quot;&gt;thực hiện hàm&amp;nbsp;&lt;/span&gt;&lt;span style=&quot;white-space: pre; background-color: rgb(255, 255, 255);&quot;&gt;&lt;font style=&quot;font-size: 15px;&quot; face=&quot;Helvetica&quot;&gt;doLckReq()&lt;/font&gt;&lt;/span&gt;&lt;/font&gt;&lt;/div&gt;" style="rounded=0;whiteSpace=wrap;html=1;align=center;" vertex="1" parent="W6fA6F0B-VJ_BkxwTvq0-64">
          <mxGeometry x="1030" y="1480" width="260" height="120" as="geometry" />
        </mxCell>
        <mxCell id="Z0egD16-2ySsLRJK3Lj5-14" style="edgeStyle=orthogonalEdgeStyle;rounded=0;orthogonalLoop=1;jettySize=auto;html=1;" edge="1" parent="W6fA6F0B-VJ_BkxwTvq0-64" source="Z0egD16-2ySsLRJK3Lj5-11" target="Z0egD16-2ySsLRJK3Lj5-13">
          <mxGeometry relative="1" as="geometry" />
        </mxCell>
        <mxCell id="Z0egD16-2ySsLRJK3Lj5-11" value="&lt;p style=&quot;line-height: 140%;&quot;&gt;&lt;span style=&quot;font-size: 14px;&quot;&gt;Trong hàm doLckReq() sẽ thực hiện&amp;nbsp;&lt;/span&gt;&lt;/p&gt;&lt;p style=&quot;line-height: 140%;&quot;&gt;&lt;span style=&quot;font-size: 14px;&quot;&gt;Lấy entId trong dữ liệu json bằng phương thức&amp;nbsp;ToolData.reqInt()&lt;/span&gt;&lt;/p&gt;&lt;p style=&quot;line-height: 140%;&quot;&gt;&lt;span style=&quot;font-size: 14px;&quot;&gt;Lấy dữ liệu lock bằng phương thức&amp;nbsp;&lt;/span&gt;&lt;span style=&quot;background-color: initial; font-size: 14px;&quot;&gt;ToolDBLock.reqLock()&lt;/span&gt;&lt;/p&gt;" style="rounded=0;whiteSpace=wrap;html=1;align=center;" vertex="1" parent="W6fA6F0B-VJ_BkxwTvq0-64">
          <mxGeometry x="1350" y="1480" width="260" height="120" as="geometry" />
        </mxCell>
        <mxCell id="Z0egD16-2ySsLRJK3Lj5-16" style="edgeStyle=orthogonalEdgeStyle;rounded=0;orthogonalLoop=1;jettySize=auto;html=1;exitX=1;exitY=0.5;exitDx=0;exitDy=0;" edge="1" parent="W6fA6F0B-VJ_BkxwTvq0-64" source="Z0egD16-2ySsLRJK3Lj5-13" target="Z0egD16-2ySsLRJK3Lj5-15">
          <mxGeometry relative="1" as="geometry" />
        </mxCell>
        <mxCell id="Z0egD16-2ySsLRJK3Lj5-19" style="edgeStyle=orthogonalEdgeStyle;rounded=0;orthogonalLoop=1;jettySize=auto;html=1;exitX=0.5;exitY=1;exitDx=0;exitDy=0;" edge="1" parent="W6fA6F0B-VJ_BkxwTvq0-64" source="Z0egD16-2ySsLRJK3Lj5-13" target="Z0egD16-2ySsLRJK3Lj5-18">
          <mxGeometry relative="1" as="geometry" />
        </mxCell>
        <mxCell id="Z0egD16-2ySsLRJK3Lj5-21" style="edgeStyle=orthogonalEdgeStyle;rounded=0;orthogonalLoop=1;jettySize=auto;html=1;exitX=0.5;exitY=1;exitDx=0;exitDy=0;entryX=0.5;entryY=0;entryDx=0;entryDy=0;" edge="1" parent="W6fA6F0B-VJ_BkxwTvq0-64" source="Z0egD16-2ySsLRJK3Lj5-13" target="Z0egD16-2ySsLRJK3Lj5-22">
          <mxGeometry relative="1" as="geometry">
            <mxPoint x="1679.9411764705883" y="1740" as="targetPoint" />
          </mxGeometry>
        </mxCell>
        <mxCell id="Z0egD16-2ySsLRJK3Lj5-13" value="&lt;p style=&quot;line-height: 140%;&quot;&gt;&lt;span style=&quot;font-size: 14px;&quot;&gt;kiểm tra lock hoặc lock.&lt;/span&gt;&lt;span style=&quot;font-size: 14px; background-color: initial;&quot;&gt;requestStatus()&lt;/span&gt;&lt;/p&gt;" style="rounded=0;whiteSpace=wrap;html=1;align=center;" vertex="1" parent="W6fA6F0B-VJ_BkxwTvq0-64">
          <mxGeometry x="1350" y="1630" width="260" height="60" as="geometry" />
        </mxCell>
        <mxCell id="Z0egD16-2ySsLRJK3Lj5-15" value="&lt;p style=&quot;line-height: 140%;&quot;&gt;&lt;span style=&quot;font-size: 14px;&quot;&gt;requestStatus() lấy trạng thái lock của dữ liệu đó, nếu = 1 thì đang bị lock và chỉnh sửa bằng user khác, nếu = 0 thì không bị lock&lt;/span&gt;&lt;br&gt;&lt;/p&gt;" style="rounded=0;whiteSpace=wrap;html=1;align=center;" vertex="1" parent="W6fA6F0B-VJ_BkxwTvq0-64">
          <mxGeometry x="1640" y="1620" width="280" height="80" as="geometry" />
        </mxCell>
        <mxCell id="Z0egD16-2ySsLRJK3Lj5-24" style="edgeStyle=orthogonalEdgeStyle;rounded=0;orthogonalLoop=1;jettySize=auto;html=1;exitX=0.5;exitY=1;exitDx=0;exitDy=0;entryX=1;entryY=0.5;entryDx=0;entryDy=0;" edge="1" parent="W6fA6F0B-VJ_BkxwTvq0-64" source="Z0egD16-2ySsLRJK3Lj5-18" target="Z0egD16-2ySsLRJK3Lj5-23">
          <mxGeometry relative="1" as="geometry" />
        </mxCell>
        <mxCell id="Z0egD16-2ySsLRJK3Lj5-28" value="&lt;span style=&quot;font-size: 14px;&quot;&gt;Response về front-end&lt;/span&gt;" style="edgeLabel;html=1;align=center;verticalAlign=middle;resizable=0;points=[];" connectable="0" vertex="1" parent="Z0egD16-2ySsLRJK3Lj5-24">
          <mxGeometry x="0.1852" y="-5" relative="1" as="geometry">
            <mxPoint x="-1" y="-5" as="offset" />
          </mxGeometry>
        </mxCell>
        <mxCell id="Z0egD16-2ySsLRJK3Lj5-18" value="&lt;p style=&quot;line-height: 140%;&quot;&gt;&lt;span style=&quot;font-size: 14px;&quot;&gt;lock == null hoặc&amp;nbsp;&lt;/span&gt;&lt;span style=&quot;background-color: initial; font-size: 14px;&quot;&gt;lock.&lt;/span&gt;&lt;span style=&quot;background-color: initial; font-size: 14px;&quot;&gt;requestStatus() == 0&lt;/span&gt;&lt;span style=&quot;font-size: 14px; background-color: initial;&quot;&gt;&amp;nbsp;&lt;/span&gt;&lt;/p&gt;&lt;p style=&quot;line-height: 140%;&quot;&gt;&lt;span style=&quot;font-size: 14px;&quot;&gt;Thực hiện build response&lt;/span&gt;&lt;span style=&quot;font-size: 14px; background-color: initial;&quot;&gt;&lt;br&gt;&lt;/span&gt;&lt;/p&gt;" style="rounded=0;whiteSpace=wrap;html=1;align=center;" vertex="1" parent="W6fA6F0B-VJ_BkxwTvq0-64">
          <mxGeometry x="1500" y="1750" width="290" height="60" as="geometry" />
        </mxCell>
        <mxCell id="Z0egD16-2ySsLRJK3Lj5-26" style="edgeStyle=orthogonalEdgeStyle;rounded=0;orthogonalLoop=1;jettySize=auto;html=1;exitX=0.5;exitY=1;exitDx=0;exitDy=0;entryX=1;entryY=0.5;entryDx=0;entryDy=0;" edge="1" parent="W6fA6F0B-VJ_BkxwTvq0-64" source="Z0egD16-2ySsLRJK3Lj5-22" target="Z0egD16-2ySsLRJK3Lj5-25">
          <mxGeometry relative="1" as="geometry" />
        </mxCell>
        <mxCell id="Z0egD16-2ySsLRJK3Lj5-27" value="&lt;font style=&quot;font-size: 14px;&quot;&gt;Response về front-end&lt;/font&gt;" style="edgeLabel;html=1;align=center;verticalAlign=middle;resizable=0;points=[];" connectable="0" vertex="1" parent="Z0egD16-2ySsLRJK3Lj5-26">
          <mxGeometry x="0.0308" y="-2" relative="1" as="geometry">
            <mxPoint x="-18" y="-8" as="offset" />
          </mxGeometry>
        </mxCell>
        <mxCell id="Z0egD16-2ySsLRJK3Lj5-22" value="&lt;p style=&quot;line-height: 140%;&quot;&gt;&lt;span style=&quot;font-size: 14px;&quot;&gt;lock != null hoặc&amp;nbsp;&lt;/span&gt;&lt;span style=&quot;background-color: initial; font-size: 14px;&quot;&gt;lock.&lt;/span&gt;&lt;span style=&quot;background-color: initial; font-size: 14px;&quot;&gt;requestStatus() == 1&lt;/span&gt;&lt;/p&gt;&lt;p style=&quot;line-height: 140%;&quot;&gt;&lt;span style=&quot;background-color: initial; font-size: 14px;&quot;&gt;Thực hiện build response&lt;/span&gt;&lt;/p&gt;" style="rounded=0;whiteSpace=wrap;html=1;align=center;" vertex="1" parent="W6fA6F0B-VJ_BkxwTvq0-64">
          <mxGeometry x="1180" y="1750" width="290" height="60" as="geometry" />
        </mxCell>
        <mxCell id="Z0egD16-2ySsLRJK3Lj5-30" style="edgeStyle=orthogonalEdgeStyle;rounded=0;orthogonalLoop=1;jettySize=auto;html=1;exitX=0.5;exitY=1;exitDx=0;exitDy=0;" edge="1" parent="W6fA6F0B-VJ_BkxwTvq0-64" source="Z0egD16-2ySsLRJK3Lj5-23" target="Z0egD16-2ySsLRJK3Lj5-29">
          <mxGeometry relative="1" as="geometry" />
        </mxCell>
        <mxCell id="Z0egD16-2ySsLRJK3Lj5-32" style="edgeStyle=orthogonalEdgeStyle;rounded=0;orthogonalLoop=1;jettySize=auto;html=1;exitX=0.5;exitY=1;exitDx=0;exitDy=0;" edge="1" parent="W6fA6F0B-VJ_BkxwTvq0-64" source="Z0egD16-2ySsLRJK3Lj5-23" target="Z0egD16-2ySsLRJK3Lj5-31">
          <mxGeometry relative="1" as="geometry" />
        </mxCell>
        <mxCell id="Z0egD16-2ySsLRJK3Lj5-23" value="&lt;p style=&quot;line-height: 140%;&quot;&gt;&lt;span style=&quot;font-size: 14px;&quot;&gt;Hiển thị thông tin dạng form, có thể chỉnh sửa được.&lt;/span&gt;&lt;/p&gt;" style="rounded=0;whiteSpace=wrap;html=1;align=center;" vertex="1" parent="W6fA6F0B-VJ_BkxwTvq0-64">
          <mxGeometry x="580" y="1900" width="207.5" height="60" as="geometry" />
        </mxCell>
        <mxCell id="Z0egD16-2ySsLRJK3Lj5-25" value="&lt;font style=&quot;font-size: 14px;&quot;&gt;Nhận dữ liệu và hiển thị thông báo: Không thể chỉnh sửa user&lt;/font&gt;" style="rounded=0;whiteSpace=wrap;html=1;align=center;" vertex="1" parent="W6fA6F0B-VJ_BkxwTvq0-64">
          <mxGeometry x="690" y="1810" width="205" height="60" as="geometry" />
        </mxCell>
        <mxCell id="Z0egD16-2ySsLRJK3Lj5-34" style="edgeStyle=orthogonalEdgeStyle;rounded=0;orthogonalLoop=1;jettySize=auto;html=1;exitX=0.5;exitY=1;exitDx=0;exitDy=0;entryX=0.5;entryY=0;entryDx=0;entryDy=0;" edge="1" parent="W6fA6F0B-VJ_BkxwTvq0-64" source="Z0egD16-2ySsLRJK3Lj5-29" target="Z0egD16-2ySsLRJK3Lj5-33">
          <mxGeometry relative="1" as="geometry" />
        </mxCell>
        <mxCell id="Z0egD16-2ySsLRJK3Lj5-29" value="&lt;p style=&quot;line-height: 140%;&quot;&gt;&lt;span style=&quot;font-size: 14px;&quot;&gt;Chọn lưu thông tin chỉnh sửa&lt;/span&gt;&lt;/p&gt;" style="rounded=0;whiteSpace=wrap;html=1;align=center;" vertex="1" parent="W6fA6F0B-VJ_BkxwTvq0-64">
          <mxGeometry x="404.4100000000001" y="2010" width="133.5" height="60" as="geometry" />
        </mxCell>
        <mxCell id="Z0egD16-2ySsLRJK3Lj5-36" style="edgeStyle=orthogonalEdgeStyle;rounded=0;orthogonalLoop=1;jettySize=auto;html=1;exitX=0.5;exitY=1;exitDx=0;exitDy=0;" edge="1" parent="W6fA6F0B-VJ_BkxwTvq0-64" source="Z0egD16-2ySsLRJK3Lj5-31" target="Z0egD16-2ySsLRJK3Lj5-35">
          <mxGeometry relative="1" as="geometry" />
        </mxCell>
        <mxCell id="Z0egD16-2ySsLRJK3Lj5-31" value="&lt;p style=&quot;line-height: 140%;&quot;&gt;&lt;span style=&quot;font-size: 14px;&quot;&gt;Chọn hủy chỉnh sửa&lt;/span&gt;&lt;/p&gt;" style="rounded=0;whiteSpace=wrap;html=1;align=center;" vertex="1" parent="W6fA6F0B-VJ_BkxwTvq0-64">
          <mxGeometry x="662.5" y="2010" width="207.5" height="60" as="geometry" />
        </mxCell>
        <mxCell id="W6fA6F0B-VJ_BkxwTvq0-21" style="edgeStyle=orthogonalEdgeStyle;rounded=0;orthogonalLoop=1;jettySize=auto;html=1;exitX=0.5;exitY=1;exitDx=0;exitDy=0;" edge="1" parent="W6fA6F0B-VJ_BkxwTvq0-64" source="Z0egD16-2ySsLRJK3Lj5-33" target="W6fA6F0B-VJ_BkxwTvq0-20">
          <mxGeometry relative="1" as="geometry" />
        </mxCell>
        <mxCell id="W6fA6F0B-VJ_BkxwTvq0-23" style="edgeStyle=orthogonalEdgeStyle;rounded=0;orthogonalLoop=1;jettySize=auto;html=1;exitX=0.5;exitY=1;exitDx=0;exitDy=0;entryX=0.5;entryY=0;entryDx=0;entryDy=0;" edge="1" parent="W6fA6F0B-VJ_BkxwTvq0-64" source="Z0egD16-2ySsLRJK3Lj5-33" target="W6fA6F0B-VJ_BkxwTvq0-24">
          <mxGeometry relative="1" as="geometry">
            <mxPoint x="580.7142857142862" y="2363" as="targetPoint" />
          </mxGeometry>
        </mxCell>
        <mxCell id="Z0egD16-2ySsLRJK3Lj5-33" value="&lt;div&gt;&lt;font style=&quot;font-size: 13px;&quot;&gt;Hiển thị thông báo :&lt;br&gt;1: Lưu và thoát&lt;/font&gt;&lt;/div&gt;&lt;div&gt;&lt;font style=&quot;font-size: 13px;&quot;&gt;2: Lưu và tiếp tục chỉnh sửa&lt;/font&gt;&lt;/div&gt;" style="rounded=0;whiteSpace=wrap;html=1;" vertex="1" parent="W6fA6F0B-VJ_BkxwTvq0-64">
          <mxGeometry x="380" y="2140" width="182.31" height="75" as="geometry" />
        </mxCell>
        <mxCell id="W6fA6F0B-VJ_BkxwTvq0-2" style="edgeStyle=orthogonalEdgeStyle;rounded=0;orthogonalLoop=1;jettySize=auto;html=1;exitX=1;exitY=0.5;exitDx=0;exitDy=0;" edge="1" parent="W6fA6F0B-VJ_BkxwTvq0-64" source="Z0egD16-2ySsLRJK3Lj5-35" target="W6fA6F0B-VJ_BkxwTvq0-1">
          <mxGeometry relative="1" as="geometry" />
        </mxCell>
        <mxCell id="Z0egD16-2ySsLRJK3Lj5-35" value="&lt;div&gt;&lt;span style=&quot;box-sizing: border-box; min-width: 0px; min-height: 0px; --override-primitive-dark-mode-color: hsl(252deg 100% 75%); text-align: left;&quot; title=&quot;16&quot; class=&quot;object-value-number value&quot;&gt;&lt;span style=&quot;font-size: 14px;&quot;&gt;Bắt đầu gửi yêu cầu về server qua URL:&lt;/span&gt;&lt;/span&gt;&lt;/div&gt;&lt;div&gt;&lt;span style=&quot;box-sizing: border-box; min-width: 0px; min-height: 0px; --override-primitive-dark-mode-color: hsl(252deg 100% 75%); text-align: left;&quot; title=&quot;16&quot; class=&quot;object-value-number value&quot;&gt;&lt;span style=&quot;font-size: 14px;&quot;&gt;&amp;nbsp;&lt;b&gt;http://localhost:8080/bo/api/priv&lt;/b&gt;&lt;/span&gt;&lt;/span&gt;&lt;/div&gt;&lt;div&gt;&lt;span style=&quot;box-sizing: border-box; min-width: 0px; min-height: 0px; --override-primitive-dark-mode-color: hsl(252deg 100% 75%); text-align: left;&quot; title=&quot;16&quot; class=&quot;object-value-number value&quot;&gt;&lt;span style=&quot;font-size: 14px;&quot;&gt;với dữ liệu chính:&amp;nbsp;&lt;/span&gt;&lt;/span&gt;&lt;/div&gt;&lt;div style=&quot;text-align: left;&quot;&gt;&lt;font face=&quot;Helvetica&quot; size=&quot;1&quot;&gt;&lt;span style=&quot;text-wrap: nowrap; background-color: rgb(255, 255, 255); font-size: 14px;&quot;&gt;&lt;b&gt;lock_id: 82 (id của lock mang dữ liệu của user đó)&lt;/b&gt;&lt;/span&gt;&lt;/font&gt;&lt;br&gt;&lt;/div&gt;&lt;div style=&quot;text-align: left;&quot;&gt;&lt;span style=&quot;box-sizing: border-box; min-width: 0px; min-height: 0px; --override-primitive-dark-mode-color: hsl(252deg 100% 75%);&quot; title=&quot;16&quot; class=&quot;object-value-number value&quot;&gt;&lt;span style=&quot;font-size: 14px;&quot;&gt;&lt;b&gt;sv_class : &quot;ServiceAutUser&quot;&amp;nbsp;&lt;/b&gt;&lt;/span&gt;&lt;/span&gt;&lt;/div&gt;&lt;div style=&quot;text-align: left;&quot;&gt;&lt;span style=&quot;box-sizing: border-box; min-width: 0px; min-height: 0px; --override-primitive-dark-mode-color: hsl(252deg 100% 75%);&quot; title=&quot;16&quot; class=&quot;object-value-number value&quot;&gt;&lt;span style=&quot;font-size: 14px;&quot;&gt;&lt;b&gt;sv_name : &quot;&lt;span style=&quot;white-space: pre;&quot;&gt;SVLckDel&lt;/span&gt;&lt;/b&gt;&lt;/span&gt;&lt;/span&gt;&lt;b style=&quot;background-color: initial; font-size: 14px;&quot;&gt;&quot;&lt;/b&gt;&lt;/div&gt;" style="rounded=0;whiteSpace=wrap;html=1;align=center;" vertex="1" parent="W6fA6F0B-VJ_BkxwTvq0-64">
          <mxGeometry x="580" y="2100" width="372.5" height="140" as="geometry" />
        </mxCell>
        <mxCell id="W6fA6F0B-VJ_BkxwTvq0-4" style="edgeStyle=orthogonalEdgeStyle;rounded=0;orthogonalLoop=1;jettySize=auto;html=1;exitX=0.5;exitY=1;exitDx=0;exitDy=0;" edge="1" parent="W6fA6F0B-VJ_BkxwTvq0-64" source="W6fA6F0B-VJ_BkxwTvq0-1" target="W6fA6F0B-VJ_BkxwTvq0-3">
          <mxGeometry relative="1" as="geometry" />
        </mxCell>
        <mxCell id="W6fA6F0B-VJ_BkxwTvq0-1" value="&lt;div style=&quot;&quot;&gt;&lt;span style=&quot;background-color: initial; font-size: 14px;&quot;&gt;Nhận request và dữ liệu trong class&amp;nbsp;&lt;/span&gt;&lt;span style=&quot;font-size: 14px; background-color: initial;&quot;&gt;ServiceAPIPrivate với hàm doGet() -&amp;gt; doPost() -&amp;gt; API.doService()&lt;/span&gt;&lt;/div&gt;" style="rounded=0;whiteSpace=wrap;html=1;align=center;" vertex="1" parent="W6fA6F0B-VJ_BkxwTvq0-64">
          <mxGeometry x="1680" y="2135" width="372.5" height="70" as="geometry" />
        </mxCell>
        <mxCell id="W6fA6F0B-VJ_BkxwTvq0-6" style="edgeStyle=orthogonalEdgeStyle;rounded=0;orthogonalLoop=1;jettySize=auto;html=1;exitX=0.5;exitY=1;exitDx=0;exitDy=0;" edge="1" parent="W6fA6F0B-VJ_BkxwTvq0-64" source="W6fA6F0B-VJ_BkxwTvq0-3" target="W6fA6F0B-VJ_BkxwTvq0-5">
          <mxGeometry relative="1" as="geometry" />
        </mxCell>
        <mxCell id="W6fA6F0B-VJ_BkxwTvq0-3" value="&lt;div style=&quot;&quot;&gt;&lt;span style=&quot;font-size: 14px;&quot;&gt;Xử lý dữ liệu, lấy sv_name và user từ json.&lt;/span&gt;&lt;/div&gt;&lt;div style=&quot;&quot;&gt;&lt;span style=&quot;font-size: 14px;&quot;&gt;Kiểm tra sv_name với các điều kiện&lt;/span&gt;&lt;/div&gt;" style="rounded=0;whiteSpace=wrap;html=1;align=center;" vertex="1" parent="W6fA6F0B-VJ_BkxwTvq0-64">
          <mxGeometry x="1725.5" y="2240" width="281.5" height="70" as="geometry" />
        </mxCell>
        <mxCell id="W6fA6F0B-VJ_BkxwTvq0-8" style="edgeStyle=orthogonalEdgeStyle;rounded=0;orthogonalLoop=1;jettySize=auto;html=1;exitX=1;exitY=0.5;exitDx=0;exitDy=0;" edge="1" parent="W6fA6F0B-VJ_BkxwTvq0-64" source="W6fA6F0B-VJ_BkxwTvq0-5" target="W6fA6F0B-VJ_BkxwTvq0-7">
          <mxGeometry relative="1" as="geometry" />
        </mxCell>
        <mxCell id="W6fA6F0B-VJ_BkxwTvq0-5" value="&lt;div style=&quot;text-align: left;&quot;&gt;&lt;span style=&quot;font-size: 14px;&quot;&gt;Ở đây sv_name =&amp;nbsp;&lt;/span&gt;&lt;b style=&quot;background-color: initial; white-space: pre;&quot;&gt;&lt;font style=&quot;font-size: 14px;&quot; face=&quot;Helvetica&quot;&gt;SVLckDel&lt;/font&gt;&lt;/b&gt;&lt;/div&gt;&lt;div style=&quot;&quot;&gt;&lt;span style=&quot;font-size: 14px; background-color: initial;&quot;&gt;=&amp;gt;&amp;nbsp; thực hiện hàm&amp;nbsp;&lt;/span&gt;&lt;b style=&quot;background-color: initial; text-align: left; white-space: pre;&quot;&gt;&lt;font style=&quot;font-size: 14px;&quot; face=&quot;Helvetica&quot;&gt;doLckDel()&lt;/font&gt;&lt;/b&gt;&lt;/div&gt;" style="rounded=0;whiteSpace=wrap;html=1;align=center;" vertex="1" parent="W6fA6F0B-VJ_BkxwTvq0-64">
          <mxGeometry x="1725.25" y="2355" width="281.5" height="70" as="geometry" />
        </mxCell>
        <mxCell id="W6fA6F0B-VJ_BkxwTvq0-10" style="edgeStyle=orthogonalEdgeStyle;rounded=0;orthogonalLoop=1;jettySize=auto;html=1;exitX=1;exitY=0.5;exitDx=0;exitDy=0;" edge="1" parent="W6fA6F0B-VJ_BkxwTvq0-64" source="W6fA6F0B-VJ_BkxwTvq0-7" target="W6fA6F0B-VJ_BkxwTvq0-9">
          <mxGeometry relative="1" as="geometry" />
        </mxCell>
        <mxCell id="W6fA6F0B-VJ_BkxwTvq0-12" style="edgeStyle=orthogonalEdgeStyle;rounded=0;orthogonalLoop=1;jettySize=auto;html=1;exitX=0.5;exitY=1;exitDx=0;exitDy=0;" edge="1" parent="W6fA6F0B-VJ_BkxwTvq0-64" source="W6fA6F0B-VJ_BkxwTvq0-7" target="W6fA6F0B-VJ_BkxwTvq0-11">
          <mxGeometry relative="1" as="geometry" />
        </mxCell>
        <mxCell id="W6fA6F0B-VJ_BkxwTvq0-14" style="edgeStyle=orthogonalEdgeStyle;rounded=0;orthogonalLoop=1;jettySize=auto;html=1;exitX=0.5;exitY=1;exitDx=0;exitDy=0;entryX=0.5;entryY=0;entryDx=0;entryDy=0;" edge="1" parent="W6fA6F0B-VJ_BkxwTvq0-64" source="W6fA6F0B-VJ_BkxwTvq0-7" target="W6fA6F0B-VJ_BkxwTvq0-15">
          <mxGeometry relative="1" as="geometry">
            <mxPoint x="2292.039473684211" y="2520" as="targetPoint" />
          </mxGeometry>
        </mxCell>
        <mxCell id="W6fA6F0B-VJ_BkxwTvq0-7" value="&lt;div style=&quot;&quot;&gt;&lt;span style=&quot;font-size: 14px;&quot;&gt;Tron hàm &lt;b&gt;doLckDel(), &lt;/b&gt;thực hiện xóa lock của dữ liệu đó trong csdl với hàm&amp;nbsp;&lt;/span&gt;&lt;span style=&quot;background-color: initial; font-size: 14px;&quot;&gt;&lt;b&gt;ToolDBLock.canDeleteLock()&amp;nbsp;&lt;/b&gt;&lt;/span&gt;&lt;/div&gt;" style="rounded=0;whiteSpace=wrap;html=1;align=center;" vertex="1" parent="W6fA6F0B-VJ_BkxwTvq0-64">
          <mxGeometry x="2041.25" y="2355" width="281.5" height="70" as="geometry" />
        </mxCell>
        <mxCell id="W6fA6F0B-VJ_BkxwTvq0-9" value="&lt;div style=&quot;&quot;&gt;Hàm&amp;nbsp;&lt;b style=&quot;background-color: initial; font-size: 14px;&quot;&gt;ToolDBLock.canDeleteLock() &lt;/b&gt;&lt;span style=&quot;background-color: initial; font-size: 14px;&quot;&gt;thực hiện xóa lock của dữ liệu đó trong csdl dựa vào dữ liệu json và trả về kiểu dữ liệu boolean&lt;/span&gt;&lt;/div&gt;" style="rounded=0;whiteSpace=wrap;html=1;align=center;" vertex="1" parent="W6fA6F0B-VJ_BkxwTvq0-64">
          <mxGeometry x="2351.25" y="2342.5" width="281.5" height="95" as="geometry" />
        </mxCell>
        <mxCell id="W6fA6F0B-VJ_BkxwTvq0-17" style="edgeStyle=orthogonalEdgeStyle;rounded=0;orthogonalLoop=1;jettySize=auto;html=1;exitX=0.5;exitY=1;exitDx=0;exitDy=0;entryX=1;entryY=0.5;entryDx=0;entryDy=0;" edge="1" parent="W6fA6F0B-VJ_BkxwTvq0-64" source="W6fA6F0B-VJ_BkxwTvq0-11" target="W6fA6F0B-VJ_BkxwTvq0-16">
          <mxGeometry relative="1" as="geometry" />
        </mxCell>
        <mxCell id="W6fA6F0B-VJ_BkxwTvq0-11" value="&lt;div style=&quot;&quot;&gt;&lt;span style=&quot;font-size: 14px;&quot;&gt;Nếu trả về true thì xóa được lock, sẽ thực hiện build response trả về front-end&lt;/span&gt;&lt;/div&gt;" style="rounded=0;whiteSpace=wrap;html=1;align=center;" vertex="1" parent="W6fA6F0B-VJ_BkxwTvq0-64">
          <mxGeometry x="2151.25" y="2480" width="151.5" height="110" as="geometry" />
        </mxCell>
        <mxCell id="W6fA6F0B-VJ_BkxwTvq0-19" style="edgeStyle=orthogonalEdgeStyle;rounded=0;orthogonalLoop=1;jettySize=auto;html=1;exitX=0.5;exitY=1;exitDx=0;exitDy=0;entryX=1;entryY=0.5;entryDx=0;entryDy=0;" edge="1" parent="W6fA6F0B-VJ_BkxwTvq0-64" source="W6fA6F0B-VJ_BkxwTvq0-15" target="W6fA6F0B-VJ_BkxwTvq0-18">
          <mxGeometry relative="1" as="geometry" />
        </mxCell>
        <mxCell id="W6fA6F0B-VJ_BkxwTvq0-15" value="&lt;div style=&quot;&quot;&gt;&lt;span style=&quot;font-size: 14px;&quot;&gt;Nếu trả về false thì không xóa được và build response trả về front-end&lt;/span&gt;&lt;/div&gt;" style="rounded=0;whiteSpace=wrap;html=1;align=center;" vertex="1" parent="W6fA6F0B-VJ_BkxwTvq0-64">
          <mxGeometry x="1971.25" y="2480" width="151.5" height="110" as="geometry" />
        </mxCell>
        <mxCell id="W6fA6F0B-VJ_BkxwTvq0-60" style="edgeStyle=orthogonalEdgeStyle;rounded=0;orthogonalLoop=1;jettySize=auto;html=1;exitX=0.5;exitY=1;exitDx=0;exitDy=0;entryX=1;entryY=0.5;entryDx=0;entryDy=0;" edge="1" parent="W6fA6F0B-VJ_BkxwTvq0-64" source="W6fA6F0B-VJ_BkxwTvq0-16" target="W6fA6F0B-VJ_BkxwTvq0-54">
          <mxGeometry relative="1" as="geometry" />
        </mxCell>
        <mxCell id="W6fA6F0B-VJ_BkxwTvq0-16" value="&lt;div style=&quot;&quot;&gt;&lt;span style=&quot;font-size: 14px;&quot;&gt;Hiển thị thông báo hủy thành công và hiển thị giao diện dạng preview thông tin user&lt;/span&gt;&lt;/div&gt;" style="rounded=0;whiteSpace=wrap;html=1;align=center;" vertex="1" parent="W6fA6F0B-VJ_BkxwTvq0-64">
          <mxGeometry x="633.5" y="3240" width="261.5" height="100" as="geometry" />
        </mxCell>
        <mxCell id="W6fA6F0B-VJ_BkxwTvq0-59" style="edgeStyle=orthogonalEdgeStyle;rounded=0;orthogonalLoop=1;jettySize=auto;html=1;exitX=0;exitY=0.5;exitDx=0;exitDy=0;entryX=0;entryY=0.5;entryDx=0;entryDy=0;" edge="1" parent="W6fA6F0B-VJ_BkxwTvq0-64" source="W6fA6F0B-VJ_BkxwTvq0-18" target="W6fA6F0B-VJ_BkxwTvq0-54">
          <mxGeometry relative="1" as="geometry" />
        </mxCell>
        <mxCell id="W6fA6F0B-VJ_BkxwTvq0-18" value="&lt;div style=&quot;&quot;&gt;&lt;span style=&quot;font-size: 14px;&quot;&gt;Hiển thị thông báo lỗi&lt;/span&gt;&lt;/div&gt;" style="rounded=0;whiteSpace=wrap;html=1;align=center;" vertex="1" parent="W6fA6F0B-VJ_BkxwTvq0-64">
          <mxGeometry x="636" y="3140" width="151.5" height="40" as="geometry" />
        </mxCell>
        <mxCell id="W6fA6F0B-VJ_BkxwTvq0-26" style="edgeStyle=orthogonalEdgeStyle;rounded=0;orthogonalLoop=1;jettySize=auto;html=1;exitX=0.5;exitY=1;exitDx=0;exitDy=0;entryX=0;entryY=0.5;entryDx=0;entryDy=0;" edge="1" parent="W6fA6F0B-VJ_BkxwTvq0-64" source="W6fA6F0B-VJ_BkxwTvq0-20" target="W6fA6F0B-VJ_BkxwTvq0-28">
          <mxGeometry relative="1" as="geometry">
            <mxPoint x="998.8500000000004" y="2543.5" as="targetPoint" />
          </mxGeometry>
        </mxCell>
        <mxCell id="W6fA6F0B-VJ_BkxwTvq0-20" value="&lt;div style=&quot;font-size: 14px;&quot;&gt;Chọn lưu và tiếp tục thì bắt đầu gửi dữ liệu qua URL:&amp;nbsp;&lt;b&gt;http://localhost:8080/bo/api/priv&lt;/b&gt;&lt;br&gt;&lt;/div&gt;&lt;div style=&quot;font-size: 14px;&quot;&gt;với yêu cầu :&lt;/div&gt;&lt;div style=&quot;font-size: 14px;&quot;&gt;&lt;b&gt;lock_id : 83 (id này là id của lock dữ liệu user đó)&lt;/b&gt;&lt;/div&gt;&lt;div style=&quot;font-size: 14px;&quot;&gt;&lt;b&gt;sv_class:&quot;ServiceAutUser&quot;&lt;/b&gt;&lt;/div&gt;&lt;div style=&quot;&quot;&gt;&lt;b style=&quot;font-size: 14px;&quot;&gt;sv_name:&quot;&lt;/b&gt;&lt;span style=&quot;text-align: left; white-space: pre; background-color: rgb(255, 255, 255);&quot;&gt;&lt;font face=&quot;Helvetica&quot; style=&quot;font-size: 14px;&quot;&gt;&lt;b&gt;SVLckEnd&lt;/b&gt;&lt;/font&gt;&lt;/span&gt;&lt;b style=&quot;font-size: 14px;&quot;&gt;&quot;&lt;/b&gt;&lt;/div&gt;" style="rounded=0;whiteSpace=wrap;html=1;" vertex="1" parent="W6fA6F0B-VJ_BkxwTvq0-64">
          <mxGeometry x="110" y="2359.5" width="332.31" height="147" as="geometry" />
        </mxCell>
        <mxCell id="W6fA6F0B-VJ_BkxwTvq0-27" style="edgeStyle=orthogonalEdgeStyle;rounded=0;orthogonalLoop=1;jettySize=auto;html=1;exitX=1;exitY=0.5;exitDx=0;exitDy=0;entryX=0.5;entryY=0;entryDx=0;entryDy=0;" edge="1" parent="W6fA6F0B-VJ_BkxwTvq0-64" source="W6fA6F0B-VJ_BkxwTvq0-24" target="W6fA6F0B-VJ_BkxwTvq0-28">
          <mxGeometry relative="1" as="geometry">
            <mxPoint x="1165.005" y="2470" as="targetPoint" />
          </mxGeometry>
        </mxCell>
        <mxCell id="W6fA6F0B-VJ_BkxwTvq0-24" value="&lt;div style=&quot;font-size: 14px;&quot;&gt;&lt;font style=&quot;font-size: 14px;&quot;&gt;Chọn lưu và tiếp tục thì bắt đầu gửi dữ liệu qua URL: &lt;b style=&quot;&quot;&gt;http://localhost:8080/bo/api/priv&lt;/b&gt;&lt;br&gt;&lt;/font&gt;&lt;/div&gt;&lt;div style=&quot;font-size: 14px;&quot;&gt;&lt;font style=&quot;font-size: 14px;&quot;&gt;với yêu cầu :&lt;/font&gt;&lt;/div&gt;&lt;div style=&quot;font-size: 14px;&quot;&gt;&lt;b&gt;&lt;font style=&quot;font-size: 14px;&quot;&gt;lock_id : 83 (id này là id của lock dữ liệu user đó)&lt;/font&gt;&lt;/b&gt;&lt;/div&gt;&lt;div style=&quot;font-size: 14px;&quot;&gt;&lt;b&gt;&lt;font style=&quot;font-size: 14px;&quot;&gt;sv_class:&quot;ServiceAutUser&quot;&lt;/font&gt;&lt;/b&gt;&lt;/div&gt;&lt;div style=&quot;&quot;&gt;&lt;b style=&quot;font-size: 14px;&quot;&gt;&lt;font style=&quot;font-size: 14px;&quot;&gt;sv_name:&quot;&lt;/font&gt;&lt;/b&gt;&lt;span style=&quot;text-align: left; white-space: pre; background-color: rgb(255, 255, 255);&quot;&gt;&lt;font style=&quot;font-size: 14px;&quot; face=&quot;Helvetica&quot;&gt;&lt;b&gt;SVLckSav&lt;/b&gt;&lt;/font&gt;&lt;/span&gt;&lt;b style=&quot;font-size: 14px;&quot;&gt;&lt;font style=&quot;font-size: 14px;&quot;&gt;&quot;&lt;/font&gt;&lt;/b&gt;&lt;br&gt;&lt;/div&gt;" style="rounded=0;whiteSpace=wrap;html=1;" vertex="1" parent="W6fA6F0B-VJ_BkxwTvq0-64">
          <mxGeometry x="481.5" y="2363" width="338.5" height="140" as="geometry" />
        </mxCell>
        <mxCell id="W6fA6F0B-VJ_BkxwTvq0-30" style="edgeStyle=orthogonalEdgeStyle;rounded=0;orthogonalLoop=1;jettySize=auto;html=1;exitX=1;exitY=0.5;exitDx=0;exitDy=0;entryX=0;entryY=0.5;entryDx=0;entryDy=0;" edge="1" parent="W6fA6F0B-VJ_BkxwTvq0-64" source="W6fA6F0B-VJ_BkxwTvq0-28" target="W6fA6F0B-VJ_BkxwTvq0-29">
          <mxGeometry relative="1" as="geometry" />
        </mxCell>
        <mxCell id="W6fA6F0B-VJ_BkxwTvq0-28" value="&lt;div style=&quot;&quot;&gt;&lt;span style=&quot;background-color: initial; font-size: 14px;&quot;&gt;Nhận request và dữ liệu trong class&amp;nbsp;&lt;/span&gt;&lt;span style=&quot;font-size: 14px; background-color: initial;&quot;&gt;ServiceAPIPrivate với hàm doGet() -&amp;gt; doPost() -&amp;gt; API.doService()&lt;/span&gt;&lt;/div&gt;" style="rounded=0;whiteSpace=wrap;html=1;align=center;" vertex="1" parent="W6fA6F0B-VJ_BkxwTvq0-64">
          <mxGeometry x="1030" y="2506.5" width="372.5" height="70" as="geometry" />
        </mxCell>
        <mxCell id="W6fA6F0B-VJ_BkxwTvq0-32" style="edgeStyle=orthogonalEdgeStyle;rounded=0;orthogonalLoop=1;jettySize=auto;html=1;exitX=0.5;exitY=1;exitDx=0;exitDy=0;entryX=0.5;entryY=0;entryDx=0;entryDy=0;" edge="1" parent="W6fA6F0B-VJ_BkxwTvq0-64" source="W6fA6F0B-VJ_BkxwTvq0-29" target="W6fA6F0B-VJ_BkxwTvq0-33">
          <mxGeometry relative="1" as="geometry">
            <mxPoint x="1259.7142857142862" y="2635" as="targetPoint" />
          </mxGeometry>
        </mxCell>
        <mxCell id="W6fA6F0B-VJ_BkxwTvq0-35" style="edgeStyle=orthogonalEdgeStyle;rounded=0;orthogonalLoop=1;jettySize=auto;html=1;exitX=0.5;exitY=1;exitDx=0;exitDy=0;entryX=0.5;entryY=0;entryDx=0;entryDy=0;" edge="1" parent="W6fA6F0B-VJ_BkxwTvq0-64" source="W6fA6F0B-VJ_BkxwTvq0-29" target="W6fA6F0B-VJ_BkxwTvq0-34">
          <mxGeometry relative="1" as="geometry" />
        </mxCell>
        <mxCell id="W6fA6F0B-VJ_BkxwTvq0-29" value="&lt;div style=&quot;&quot;&gt;&lt;span style=&quot;font-size: 14px;&quot;&gt;Xử lý dữ liệu, lấy sv_name và user từ json.&lt;/span&gt;&lt;/div&gt;&lt;div style=&quot;&quot;&gt;&lt;span style=&quot;font-size: 14px;&quot;&gt;Kiểm tra sv_name với các điều kiện&lt;/span&gt;&lt;/div&gt;" style="rounded=0;whiteSpace=wrap;html=1;align=center;" vertex="1" parent="W6fA6F0B-VJ_BkxwTvq0-64">
          <mxGeometry x="1480" y="2506.5" width="281.5" height="70" as="geometry" />
        </mxCell>
        <mxCell id="W6fA6F0B-VJ_BkxwTvq0-43" style="edgeStyle=orthogonalEdgeStyle;rounded=0;orthogonalLoop=1;jettySize=auto;html=1;exitX=0.5;exitY=1;exitDx=0;exitDy=0;" edge="1" parent="W6fA6F0B-VJ_BkxwTvq0-64" source="W6fA6F0B-VJ_BkxwTvq0-33" target="W6fA6F0B-VJ_BkxwTvq0-42">
          <mxGeometry relative="1" as="geometry" />
        </mxCell>
        <mxCell id="W6fA6F0B-VJ_BkxwTvq0-33" value="&lt;div style=&quot;text-align: left;&quot;&gt;&lt;span style=&quot;font-size: 14px;&quot;&gt;Ở đây sv_name = &lt;span style=&quot;white-space: pre;&quot;&gt;&lt;b&gt;SVLckEnd &lt;/b&gt;&lt;/span&gt;&lt;/span&gt;&lt;/div&gt;&lt;div style=&quot;&quot;&gt;&lt;span style=&quot;font-size: 14px; background-color: initial;&quot;&gt;=&amp;gt;&amp;nbsp; thực hiện hàm&amp;nbsp;&lt;/span&gt;&lt;b style=&quot;background-color: initial; text-align: left; white-space: pre;&quot;&gt;&lt;font style=&quot;font-size: 14px;&quot; face=&quot;Helvetica&quot;&gt;doLckEnd()&lt;/font&gt;&lt;/b&gt;&lt;/div&gt;" style="rounded=0;whiteSpace=wrap;html=1;align=center;" vertex="1" parent="W6fA6F0B-VJ_BkxwTvq0-64">
          <mxGeometry x="1300" y="2620" width="281.5" height="70" as="geometry" />
        </mxCell>
        <mxCell id="W6fA6F0B-VJ_BkxwTvq0-37" style="edgeStyle=orthogonalEdgeStyle;rounded=0;orthogonalLoop=1;jettySize=auto;html=1;exitX=0.5;exitY=1;exitDx=0;exitDy=0;" edge="1" parent="W6fA6F0B-VJ_BkxwTvq0-64" source="W6fA6F0B-VJ_BkxwTvq0-34" target="W6fA6F0B-VJ_BkxwTvq0-36">
          <mxGeometry relative="1" as="geometry" />
        </mxCell>
        <mxCell id="W6fA6F0B-VJ_BkxwTvq0-34" value="&lt;div style=&quot;text-align: left;&quot;&gt;&lt;span style=&quot;font-size: 14px;&quot;&gt;Ở đây sv_name = &lt;span style=&quot;white-space: pre;&quot;&gt;&lt;b&gt;SVLckSav&lt;/b&gt;&lt;/span&gt;&lt;/span&gt;&lt;/div&gt;&lt;div style=&quot;&quot;&gt;&lt;span style=&quot;font-size: 14px; background-color: initial;&quot;&gt;=&amp;gt;&amp;nbsp; thực hiện hàm&amp;nbsp;&lt;/span&gt;&lt;b style=&quot;background-color: initial; text-align: left; white-space: pre;&quot;&gt;&lt;font style=&quot;font-size: 14px;&quot; face=&quot;Helvetica&quot;&gt;doLckSav()&lt;/font&gt;&lt;/b&gt;&lt;/div&gt;" style="rounded=0;whiteSpace=wrap;html=1;align=center;" vertex="1" parent="W6fA6F0B-VJ_BkxwTvq0-64">
          <mxGeometry x="1610" y="2630" width="281.5" height="70" as="geometry" />
        </mxCell>
        <mxCell id="W6fA6F0B-VJ_BkxwTvq0-39" style="edgeStyle=orthogonalEdgeStyle;rounded=0;orthogonalLoop=1;jettySize=auto;html=1;exitX=0.5;exitY=1;exitDx=0;exitDy=0;" edge="1" parent="W6fA6F0B-VJ_BkxwTvq0-64" source="W6fA6F0B-VJ_BkxwTvq0-36" target="W6fA6F0B-VJ_BkxwTvq0-38">
          <mxGeometry relative="1" as="geometry" />
        </mxCell>
        <mxCell id="W6fA6F0B-VJ_BkxwTvq0-36" value="&lt;font style=&quot;font-size: 14px;&quot;&gt;Trong hàm &lt;b&gt;doLckSav() &lt;/b&gt;thực hiện kiểm tra lock của user đó trong csdl có tồn tại hay không bằng class&amp;nbsp;&lt;b&gt;ToolDBLock&lt;/b&gt;&amp;nbsp;với hàm&amp;nbsp;&lt;b&gt;canExistLock()&lt;/b&gt;&amp;nbsp;dựa vào id_lock&lt;/font&gt;" style="rounded=0;whiteSpace=wrap;html=1;align=center;" vertex="1" parent="W6fA6F0B-VJ_BkxwTvq0-64">
          <mxGeometry x="1610" y="2755" width="281.5" height="85" as="geometry" />
        </mxCell>
        <mxCell id="W6fA6F0B-VJ_BkxwTvq0-41" style="edgeStyle=orthogonalEdgeStyle;rounded=0;orthogonalLoop=1;jettySize=auto;html=1;exitX=0.5;exitY=1;exitDx=0;exitDy=0;entryX=1;entryY=0.5;entryDx=0;entryDy=0;" edge="1" parent="W6fA6F0B-VJ_BkxwTvq0-64" source="W6fA6F0B-VJ_BkxwTvq0-38" target="W6fA6F0B-VJ_BkxwTvq0-40">
          <mxGeometry relative="1" as="geometry" />
        </mxCell>
        <mxCell id="W6fA6F0B-VJ_BkxwTvq0-38" value="&lt;font style=&quot;font-size: 14px;&quot;&gt;Sau đó thực hiện lấy dữ liệu của user đó ra bằng&amp;nbsp; hàm &lt;b&gt;reqMod()&lt;/b&gt;&lt;/font&gt;" style="rounded=0;whiteSpace=wrap;html=1;align=center;" vertex="1" parent="W6fA6F0B-VJ_BkxwTvq0-64">
          <mxGeometry x="1610" y="2870" width="281.5" height="70" as="geometry" />
        </mxCell>
        <mxCell id="W6fA6F0B-VJ_BkxwTvq0-53" style="edgeStyle=orthogonalEdgeStyle;rounded=0;orthogonalLoop=1;jettySize=auto;html=1;exitX=0;exitY=0.5;exitDx=0;exitDy=0;" edge="1" parent="W6fA6F0B-VJ_BkxwTvq0-64" source="W6fA6F0B-VJ_BkxwTvq0-40" target="W6fA6F0B-VJ_BkxwTvq0-52">
          <mxGeometry relative="1" as="geometry" />
        </mxCell>
        <mxCell id="W6fA6F0B-VJ_BkxwTvq0-40" value="&lt;font style=&quot;font-size: 14px;&quot;&gt;Sau đó build response dạng json và trả về front-end&lt;/font&gt;" style="rounded=0;whiteSpace=wrap;html=1;align=center;" vertex="1" parent="W6fA6F0B-VJ_BkxwTvq0-64">
          <mxGeometry x="990" y="3040" width="281.5" height="70" as="geometry" />
        </mxCell>
        <mxCell id="W6fA6F0B-VJ_BkxwTvq0-45" style="edgeStyle=orthogonalEdgeStyle;rounded=0;orthogonalLoop=1;jettySize=auto;html=1;exitX=0.5;exitY=1;exitDx=0;exitDy=0;" edge="1" parent="W6fA6F0B-VJ_BkxwTvq0-64" source="W6fA6F0B-VJ_BkxwTvq0-42" target="W6fA6F0B-VJ_BkxwTvq0-44">
          <mxGeometry relative="1" as="geometry" />
        </mxCell>
        <mxCell id="W6fA6F0B-VJ_BkxwTvq0-42" value="&lt;div style=&quot;&quot;&gt;&lt;span style=&quot;font-size: 14px; text-align: center;&quot;&gt;Trong hàm&amp;nbsp;&lt;/span&gt;&lt;b style=&quot;font-size: 14px; text-align: center;&quot;&gt;doLckEnd()&amp;nbsp;&lt;/b&gt;&lt;span style=&quot;font-size: 14px;&quot;&gt;thực hiện kiểm tra lock của user đó trong csdl có tồn tại hay không bằng class &lt;b&gt;ToolDBLock&lt;/b&gt; với hàm &lt;b&gt;canExistLock()&lt;/b&gt; dựa vào id_lock&lt;/span&gt;&lt;br&gt;&lt;/div&gt;" style="rounded=0;whiteSpace=wrap;html=1;align=center;" vertex="1" parent="W6fA6F0B-VJ_BkxwTvq0-64">
          <mxGeometry x="1300" y="2720" width="281.5" height="85" as="geometry" />
        </mxCell>
        <mxCell id="W6fA6F0B-VJ_BkxwTvq0-47" style="edgeStyle=orthogonalEdgeStyle;rounded=0;orthogonalLoop=1;jettySize=auto;html=1;exitX=0.5;exitY=1;exitDx=0;exitDy=0;" edge="1" parent="W6fA6F0B-VJ_BkxwTvq0-64" source="W6fA6F0B-VJ_BkxwTvq0-44" target="W6fA6F0B-VJ_BkxwTvq0-46">
          <mxGeometry relative="1" as="geometry" />
        </mxCell>
        <mxCell id="W6fA6F0B-VJ_BkxwTvq0-44" value="&lt;div style=&quot;&quot;&gt;&lt;span style=&quot;font-size: 14px;&quot;&gt;Sau đó thực hiện lấy dữ liệu của user đó ra bằng&amp;nbsp; hàm&amp;nbsp;&lt;/span&gt;&lt;b style=&quot;font-size: 14px;&quot;&gt;reqMod()&lt;/b&gt;&lt;br&gt;&lt;/div&gt;" style="rounded=0;whiteSpace=wrap;html=1;align=center;" vertex="1" parent="W6fA6F0B-VJ_BkxwTvq0-64">
          <mxGeometry x="1300" y="2840" width="281.5" height="70" as="geometry" />
        </mxCell>
        <mxCell id="W6fA6F0B-VJ_BkxwTvq0-49" style="edgeStyle=orthogonalEdgeStyle;rounded=0;orthogonalLoop=1;jettySize=auto;html=1;exitX=0;exitY=0.5;exitDx=0;exitDy=0;entryX=1;entryY=0.5;entryDx=0;entryDy=0;" edge="1" parent="W6fA6F0B-VJ_BkxwTvq0-64" source="W6fA6F0B-VJ_BkxwTvq0-46" target="W6fA6F0B-VJ_BkxwTvq0-48">
          <mxGeometry relative="1" as="geometry" />
        </mxCell>
        <mxCell id="W6fA6F0B-VJ_BkxwTvq0-46" value="&lt;div style=&quot;&quot;&gt;&lt;span style=&quot;font-size: 14px;&quot;&gt;Thực hiện xóa lock trong csdl bằng class &lt;b&gt;ToolDBLock &lt;/b&gt;với hàm &lt;b&gt;canDeleteLock()&lt;/b&gt;&lt;/span&gt;&lt;/div&gt;" style="rounded=0;whiteSpace=wrap;html=1;align=center;" vertex="1" parent="W6fA6F0B-VJ_BkxwTvq0-64">
          <mxGeometry x="1300" y="2940" width="281.5" height="70" as="geometry" />
        </mxCell>
        <mxCell id="W6fA6F0B-VJ_BkxwTvq0-51" style="edgeStyle=orthogonalEdgeStyle;rounded=0;orthogonalLoop=1;jettySize=auto;html=1;exitX=0;exitY=0.5;exitDx=0;exitDy=0;" edge="1" parent="W6fA6F0B-VJ_BkxwTvq0-64" source="W6fA6F0B-VJ_BkxwTvq0-48" target="W6fA6F0B-VJ_BkxwTvq0-50">
          <mxGeometry relative="1" as="geometry" />
        </mxCell>
        <mxCell id="W6fA6F0B-VJ_BkxwTvq0-48" value="&lt;font style=&quot;font-size: 14px;&quot;&gt;Sau đó build response dạng json và trả về front-end&lt;/font&gt;" style="rounded=0;whiteSpace=wrap;html=1;align=center;" vertex="1" parent="W6fA6F0B-VJ_BkxwTvq0-64">
          <mxGeometry x="990" y="2940" width="281.5" height="70" as="geometry" />
        </mxCell>
        <mxCell id="W6fA6F0B-VJ_BkxwTvq0-55" style="edgeStyle=orthogonalEdgeStyle;rounded=0;orthogonalLoop=1;jettySize=auto;html=1;exitX=0.5;exitY=1;exitDx=0;exitDy=0;entryX=0;entryY=0.5;entryDx=0;entryDy=0;" edge="1" parent="W6fA6F0B-VJ_BkxwTvq0-64" source="W6fA6F0B-VJ_BkxwTvq0-50" target="W6fA6F0B-VJ_BkxwTvq0-54">
          <mxGeometry relative="1" as="geometry" />
        </mxCell>
        <mxCell id="W6fA6F0B-VJ_BkxwTvq0-50" value="&lt;font style=&quot;font-size: 14px;&quot;&gt;Nhận dữ liệu và hiển thị thông tin user dạng form preview (form xem trước, không thể chỉnh sửa)&lt;/font&gt;" style="rounded=0;whiteSpace=wrap;html=1;align=center;" vertex="1" parent="W6fA6F0B-VJ_BkxwTvq0-64">
          <mxGeometry x="280.80999999999995" y="2940" width="281.5" height="70" as="geometry" />
        </mxCell>
        <mxCell id="W6fA6F0B-VJ_BkxwTvq0-58" style="edgeStyle=orthogonalEdgeStyle;rounded=0;orthogonalLoop=1;jettySize=auto;html=1;exitX=0;exitY=0.5;exitDx=0;exitDy=0;entryX=0;entryY=0.5;entryDx=0;entryDy=0;" edge="1" parent="W6fA6F0B-VJ_BkxwTvq0-64" source="W6fA6F0B-VJ_BkxwTvq0-52" target="W6fA6F0B-VJ_BkxwTvq0-54">
          <mxGeometry relative="1" as="geometry" />
        </mxCell>
        <mxCell id="W6fA6F0B-VJ_BkxwTvq0-52" value="&lt;span style=&quot;font-size: 14px;&quot;&gt;Nhận dữ liệu và hiển thị thông tin user dạng form và có thể tiếp tục chỉnh sửa&lt;/span&gt;" style="rounded=0;whiteSpace=wrap;html=1;align=center;" vertex="1" parent="W6fA6F0B-VJ_BkxwTvq0-64">
          <mxGeometry x="518.5" y="3040" width="281.5" height="70" as="geometry" />
        </mxCell>
        <mxCell id="W6fA6F0B-VJ_BkxwTvq0-54" value="&lt;font style=&quot;font-size: 14px;&quot;&gt;&lt;b&gt;END&lt;/b&gt;&lt;/font&gt;" style="rounded=0;whiteSpace=wrap;html=1;align=center;" vertex="1" parent="W6fA6F0B-VJ_BkxwTvq0-64">
          <mxGeometry x="599" y="3600" width="81" height="40" as="geometry" />
        </mxCell>
        <mxCell id="W6fA6F0B-VJ_BkxwTvq0-61" value="&lt;b&gt;&lt;font style=&quot;font-size: 15px;&quot;&gt;Chú thích: Lock trong csdl chỉ có thể được xác nhận xóa và tạo khi người dùng thao tác trên giao diện, không thể tự xóa khi thoát web khi chưa xác nhận, người dùng khác không thể chỉnh sửa user đó trừ khi user này xác nhận&lt;/font&gt;&lt;/b&gt;" style="rounded=0;whiteSpace=wrap;html=1;" vertex="1" parent="W6fA6F0B-VJ_BkxwTvq0-64">
          <mxGeometry x="695" y="3750" width="550" height="110" as="geometry" />
        </mxCell>
      </root>
    </mxGraphModel>
  </diagram>
</mxfile>
